solid CATIA STL
  facet normal  -0.000000e+000 -1.000000e+000  -0.000000e+000
    outer loop
      vertex -3.750000e-001 -2.448129e+000  7.035103e-001
      vertex -3.750000e-001 -2.448129e+000  1.318529e+000
      vertex -5.000000e-001 -2.448129e+000  1.586744e+000
    endloop
  endfacet
  facet normal  0.000000e+000 -1.000000e+000  0.000000e+000
    outer loop
      vertex  5.000000e-001 -2.448129e+000  1.586744e+000
      vertex -4.196119e-016 -2.448129e+000  1.166825e+000
      vertex  8.038994e-002 -2.448129e+000  1.071104e+000
    endloop
  endfacet
  facet normal  0.000000e+000 -1.000000e+000  0.000000e+000
    outer loop
      vertex  5.000000e-001 -2.448129e+000  1.586744e+000
      vertex  8.038994e-002 -2.448129e+000  1.071104e+000
      vertex  3.750000e-001 -2.448129e+000  1.318529e+000
    endloop
  endfacet
  facet normal  0.000000e+000 -1.000000e+000  0.000000e+000
    outer loop
      vertex  5.000000e-001 -2.448129e+000  1.586744e+000
      vertex  3.750000e-001 -2.448129e+000  1.318529e+000
      vertex  3.750000e-001 -2.448129e+000  7.035103e-001
    endloop
  endfacet
  facet normal  0.000000e+000 -9.999999e-001  0.000000e+000
    outer loop
      vertex  5.000000e-001 -2.448129e+000  1.586744e+000
      vertex  3.750000e-001 -2.448129e+000  7.035103e-001
      vertex  5.000000e-001 -2.448129e+000  4.942991e-001
    endloop
  endfacet
  facet normal  -0.000000e+000 -1.000000e+000  0.000000e+000
    outer loop
      vertex -5.000000e-001 -2.448129e+000  4.942991e-001
      vertex  0.000000e+000 -2.448129e+000  7.633511e-001
      vertex -8.038994e-002 -2.448129e+000  8.620412e-001
    endloop
  endfacet
  facet normal  0.000000e+000 -9.999999e-001  0.000000e+000
    outer loop
      vertex -5.000000e-001 -2.448129e+000  4.942991e-001
      vertex -8.038994e-002 -2.448129e+000  8.620412e-001
      vertex -3.750000e-001 -2.448129e+000  7.035103e-001
    endloop
  endfacet
  facet normal  -0.000000e+000 -9.999999e-001  0.000000e+000
    outer loop
      vertex -5.000000e-001 -2.448129e+000  4.942991e-001
      vertex -3.750000e-001 -2.448129e+000  7.035103e-001
      vertex -5.000000e-001 -2.448129e+000  1.586744e+000
    endloop
  endfacet
  facet normal  0.000000e+000 -9.999999e-001  -0.000000e+000
    outer loop
      vertex -5.000000e-001 -2.448129e+000  4.942991e-001
      vertex -5.000000e-001 -2.448129e+000  1.586744e+000
      vertex -6.250000e-001 -2.448129e+000  2.410224e-001
    endloop
  endfacet
  facet normal  0.000000e+000 -1.000000e+000  0.000000e+000
    outer loop
      vertex -5.000000e-001 -2.448129e+000  4.942991e-001
      vertex -6.250000e-001 -2.448129e+000  2.410224e-001
      vertex -5.000000e-001 -2.448129e+000  2.410224e-001
    endloop
  endfacet
  facet normal  -0.000000e+000 -1.000000e+000  -0.000000e+000
    outer loop
      vertex  6.250000e-001 -2.448129e+000  2.410224e-001
      vertex  6.250000e-001 -2.448129e+000  2.336744e+000
      vertex  5.000000e-001 -2.448129e+000  2.336744e+000
    endloop
  endfacet
  facet normal  0.000000e+000 -1.000000e+000  0.000000e+000
    outer loop
      vertex  6.250000e-001 -2.448129e+000  2.410224e-001
      vertex  5.000000e-001 -2.448129e+000  2.336744e+000
      vertex  5.000000e-001 -2.448129e+000  1.586744e+000
    endloop
  endfacet
  facet normal  0.000000e+000 -9.999999e-001  0.000000e+000
    outer loop
      vertex  6.250000e-001 -2.448129e+000  2.410224e-001
      vertex  5.000000e-001 -2.448129e+000  1.586744e+000
      vertex  5.000000e-001 -2.448129e+000  4.942991e-001
    endloop
  endfacet
  facet normal  0.000000e+000 -1.000000e+000  0.000000e+000
    outer loop
      vertex  6.250000e-001 -2.448129e+000  2.410224e-001
      vertex  5.000000e-001 -2.448129e+000  4.942991e-001
      vertex  5.000000e-001 -2.448129e+000  2.410224e-001
    endloop
  endfacet
  facet normal  0.000000e+000 -1.000000e+000  0.000000e+000
    outer loop
      vertex -8.038994e-002 -2.448129e+000  8.620412e-001
      vertex  0.000000e+000 -2.448129e+000  7.633511e-001
      vertex  8.038994e-002 -2.448129e+000  8.620412e-001
    endloop
  endfacet
  facet normal  0.000000e+000 -1.000000e+000  -0.000000e+000
    outer loop
      vertex  8.038994e-002 -2.448129e+000  8.620412e-001
      vertex  0.000000e+000 -2.448129e+000  7.633511e-001
      vertex  5.000000e-001 -2.448129e+000  4.942991e-001
    endloop
  endfacet
  facet normal  0.000000e+000 -1.000000e+000  0.000000e+000
    outer loop
      vertex  8.038994e-002 -2.448129e+000  8.620412e-001
      vertex  5.000000e-001 -2.448129e+000  4.942991e-001
      vertex  3.750000e-001 -2.448129e+000  7.035103e-001
    endloop
  endfacet
  facet normal  0.000000e+000 -1.000000e+000  0.000000e+000
    outer loop
      vertex -5.000000e-001 -2.448129e+000  1.586744e+000
      vertex -3.750000e-001 -2.448129e+000  1.318529e+000
      vertex -4.196119e-016 -2.448129e+000  1.166825e+000
    endloop
  endfacet
  facet normal  -0.000000e+000 -1.000000e+000  0.000000e+000
    outer loop
      vertex -4.196119e-016 -2.448129e+000  1.166825e+000
      vertex -3.750000e-001 -2.448129e+000  1.318529e+000
      vertex -8.038994e-002 -2.448129e+000  1.071104e+000
    endloop
  endfacet
  facet normal  0.000000e+000 -1.000000e+000  0.000000e+000
    outer loop
      vertex -4.196119e-016 -2.448129e+000  1.166825e+000
      vertex -8.038994e-002 -2.448129e+000  1.071104e+000
      vertex  8.038994e-002 -2.448129e+000  1.071104e+000
    endloop
  endfacet
  facet normal  -0.000000e+000 -1.000000e+000  0.000000e+000
    outer loop
      vertex  8.038994e-002 -2.448129e+000  1.071104e+000
      vertex -8.038994e-002 -2.448129e+000  1.071104e+000
      vertex -8.038994e-002 -2.448129e+000  8.620412e-001
    endloop
  endfacet
  facet normal  0.000000e+000 -1.000000e+000  0.000000e+000
    outer loop
      vertex  8.038994e-002 -2.448129e+000  1.071104e+000
      vertex -8.038994e-002 -2.448129e+000  8.620412e-001
      vertex  8.038994e-002 -2.448129e+000  8.620412e-001
    endloop
  endfacet
  facet normal  0.000000e+000 -1.000000e+000  0.000000e+000
    outer loop
      vertex -6.250000e-001 -2.448129e+000  2.336744e+000
      vertex -6.250000e-001 -2.448129e+000  2.410224e-001
      vertex -5.000000e-001 -2.448129e+000  2.336744e+000
    endloop
  endfacet
  facet normal  0.000000e+000 -1.000000e+000  -0.000000e+000
    outer loop
      vertex -5.000000e-001 -2.448129e+000  2.336744e+000
      vertex -6.250000e-001 -2.448129e+000  2.410224e-001
      vertex -5.000000e-001 -2.448129e+000  1.586744e+000
    endloop
  endfacet
  facet normal  0.000000e+000  1.000000e+000  0.000000e+000
    outer loop
      vertex  3.750000e-001 -2.148129e+000  7.035103e-001
      vertex  6.250000e-001 -2.148129e+000  6.481292e-001
      vertex  5.000000e-001 -2.148129e+000  6.481292e-001
    endloop
  endfacet
  facet normal  -0.000000e+000  1.000000e+000  0.000000e+000
    outer loop
      vertex  6.250000e-001 -2.148129e+000  6.481292e-001
      vertex  3.750000e-001 -2.148129e+000  7.035103e-001
      vertex  3.750000e-001 -2.148129e+000  1.318529e+000
    endloop
  endfacet
  facet normal  -0.000000e+000  1.000000e+000  0.000000e+000
    outer loop
      vertex  6.250000e-001 -2.148129e+000  6.481292e-001
      vertex  3.750000e-001 -2.148129e+000  1.318529e+000
      vertex  5.000000e-001 -2.148129e+000  1.586744e+000
    endloop
  endfacet
  facet normal  -0.000000e+000  1.000000e+000  0.000000e+000
    outer loop
      vertex  6.250000e-001 -2.148129e+000  6.481292e-001
      vertex  5.000000e-001 -2.148129e+000  1.586744e+000
      vertex  5.000000e-001 -2.148129e+000  2.336744e+000
    endloop
  endfacet
  facet normal  -0.000000e+000  1.000000e+000  0.000000e+000
    outer loop
      vertex  6.250000e-001 -2.148129e+000  6.481292e-001
      vertex  5.000000e-001 -2.148129e+000  2.336744e+000
      vertex  6.250000e-001 -2.148129e+000  2.336744e+000
    endloop
  endfacet
  facet normal  -0.000000e+000  1.000000e+000  0.000000e+000
    outer loop
      vertex -6.250000e-001 -2.148129e+000  6.481292e-001
      vertex -6.250000e-001 -2.148129e+000  2.336744e+000
      vertex -5.000000e-001 -2.148129e+000  2.336744e+000
    endloop
  endfacet
  facet normal  0.000000e+000  1.000000e+000  0.000000e+000
    outer loop
      vertex -6.250000e-001 -2.148129e+000  6.481292e-001
      vertex -5.000000e-001 -2.148129e+000  2.336744e+000
      vertex -5.000000e-001 -2.148129e+000  1.586744e+000
    endloop
  endfacet
  facet normal  0.000000e+000  1.000000e+000  0.000000e+000
    outer loop
      vertex -6.250000e-001 -2.148129e+000  6.481292e-001
      vertex -5.000000e-001 -2.148129e+000  1.586744e+000
      vertex -3.750000e-001 -2.148129e+000  1.318529e+000
    endloop
  endfacet
  facet normal  0.000000e+000  1.000000e+000  0.000000e+000
    outer loop
      vertex -6.250000e-001 -2.148129e+000  6.481292e-001
      vertex -3.750000e-001 -2.148129e+000  1.318529e+000
      vertex -3.750000e-001 -2.148129e+000  7.035103e-001
    endloop
  endfacet
  facet normal  0.000000e+000  1.000000e+000  0.000000e+000
    outer loop
      vertex -6.250000e-001 -2.148129e+000  6.481292e-001
      vertex -3.750000e-001 -2.148129e+000  7.035103e-001
      vertex -5.000000e-001 -2.148129e+000  6.481292e-001
    endloop
  endfacet
  facet normal  0.000000e+000  1.000000e+000  0.000000e+000
    outer loop
      vertex  8.038994e-002 -2.148129e+000  1.071104e+000
      vertex -8.038994e-002 -2.148129e+000  1.071104e+000
      vertex -4.196119e-016 -2.148129e+000  1.166825e+000
    endloop
  endfacet
  facet normal  0.000000e+000  1.000000e+000  0.000000e+000
    outer loop
      vertex -4.196119e-016 -2.148129e+000  1.166825e+000
      vertex -8.038994e-002 -2.148129e+000  1.071104e+000
      vertex -3.750000e-001 -2.148129e+000  1.318529e+000
    endloop
  endfacet
  facet normal  -0.000000e+000  1.000000e+000  -0.000000e+000
    outer loop
      vertex -4.196119e-016 -2.148129e+000  1.166825e+000
      vertex -3.750000e-001 -2.148129e+000  1.318529e+000
      vertex -5.000000e-001 -2.148129e+000  1.586744e+000
    endloop
  endfacet
  facet normal  0.000000e+000  9.999999e-001  -0.000000e+000
    outer loop
      vertex  5.000000e-001 -2.148129e+000  6.481292e-001
      vertex  5.000000e-001 -2.148129e+000  4.942991e-001
      vertex  3.750000e-001 -2.148129e+000  7.035103e-001
    endloop
  endfacet
  facet normal  0.000000e+000  1.000000e+000  0.000000e+000
    outer loop
      vertex  3.750000e-001 -2.148129e+000  7.035103e-001
      vertex  5.000000e-001 -2.148129e+000  4.942991e-001
      vertex  0.000000e+000 -2.148129e+000  7.633511e-001
    endloop
  endfacet
  facet normal  -0.000000e+000  1.000000e+000  0.000000e+000
    outer loop
      vertex  3.750000e-001 -2.148129e+000  7.035103e-001
      vertex  0.000000e+000 -2.148129e+000  7.633511e-001
      vertex  8.038994e-002 -2.148129e+000  8.620412e-001
    endloop
  endfacet
  facet normal  0.000000e+000  1.000000e+000  0.000000e+000
    outer loop
      vertex  8.038994e-002 -2.148129e+000  8.620412e-001
      vertex  0.000000e+000 -2.148129e+000  7.633511e-001
      vertex -3.750000e-001 -2.148129e+000  7.035103e-001
    endloop
  endfacet
  facet normal  0.000000e+000  1.000000e+000  0.000000e+000
    outer loop
      vertex  8.038994e-002 -2.148129e+000  8.620412e-001
      vertex -3.750000e-001 -2.148129e+000  7.035103e-001
      vertex -8.038994e-002 -2.148129e+000  8.620412e-001
    endloop
  endfacet
  facet normal  0.000000e+000  1.000000e+000  0.000000e+000
    outer loop
      vertex  0.000000e+000 -2.148129e+000  7.633511e-001
      vertex -5.000000e-001 -2.148129e+000  4.942991e-001
      vertex -3.750000e-001 -2.148129e+000  7.035103e-001
    endloop
  endfacet
  facet normal  0.000000e+000  9.999999e-001  0.000000e+000
    outer loop
      vertex -3.750000e-001 -2.148129e+000  7.035103e-001
      vertex -5.000000e-001 -2.148129e+000  4.942991e-001
      vertex -5.000000e-001 -2.148129e+000  6.481292e-001
    endloop
  endfacet
  facet normal  -0.000000e+000  1.000000e+000  0.000000e+000
    outer loop
      vertex  8.038994e-002 -2.148129e+000  1.071104e+000
      vertex -4.196119e-016 -2.148129e+000  1.166825e+000
      vertex  3.750000e-001 -2.148129e+000  1.318529e+000
    endloop
  endfacet
  facet normal  0.000000e+000  1.000000e+000  -0.000000e+000
    outer loop
      vertex  3.750000e-001 -2.148129e+000  1.318529e+000
      vertex -4.196119e-016 -2.148129e+000  1.166825e+000
      vertex  5.000000e-001 -2.148129e+000  1.586744e+000
    endloop
  endfacet
  facet normal  0.000000e+000  1.000000e+000  0.000000e+000
    outer loop
      vertex -8.038994e-002 -2.148129e+000  8.620412e-001
      vertex -8.038994e-002 -2.148129e+000  1.071104e+000
      vertex  8.038994e-002 -2.148129e+000  8.620412e-001
    endloop
  endfacet
  facet normal  0.000000e+000  1.000000e+000  -0.000000e+000
    outer loop
      vertex  8.038994e-002 -2.148129e+000  8.620412e-001
      vertex -8.038994e-002 -2.148129e+000  1.071104e+000
      vertex  8.038994e-002 -2.148129e+000  1.071104e+000
    endloop
  endfacet
  facet normal -4.738558e-001  0.000000e+000 -8.806025e-001
    outer loop
      vertex  0.000000e+000 -2.148129e+000  7.633511e-001
      vertex  5.000000e-001 -2.148129e+000  4.942991e-001
      vertex  0.000000e+000 -2.448129e+000  7.633511e-001
    endloop
  endfacet
  facet normal -4.738558e-001  0.000000e+000 -8.806025e-001
    outer loop
      vertex  0.000000e+000 -2.448129e+000  7.633511e-001
      vertex  5.000000e-001 -2.148129e+000  4.942991e-001
      vertex  5.000000e-001 -2.448129e+000  4.942991e-001
    endloop
  endfacet
  facet normal  4.738558e-001  0.000000e+000 -8.806025e-001
    outer loop
      vertex  0.000000e+000 -2.148129e+000  7.633511e-001
      vertex  0.000000e+000 -2.448129e+000  7.633511e-001
      vertex -5.000000e-001 -2.148129e+000  4.942991e-001
    endloop
  endfacet
  facet normal  4.738558e-001  0.000000e+000 -8.806025e-001
    outer loop
      vertex -5.000000e-001 -2.148129e+000  4.942991e-001
      vertex  0.000000e+000 -2.448129e+000  7.633511e-001
      vertex -5.000000e-001 -2.448129e+000  4.942991e-001
    endloop
  endfacet
  facet normal  6.431195e-001  -0.000000e+000  7.657658e-001
    outer loop
      vertex -5.000000e-001 -2.148129e+000  1.586744e+000
      vertex -5.000000e-001 -2.448129e+000  1.586744e+000
      vertex -4.196119e-016 -2.148129e+000  1.166825e+000
    endloop
  endfacet
  facet normal  6.431195e-001  0.000000e+000  7.657658e-001
    outer loop
      vertex -4.196119e-016 -2.148129e+000  1.166825e+000
      vertex -5.000000e-001 -2.448129e+000  1.586744e+000
      vertex -4.196119e-016 -2.448129e+000  1.166825e+000
    endloop
  endfacet
  facet normal -6.431195e-001  0.000000e+000  7.657658e-001
    outer loop
      vertex  5.000000e-001 -2.148129e+000  1.586744e+000
      vertex -4.196119e-016 -2.148129e+000  1.166825e+000
      vertex  5.000000e-001 -2.448129e+000  1.586744e+000
    endloop
  endfacet
  facet normal -6.431195e-001  0.000000e+000  7.657658e-001
    outer loop
      vertex  5.000000e-001 -2.448129e+000  1.586744e+000
      vertex -4.196119e-016 -2.148129e+000  1.166825e+000
      vertex -4.196119e-016 -2.448129e+000  1.166825e+000
    endloop
  endfacet
  facet normal -1.000000e+000  0.000000e+000  0.000000e+000
    outer loop
      vertex  5.000000e-001 -2.082107e+000 -1.250000e-001
      vertex  5.000000e-001 -2.448129e+000  2.410224e-001
      vertex  5.000000e-001 -1.875000e+000 -1.250000e-001
    endloop
  endfacet
  facet normal -1.000000e+000  0.000000e+000  0.000000e+000
    outer loop
      vertex  5.000000e-001 -1.875000e+000  3.750000e-001
      vertex  5.000000e-001 -1.875000e+000 -1.250000e-001
      vertex  5.000000e-001 -2.448129e+000  2.410224e-001
    endloop
  endfacet
  facet normal -1.000000e+000  0.000000e+000  0.000000e+000
    outer loop
      vertex  5.000000e-001 -1.875000e+000  3.750000e-001
      vertex  5.000000e-001 -2.448129e+000  2.410224e-001
      vertex  5.000000e-001 -2.448129e+000  4.942991e-001
    endloop
  endfacet
  facet normal -1.000000e+000  0.000000e+000  0.000000e+000
    outer loop
      vertex  5.000000e-001 -1.875000e+000  3.750000e-001
      vertex  5.000000e-001 -2.448129e+000  4.942991e-001
      vertex  5.000000e-001 -2.148129e+000  4.942991e-001
    endloop
  endfacet
  facet normal -1.000000e+000  0.000000e+000  0.000000e+000
    outer loop
      vertex  5.000000e-001 -1.875000e+000  3.750000e-001
      vertex  5.000000e-001 -2.148129e+000  4.942991e-001
      vertex  5.000000e-001 -2.148129e+000  6.481292e-001
    endloop
  endfacet
  facet normal -1.000000e+000  0.000000e+000  -0.000000e+000
    outer loop
      vertex  5.000000e-001 -2.298129e+000  2.007244e+000
      vertex  5.000000e-001 -2.241914e+000  2.030529e+000
      vertex  5.000000e-001 -2.148129e+000  1.586744e+000
    endloop
  endfacet
  facet normal -1.000000e+000  0.000000e+000  -0.000000e+000
    outer loop
      vertex  5.000000e-001 -2.241914e+000  2.030529e+000
      vertex  5.000000e-001 -2.218629e+000  2.086744e+000
      vertex  5.000000e-001 -2.148129e+000  1.586744e+000
    endloop
  endfacet
  facet normal -1.000000e+000  0.000000e+000  0.000000e+000
    outer loop
      vertex  5.000000e-001 -2.448129e+000  1.586744e+000
      vertex  5.000000e-001 -2.448129e+000  2.336744e+000
      vertex  5.000000e-001 -2.377629e+000  2.086744e+000
    endloop
  endfacet
  facet normal -1.000000e+000  0.000000e+000  -0.000000e+000
    outer loop
      vertex  5.000000e-001 -2.448129e+000  1.586744e+000
      vertex  5.000000e-001 -2.377629e+000  2.086744e+000
      vertex  5.000000e-001 -2.354344e+000  2.030529e+000
    endloop
  endfacet
  facet normal -1.000000e+000  0.000000e+000  -0.000000e+000
    outer loop
      vertex  5.000000e-001 -2.448129e+000  1.586744e+000
      vertex  5.000000e-001 -2.354344e+000  2.030529e+000
      vertex  5.000000e-001 -2.298129e+000  2.007244e+000
    endloop
  endfacet
  facet normal -1.000000e+000  0.000000e+000  -0.000000e+000
    outer loop
      vertex  5.000000e-001 -2.448129e+000  1.586744e+000
      vertex  5.000000e-001 -2.298129e+000  2.007244e+000
      vertex  5.000000e-001 -2.148129e+000  1.586744e+000
    endloop
  endfacet
  facet normal -1.000000e+000  -0.000000e+000  0.000000e+000
    outer loop
      vertex  5.000000e-001 -2.448129e+000  2.336744e+000
      vertex  5.000000e-001 -2.148129e+000  2.336744e+000
      vertex  5.000000e-001 -2.298129e+000  2.166244e+000
    endloop
  endfacet
  facet normal -1.000000e+000  -0.000000e+000  0.000000e+000
    outer loop
      vertex  5.000000e-001 -2.448129e+000  2.336744e+000
      vertex  5.000000e-001 -2.298129e+000  2.166244e+000
      vertex  5.000000e-001 -2.354344e+000  2.142959e+000
    endloop
  endfacet
  facet normal -1.000000e+000  -0.000000e+000  0.000000e+000
    outer loop
      vertex  5.000000e-001 -2.448129e+000  2.336744e+000
      vertex  5.000000e-001 -2.354344e+000  2.142959e+000
      vertex  5.000000e-001 -2.377629e+000  2.086744e+000
    endloop
  endfacet
  facet normal -1.000000e+000  0.000000e+000  0.000000e+000
    outer loop
      vertex  5.000000e-001 -2.148129e+000  2.336744e+000
      vertex  5.000000e-001 -2.148129e+000  1.586744e+000
      vertex  5.000000e-001 -2.218629e+000  2.086744e+000
    endloop
  endfacet
  facet normal -1.000000e+000  0.000000e+000  0.000000e+000
    outer loop
      vertex  5.000000e-001 -2.148129e+000  2.336744e+000
      vertex  5.000000e-001 -2.218629e+000  2.086744e+000
      vertex  5.000000e-001 -2.241914e+000  2.142959e+000
    endloop
  endfacet
  facet normal -1.000000e+000  0.000000e+000  0.000000e+000
    outer loop
      vertex  5.000000e-001 -2.148129e+000  2.336744e+000
      vertex  5.000000e-001 -2.241914e+000  2.142959e+000
      vertex  5.000000e-001 -2.298129e+000  2.166244e+000
    endloop
  endfacet
  facet normal  1.000000e+000  0.000000e+000  0.000000e+000
    outer loop
      vertex -5.000000e-001 -1.875000e+000 -1.250000e-001
      vertex -5.000000e-001 -2.448129e+000  2.410224e-001
      vertex -5.000000e-001 -2.082107e+000 -1.250000e-001
    endloop
  endfacet
  facet normal  1.000000e+000  0.000000e+000  0.000000e+000
    outer loop
      vertex -5.000000e-001 -1.875000e+000  3.750000e-001
      vertex -5.000000e-001 -2.148129e+000  6.481292e-001
      vertex -5.000000e-001 -2.148129e+000  4.942991e-001
    endloop
  endfacet
  facet normal  1.000000e+000  0.000000e+000  0.000000e+000
    outer loop
      vertex -5.000000e-001 -1.875000e+000  3.750000e-001
      vertex -5.000000e-001 -2.148129e+000  4.942991e-001
      vertex -5.000000e-001 -2.448129e+000  4.942991e-001
    endloop
  endfacet
  facet normal  1.000000e+000  0.000000e+000  0.000000e+000
    outer loop
      vertex -5.000000e-001 -1.875000e+000  3.750000e-001
      vertex -5.000000e-001 -2.448129e+000  4.942991e-001
      vertex -5.000000e-001 -2.448129e+000  2.410224e-001
    endloop
  endfacet
  facet normal  1.000000e+000  -0.000000e+000  0.000000e+000
    outer loop
      vertex -5.000000e-001 -1.875000e+000  3.750000e-001
      vertex -5.000000e-001 -2.448129e+000  2.410224e-001
      vertex -5.000000e-001 -1.875000e+000 -1.250000e-001
    endloop
  endfacet
  facet normal  1.000000e+000  0.000000e+000  0.000000e+000
    outer loop
      vertex -5.000000e-001 -2.148129e+000  1.586744e+000
      vertex -5.000000e-001 -2.241914e+000  2.030529e+000
      vertex -5.000000e-001 -2.298129e+000  2.007244e+000
    endloop
  endfacet
  facet normal  1.000000e+000  0.000000e+000  0.000000e+000
    outer loop
      vertex -5.000000e-001 -2.148129e+000  1.586744e+000
      vertex -5.000000e-001 -2.218629e+000  2.086744e+000
      vertex -5.000000e-001 -2.241914e+000  2.030529e+000
    endloop
  endfacet
  facet normal  1.000000e+000  0.000000e+000  0.000000e+000
    outer loop
      vertex -5.000000e-001 -2.448129e+000  1.586744e+000
      vertex -5.000000e-001 -2.148129e+000  1.586744e+000
      vertex -5.000000e-001 -2.298129e+000  2.007244e+000
    endloop
  endfacet
  facet normal  1.000000e+000  0.000000e+000  0.000000e+000
    outer loop
      vertex -5.000000e-001 -2.448129e+000  1.586744e+000
      vertex -5.000000e-001 -2.298129e+000  2.007244e+000
      vertex -5.000000e-001 -2.354344e+000  2.030529e+000
    endloop
  endfacet
  facet normal  1.000000e+000  0.000000e+000  0.000000e+000
    outer loop
      vertex -5.000000e-001 -2.448129e+000  1.586744e+000
      vertex -5.000000e-001 -2.354344e+000  2.030529e+000
      vertex -5.000000e-001 -2.377629e+000  2.086744e+000
    endloop
  endfacet
  facet normal  1.000000e+000  0.000000e+000  0.000000e+000
    outer loop
      vertex -5.000000e-001 -2.448129e+000  2.336744e+000
      vertex -5.000000e-001 -2.448129e+000  1.586744e+000
      vertex -5.000000e-001 -2.377629e+000  2.086744e+000
    endloop
  endfacet
  facet normal  1.000000e+000  0.000000e+000  -0.000000e+000
    outer loop
      vertex -5.000000e-001 -2.448129e+000  2.336744e+000
      vertex -5.000000e-001 -2.377629e+000  2.086744e+000
      vertex -5.000000e-001 -2.354344e+000  2.142959e+000
    endloop
  endfacet
  facet normal  1.000000e+000  0.000000e+000  -0.000000e+000
    outer loop
      vertex -5.000000e-001 -2.448129e+000  2.336744e+000
      vertex -5.000000e-001 -2.354344e+000  2.142959e+000
      vertex -5.000000e-001 -2.298129e+000  2.166244e+000
    endloop
  endfacet
  facet normal  1.000000e+000  0.000000e+000  -0.000000e+000
    outer loop
      vertex -5.000000e-001 -2.448129e+000  2.336744e+000
      vertex -5.000000e-001 -2.298129e+000  2.166244e+000
      vertex -5.000000e-001 -2.148129e+000  2.336744e+000
    endloop
  endfacet
  facet normal  1.000000e+000  -0.000000e+000  0.000000e+000
    outer loop
      vertex -5.000000e-001 -2.148129e+000  2.336744e+000
      vertex -5.000000e-001 -2.298129e+000  2.166244e+000
      vertex -5.000000e-001 -2.241914e+000  2.142959e+000
    endloop
  endfacet
  facet normal  1.000000e+000  -0.000000e+000  0.000000e+000
    outer loop
      vertex -5.000000e-001 -2.148129e+000  2.336744e+000
      vertex -5.000000e-001 -2.241914e+000  2.142959e+000
      vertex -5.000000e-001 -2.218629e+000  2.086744e+000
    endloop
  endfacet
  facet normal  1.000000e+000  -0.000000e+000  0.000000e+000
    outer loop
      vertex -5.000000e-001 -2.148129e+000  2.336744e+000
      vertex -5.000000e-001 -2.218629e+000  2.086744e+000
      vertex -5.000000e-001 -2.148129e+000  1.586744e+000
    endloop
  endfacet
  facet normal  0.000000e+000  7.071068e-001  7.071068e-001
    outer loop
      vertex -6.250000e-001 -1.875000e+000  3.750000e-001
      vertex -6.250000e-001 -2.148129e+000  6.481292e-001
      vertex -5.000000e-001 -1.875000e+000  3.750000e-001
    endloop
  endfacet
  facet normal  0.000000e+000  7.071068e-001  7.071068e-001
    outer loop
      vertex -5.000000e-001 -1.875000e+000  3.750000e-001
      vertex -6.250000e-001 -2.148129e+000  6.481292e-001
      vertex -5.000000e-001 -2.148129e+000  6.481292e-001
    endloop
  endfacet
  facet normal  0.000000e+000  7.071068e-001  7.071068e-001
    outer loop
      vertex  5.000000e-001 -1.875000e+000  3.750000e-001
      vertex  5.000000e-001 -2.148129e+000  6.481292e-001
      vertex  6.250000e-001 -1.875000e+000  3.750000e-001
    endloop
  endfacet
  facet normal  0.000000e+000  7.071068e-001  7.071068e-001
    outer loop
      vertex  6.250000e-001 -1.875000e+000  3.750000e-001
      vertex  5.000000e-001 -2.148129e+000  6.481292e-001
      vertex  6.250000e-001 -2.148129e+000  6.481292e-001
    endloop
  endfacet
  facet normal  1.000000e+000  0.000000e+000  0.000000e+000
    outer loop
      vertex -3.750000e-001 -2.148129e+000  7.035103e-001
      vertex -3.750000e-001 -2.148129e+000  1.318529e+000
      vertex -3.750000e-001 -2.448129e+000  7.035103e-001
    endloop
  endfacet
  facet normal  1.000000e+000  0.000000e+000  0.000000e+000
    outer loop
      vertex -3.750000e-001 -2.448129e+000  7.035103e-001
      vertex -3.750000e-001 -2.148129e+000  1.318529e+000
      vertex -3.750000e-001 -2.448129e+000  1.318529e+000
    endloop
  endfacet
  facet normal -4.738558e-001  0.000000e+000  8.806025e-001
    outer loop
      vertex -8.038994e-002 -2.148129e+000  8.620412e-001
      vertex -3.750000e-001 -2.148129e+000  7.035103e-001
      vertex -8.038994e-002 -2.448129e+000  8.620412e-001
    endloop
  endfacet
  facet normal -4.738558e-001  0.000000e+000  8.806025e-001
    outer loop
      vertex -8.038994e-002 -2.448129e+000  8.620412e-001
      vertex -3.750000e-001 -2.148129e+000  7.035103e-001
      vertex -3.750000e-001 -2.448129e+000  7.035103e-001
    endloop
  endfacet
  facet normal -1.000000e+000  -0.000000e+000  0.000000e+000
    outer loop
      vertex -8.038994e-002 -2.448129e+000  1.071104e+000
      vertex -8.038994e-002 -2.148129e+000  1.071104e+000
      vertex -8.038994e-002 -2.448129e+000  8.620412e-001
    endloop
  endfacet
  facet normal -1.000000e+000  0.000000e+000  0.000000e+000
    outer loop
      vertex -8.038994e-002 -2.448129e+000  8.620412e-001
      vertex -8.038994e-002 -2.148129e+000  1.071104e+000
      vertex -8.038994e-002 -2.148129e+000  8.620412e-001
    endloop
  endfacet
  facet normal -6.431195e-001  0.000000e+000 -7.657658e-001
    outer loop
      vertex -3.750000e-001 -2.148129e+000  1.318529e+000
      vertex -8.038994e-002 -2.148129e+000  1.071104e+000
      vertex -3.750000e-001 -2.448129e+000  1.318529e+000
    endloop
  endfacet
  facet normal -6.431195e-001  0.000000e+000 -7.657658e-001
    outer loop
      vertex -3.750000e-001 -2.448129e+000  1.318529e+000
      vertex -8.038994e-002 -2.148129e+000  1.071104e+000
      vertex -8.038994e-002 -2.448129e+000  1.071104e+000
    endloop
  endfacet
  facet normal  6.431195e-001  0.000000e+000 -7.657658e-001
    outer loop
      vertex  3.750000e-001 -2.148129e+000  1.318529e+000
      vertex  3.750000e-001 -2.448129e+000  1.318529e+000
      vertex  8.038994e-002 -2.148129e+000  1.071104e+000
    endloop
  endfacet
  facet normal  6.431195e-001  0.000000e+000 -7.657658e-001
    outer loop
      vertex  8.038994e-002 -2.148129e+000  1.071104e+000
      vertex  3.750000e-001 -2.448129e+000  1.318529e+000
      vertex  8.038994e-002 -2.448129e+000  1.071104e+000
    endloop
  endfacet
  facet normal  1.000000e+000  0.000000e+000  0.000000e+000
    outer loop
      vertex  8.038994e-002 -2.448129e+000  1.071104e+000
      vertex  8.038994e-002 -2.448129e+000  8.620412e-001
      vertex  8.038994e-002 -2.148129e+000  1.071104e+000
    endloop
  endfacet
  facet normal  1.000000e+000  0.000000e+000  0.000000e+000
    outer loop
      vertex  8.038994e-002 -2.148129e+000  1.071104e+000
      vertex  8.038994e-002 -2.448129e+000  8.620412e-001
      vertex  8.038994e-002 -2.148129e+000  8.620412e-001
    endloop
  endfacet
  facet normal  4.738558e-001  -0.000000e+000  8.806025e-001
    outer loop
      vertex  8.038994e-002 -2.148129e+000  8.620412e-001
      vertex  8.038994e-002 -2.448129e+000  8.620412e-001
      vertex  3.750000e-001 -2.148129e+000  7.035103e-001
    endloop
  endfacet
  facet normal  4.738558e-001  0.000000e+000  8.806025e-001
    outer loop
      vertex  3.750000e-001 -2.148129e+000  7.035103e-001
      vertex  8.038994e-002 -2.448129e+000  8.620412e-001
      vertex  3.750000e-001 -2.448129e+000  7.035103e-001
    endloop
  endfacet
  facet normal -1.000000e+000  0.000000e+000  0.000000e+000
    outer loop
      vertex  3.750000e-001 -2.148129e+000  7.035103e-001
      vertex  3.750000e-001 -2.448129e+000  7.035103e-001
      vertex  3.750000e-001 -2.148129e+000  1.318529e+000
    endloop
  endfacet
  facet normal -1.000000e+000  -0.000000e+000  0.000000e+000
    outer loop
      vertex  3.750000e-001 -2.148129e+000  1.318529e+000
      vertex  3.750000e-001 -2.448129e+000  7.035103e-001
      vertex  3.750000e-001 -2.448129e+000  1.318529e+000
    endloop
  endfacet
  facet normal  0.000000e+000  1.000000e+000  0.000000e+000
    outer loop
      vertex  6.250000e-001 -1.625000e+000 -1.250000e-001
      vertex -6.250000e-001 -1.625000e+000 -1.250000e-001
      vertex  6.250000e-001 -1.625000e+000 -2.000000e-002
    endloop
  endfacet
  facet normal  0.000000e+000  1.000000e+000  0.000000e+000
    outer loop
      vertex  6.250000e-001 -1.625000e+000 -2.000000e-002
      vertex -6.250000e-001 -1.625000e+000 -1.250000e-001
      vertex -6.250000e-001 -1.625000e+000 -2.000000e-002
    endloop
  endfacet
  facet normal -1.000000e+000  0.000000e+000  0.000000e+000
    outer loop
      vertex -6.250000e-001 -2.148129e+000  2.336744e+000
      vertex -6.250000e-001 -2.241914e+000  2.142959e+000
      vertex -6.250000e-001 -2.298129e+000  2.166244e+000
    endloop
  endfacet
  facet normal -1.000000e+000  0.000000e+000  0.000000e+000
    outer loop
      vertex -6.250000e-001 -2.148129e+000  2.336744e+000
      vertex -6.250000e-001 -2.218629e+000  2.086744e+000
      vertex -6.250000e-001 -2.241914e+000  2.142959e+000
    endloop
  endfacet
  facet normal -1.000000e+000  -0.000000e+000  0.000000e+000
    outer loop
      vertex -6.250000e-001 -2.448129e+000  2.336744e+000
      vertex -6.250000e-001 -2.148129e+000  2.336744e+000
      vertex -6.250000e-001 -2.298129e+000  2.166244e+000
    endloop
  endfacet
  facet normal -1.000000e+000  -0.000000e+000  0.000000e+000
    outer loop
      vertex -6.250000e-001 -2.448129e+000  2.336744e+000
      vertex -6.250000e-001 -2.298129e+000  2.166244e+000
      vertex -6.250000e-001 -2.354344e+000  2.142959e+000
    endloop
  endfacet
  facet normal -1.000000e+000  -0.000000e+000  0.000000e+000
    outer loop
      vertex -6.250000e-001 -2.448129e+000  2.336744e+000
      vertex -6.250000e-001 -2.354344e+000  2.142959e+000
      vertex -6.250000e-001 -2.377629e+000  2.086744e+000
    endloop
  endfacet
  facet normal -1.000000e+000  0.000000e+000  0.000000e+000
    outer loop
      vertex -6.250000e-001 -2.148129e+000  6.481292e-001
      vertex -6.250000e-001 -2.298129e+000  2.007244e+000
      vertex -6.250000e-001 -2.241914e+000  2.030529e+000
    endloop
  endfacet
  facet normal -1.000000e+000  0.000000e+000  0.000000e+000
    outer loop
      vertex -6.250000e-001 -2.148129e+000  6.481292e-001
      vertex -6.250000e-001 -2.241914e+000  2.030529e+000
      vertex -6.250000e-001 -2.218629e+000  2.086744e+000
    endloop
  endfacet
  facet normal -1.000000e+000  0.000000e+000  0.000000e+000
    outer loop
      vertex -6.250000e-001 -2.148129e+000  6.481292e-001
      vertex -6.250000e-001 -2.218629e+000  2.086744e+000
      vertex -6.250000e-001 -2.148129e+000  2.336744e+000
    endloop
  endfacet
  facet normal -1.000000e+000  0.000000e+000  0.000000e+000
    outer loop
      vertex -6.250000e-001 -2.448129e+000  2.410224e-001
      vertex -6.250000e-001 -2.448129e+000  2.336744e+000
      vertex -6.250000e-001 -2.377629e+000  2.086744e+000
    endloop
  endfacet
  facet normal -1.000000e+000  0.000000e+000  -0.000000e+000
    outer loop
      vertex -6.250000e-001 -2.448129e+000  2.410224e-001
      vertex -6.250000e-001 -2.377629e+000  2.086744e+000
      vertex -6.250000e-001 -2.354344e+000  2.030529e+000
    endloop
  endfacet
  facet normal -1.000000e+000  0.000000e+000  -0.000000e+000
    outer loop
      vertex -6.250000e-001 -2.448129e+000  2.410224e-001
      vertex -6.250000e-001 -2.354344e+000  2.030529e+000
      vertex -6.250000e-001 -2.298129e+000  2.007244e+000
    endloop
  endfacet
  facet normal -1.000000e+000  0.000000e+000  -0.000000e+000
    outer loop
      vertex -6.250000e-001 -2.082107e+000 -1.250000e-001
      vertex -6.250000e-001 -1.750000e+000 -2.000000e-002
      vertex -6.250000e-001 -1.625000e+000 -1.250000e-001
    endloop
  endfacet
  facet normal -1.000000e+000  0.000000e+000  0.000000e+000
    outer loop
      vertex -6.250000e-001 -1.625000e+000 -1.250000e-001
      vertex -6.250000e-001 -1.750000e+000 -2.000000e-002
      vertex -6.250000e-001 -1.625000e+000 -2.000000e-002
    endloop
  endfacet
  facet normal -9.999999e-001  0.000000e+000  -0.000000e+000
    outer loop
      vertex -6.250000e-001 -2.448129e+000  2.410224e-001
      vertex -6.250000e-001 -2.298129e+000  2.007244e+000
      vertex -6.250000e-001 -2.082107e+000 -1.250000e-001
    endloop
  endfacet
  facet normal -1.000000e+000  0.000000e+000  0.000000e+000
    outer loop
      vertex -6.250000e-001 -2.082107e+000 -1.250000e-001
      vertex -6.250000e-001 -2.298129e+000  2.007244e+000
      vertex -6.250000e-001 -2.148129e+000  6.481292e-001
    endloop
  endfacet
  facet normal -1.000000e+000  0.000000e+000  0.000000e+000
    outer loop
      vertex -6.250000e-001 -2.082107e+000 -1.250000e-001
      vertex -6.250000e-001 -2.148129e+000  6.481292e-001
      vertex -6.250000e-001 -1.750000e+000 -2.000000e-002
    endloop
  endfacet
  facet normal -1.000000e+000  0.000000e+000  0.000000e+000
    outer loop
      vertex -6.250000e-001 -1.750000e+000 -2.000000e-002
      vertex -6.250000e-001 -2.148129e+000  6.481292e-001
      vertex -6.250000e-001 -1.750000e+000  1.450000e-001
    endloop
  endfacet
  facet normal -1.000000e+000  0.000000e+000  0.000000e+000
    outer loop
      vertex -6.250000e-001 -1.625000e+000  3.750000e-001
      vertex -6.250000e-001 -1.625000e+000  1.450000e-001
      vertex -6.250000e-001 -1.875000e+000  3.750000e-001
    endloop
  endfacet
  facet normal -1.000000e+000  0.000000e+000  0.000000e+000
    outer loop
      vertex -6.250000e-001 -1.875000e+000  3.750000e-001
      vertex -6.250000e-001 -1.625000e+000  1.450000e-001
      vertex -6.250000e-001 -1.750000e+000  1.450000e-001
    endloop
  endfacet
  facet normal -1.000000e+000  0.000000e+000  0.000000e+000
    outer loop
      vertex -6.250000e-001 -1.875000e+000  3.750000e-001
      vertex -6.250000e-001 -1.750000e+000  1.450000e-001
      vertex -6.250000e-001 -2.148129e+000  6.481292e-001
    endloop
  endfacet
  facet normal  0.000000e+000  0.000000e+000 -1.000000e+000
    outer loop
      vertex  6.250000e-001 -2.082107e+000 -1.250000e-001
      vertex  5.000000e-001 -2.082107e+000 -1.250000e-001
      vertex  6.250000e-001 -1.625000e+000 -1.250000e-001
    endloop
  endfacet
  facet normal  0.000000e+000  0.000000e+000 -1.000000e+000
    outer loop
      vertex  6.250000e-001 -1.625000e+000 -1.250000e-001
      vertex  5.000000e-001 -2.082107e+000 -1.250000e-001
      vertex  5.000000e-001 -1.875000e+000 -1.250000e-001
    endloop
  endfacet
  facet normal  0.000000e+000  0.000000e+000 -9.999999e-001
    outer loop
      vertex  6.250000e-001 -1.625000e+000 -1.250000e-001
      vertex  5.000000e-001 -1.875000e+000 -1.250000e-001
      vertex -6.250000e-001 -1.625000e+000 -1.250000e-001
    endloop
  endfacet
  facet normal  0.000000e+000  0.000000e+000 -1.000000e+000
    outer loop
      vertex -6.250000e-001 -1.625000e+000 -1.250000e-001
      vertex  5.000000e-001 -1.875000e+000 -1.250000e-001
      vertex -5.000000e-001 -1.875000e+000 -1.250000e-001
    endloop
  endfacet
  facet normal  -0.000000e+000  0.000000e+000 -1.000000e+000
    outer loop
      vertex -6.250000e-001 -1.625000e+000 -1.250000e-001
      vertex -5.000000e-001 -1.875000e+000 -1.250000e-001
      vertex -6.250000e-001 -2.082107e+000 -1.250000e-001
    endloop
  endfacet
  facet normal  0.000000e+000  0.000000e+000 -1.000000e+000
    outer loop
      vertex -6.250000e-001 -2.082107e+000 -1.250000e-001
      vertex -5.000000e-001 -1.875000e+000 -1.250000e-001
      vertex -5.000000e-001 -2.082107e+000 -1.250000e-001
    endloop
  endfacet
  facet normal  0.000000e+000  3.826830e-001 -9.238797e-001
    outer loop
      vertex -6.250000e-001 -2.298129e+000  2.166244e+000
      vertex -5.000000e-001 -2.354344e+000  2.142959e+000
      vertex -6.250000e-001 -2.354344e+000  2.142959e+000
    endloop
  endfacet
  facet normal  0.000000e+000  9.238797e-001 -3.826830e-001
    outer loop
      vertex -6.250000e-001 -2.354344e+000  2.142959e+000
      vertex -5.000000e-001 -2.354344e+000  2.142959e+000
      vertex -5.000000e-001 -2.377629e+000  2.086744e+000
    endloop
  endfacet
  facet normal  0.000000e+000  9.238797e-001 -3.826830e-001
    outer loop
      vertex -6.250000e-001 -2.354344e+000  2.142959e+000
      vertex -5.000000e-001 -2.377629e+000  2.086744e+000
      vertex -6.250000e-001 -2.377629e+000  2.086744e+000
    endloop
  endfacet
  facet normal  0.000000e+000  3.826830e-001 -9.238797e-001
    outer loop
      vertex -5.000000e-001 -2.354344e+000  2.142959e+000
      vertex -6.250000e-001 -2.298129e+000  2.166244e+000
      vertex -5.000000e-001 -2.298129e+000  2.166244e+000
    endloop
  endfacet
  facet normal  -0.000000e+000 -3.826821e-001 -9.238800e-001
    outer loop
      vertex -5.000000e-001 -2.298129e+000  2.166244e+000
      vertex -6.250000e-001 -2.298129e+000  2.166244e+000
      vertex -6.250000e-001 -2.241914e+000  2.142959e+000
    endloop
  endfacet
  facet normal  0.000000e+000 -3.826821e-001 -9.238800e-001
    outer loop
      vertex -5.000000e-001 -2.298129e+000  2.166244e+000
      vertex -6.250000e-001 -2.241914e+000  2.142959e+000
      vertex -5.000000e-001 -2.241914e+000  2.142959e+000
    endloop
  endfacet
  facet normal  -0.000000e+000 -9.238797e-001 -3.826830e-001
    outer loop
      vertex -5.000000e-001 -2.241914e+000  2.142959e+000
      vertex -6.250000e-001 -2.241914e+000  2.142959e+000
      vertex -6.250000e-001 -2.218629e+000  2.086744e+000
    endloop
  endfacet
  facet normal  0.000000e+000 -9.238797e-001 -3.826830e-001
    outer loop
      vertex -5.000000e-001 -2.241914e+000  2.142959e+000
      vertex -6.250000e-001 -2.218629e+000  2.086744e+000
      vertex -5.000000e-001 -2.218629e+000  2.086744e+000
    endloop
  endfacet
  facet normal  0.000000e+000 -3.826842e-001  9.238792e-001
    outer loop
      vertex -6.250000e-001 -2.298129e+000  2.007244e+000
      vertex -5.000000e-001 -2.241914e+000  2.030529e+000
      vertex -6.250000e-001 -2.241914e+000  2.030529e+000
    endloop
  endfacet
  facet normal  0.000000e+000 -9.238797e-001  3.826830e-001
    outer loop
      vertex -6.250000e-001 -2.241914e+000  2.030529e+000
      vertex -5.000000e-001 -2.241914e+000  2.030529e+000
      vertex -5.000000e-001 -2.218629e+000  2.086744e+000
    endloop
  endfacet
  facet normal  0.000000e+000 -9.238797e-001  3.826830e-001
    outer loop
      vertex -6.250000e-001 -2.241914e+000  2.030529e+000
      vertex -5.000000e-001 -2.218629e+000  2.086744e+000
      vertex -6.250000e-001 -2.218629e+000  2.086744e+000
    endloop
  endfacet
  facet normal  0.000000e+000 -3.826842e-001  9.238792e-001
    outer loop
      vertex -5.000000e-001 -2.241914e+000  2.030529e+000
      vertex -6.250000e-001 -2.298129e+000  2.007244e+000
      vertex -5.000000e-001 -2.298129e+000  2.007244e+000
    endloop
  endfacet
  facet normal  0.000000e+000  3.826851e-001  9.238788e-001
    outer loop
      vertex -5.000000e-001 -2.298129e+000  2.007244e+000
      vertex -6.250000e-001 -2.298129e+000  2.007244e+000
      vertex -6.250000e-001 -2.354344e+000  2.030529e+000
    endloop
  endfacet
  facet normal  -0.000000e+000  3.826851e-001  9.238788e-001
    outer loop
      vertex -5.000000e-001 -2.298129e+000  2.007244e+000
      vertex -6.250000e-001 -2.354344e+000  2.030529e+000
      vertex -5.000000e-001 -2.354344e+000  2.030529e+000
    endloop
  endfacet
  facet normal  0.000000e+000  9.238797e-001  3.826830e-001
    outer loop
      vertex -5.000000e-001 -2.354344e+000  2.030529e+000
      vertex -6.250000e-001 -2.354344e+000  2.030529e+000
      vertex -6.250000e-001 -2.377629e+000  2.086744e+000
    endloop
  endfacet
  facet normal  -0.000000e+000  9.238797e-001  3.826830e-001
    outer loop
      vertex -5.000000e-001 -2.354344e+000  2.030529e+000
      vertex -6.250000e-001 -2.377629e+000  2.086744e+000
      vertex -5.000000e-001 -2.377629e+000  2.086744e+000
    endloop
  endfacet
  facet normal  0.000000e+000 -7.071069e-001 -7.071068e-001
    outer loop
      vertex -6.250000e-001 -2.448129e+000  2.410224e-001
      vertex -6.250000e-001 -2.082107e+000 -1.250000e-001
      vertex -5.000000e-001 -2.448129e+000  2.410224e-001
    endloop
  endfacet
  facet normal  0.000000e+000 -7.071069e-001 -7.071068e-001
    outer loop
      vertex -5.000000e-001 -2.448129e+000  2.410224e-001
      vertex -6.250000e-001 -2.082107e+000 -1.250000e-001
      vertex -5.000000e-001 -2.082107e+000 -1.250000e-001
    endloop
  endfacet
  facet normal  0.000000e+000  0.000000e+000  1.000000e+000
    outer loop
      vertex -6.250000e-001 -2.448129e+000  2.336744e+000
      vertex -5.000000e-001 -2.448129e+000  2.336744e+000
      vertex -6.250000e-001 -2.148129e+000  2.336744e+000
    endloop
  endfacet
  facet normal  -0.000000e+000  0.000000e+000  1.000000e+000
    outer loop
      vertex -6.250000e-001 -2.148129e+000  2.336744e+000
      vertex -5.000000e-001 -2.448129e+000  2.336744e+000
      vertex -5.000000e-001 -2.148129e+000  2.336744e+000
    endloop
  endfacet
  facet normal  -0.000000e+000 -9.999999e-001  0.000000e+000
    outer loop
      vertex -5.621499e-002 -1.875000e+000  2.062150e-001
      vertex -4.867971e-018 -1.875000e+000  2.295000e-001
      vertex -5.000000e-001 -1.875000e+000  3.750000e-001
    endloop
  endfacet
  facet normal  0.000000e+000 -9.999999e-001  0.000000e+000
    outer loop
      vertex  5.000000e-001 -1.875000e+000  3.750000e-001
      vertex -5.000000e-001 -1.875000e+000  3.750000e-001
      vertex -4.867971e-018 -1.875000e+000  2.295000e-001
    endloop
  endfacet
  facet normal  0.000000e+000 -9.999999e-001  0.000000e+000
    outer loop
      vertex  5.000000e-001 -1.875000e+000  3.750000e-001
      vertex -4.867971e-018 -1.875000e+000  2.295000e-001
      vertex  5.621499e-002 -1.875000e+000  2.062150e-001
    endloop
  endfacet
  facet normal  0.000000e+000 -1.000000e+000  0.000000e+000
    outer loop
      vertex  5.000000e-001 -1.875000e+000  3.750000e-001
      vertex  5.621499e-002 -1.875000e+000  2.062150e-001
      vertex  5.000000e-001 -1.875000e+000 -1.250000e-001
    endloop
  endfacet
  facet normal  0.000000e+000 -1.000000e+000  0.000000e+000
    outer loop
      vertex  5.000000e-001 -1.875000e+000 -1.250000e-001
      vertex  5.621499e-002 -1.875000e+000  2.062150e-001
      vertex  7.950000e-002 -1.875000e+000  1.500000e-001
    endloop
  endfacet
  facet normal  0.000000e+000 -1.000000e+000  -0.000000e+000
    outer loop
      vertex  5.000000e-001 -1.875000e+000 -1.250000e-001
      vertex  7.950000e-002 -1.875000e+000  1.500000e-001
      vertex  5.621499e-002 -1.875000e+000  9.378501e-002
    endloop
  endfacet
  facet normal  0.000000e+000 -1.000000e+000  -0.000000e+000
    outer loop
      vertex  5.000000e-001 -1.875000e+000 -1.250000e-001
      vertex  5.621499e-002 -1.875000e+000  9.378501e-002
      vertex  1.460391e-017 -1.875000e+000  7.050000e-002
    endloop
  endfacet
  facet normal  0.000000e+000 -9.999999e-001  -0.000000e+000
    outer loop
      vertex  5.000000e-001 -1.875000e+000 -1.250000e-001
      vertex  1.460391e-017 -1.875000e+000  7.050000e-002
      vertex -5.000000e-001 -1.875000e+000 -1.250000e-001
    endloop
  endfacet
  facet normal  -0.000000e+000 -1.000000e+000  0.000000e+000
    outer loop
      vertex -5.000000e-001 -1.875000e+000 -1.250000e-001
      vertex  1.460391e-017 -1.875000e+000  7.050000e-002
      vertex -5.621499e-002 -1.875000e+000  9.378501e-002
    endloop
  endfacet
  facet normal  -0.000000e+000 -1.000000e+000  0.000000e+000
    outer loop
      vertex -5.000000e-001 -1.875000e+000 -1.250000e-001
      vertex -5.621499e-002 -1.875000e+000  9.378501e-002
      vertex -7.950000e-002 -1.875000e+000  1.500000e-001
    endloop
  endfacet
  facet normal  -0.000000e+000 -1.000000e+000  0.000000e+000
    outer loop
      vertex -5.000000e-001 -1.875000e+000 -1.250000e-001
      vertex -7.950000e-002 -1.875000e+000  1.500000e-001
      vertex -5.621499e-002 -1.875000e+000  2.062150e-001
    endloop
  endfacet
  facet normal  -0.000000e+000 -1.000000e+000  0.000000e+000
    outer loop
      vertex -5.000000e-001 -1.875000e+000 -1.250000e-001
      vertex -5.621499e-002 -1.875000e+000  2.062150e-001
      vertex -5.000000e-001 -1.875000e+000  3.750000e-001
    endloop
  endfacet
  facet normal  0.000000e+000  0.000000e+000  1.000000e+000
    outer loop
      vertex -6.250000e-001 -1.625000e+000  3.750000e-001
      vertex -6.250000e-001 -1.875000e+000  3.750000e-001
      vertex -1.700000e-001 -1.625000e+000  3.750000e-001
    endloop
  endfacet
  facet normal  0.000000e+000  0.000000e+000  1.000000e+000
    outer loop
      vertex -1.700000e-001 -1.625000e+000  3.750000e-001
      vertex -6.250000e-001 -1.875000e+000  3.750000e-001
      vertex -5.000000e-001 -1.875000e+000  3.750000e-001
    endloop
  endfacet
  facet normal  0.000000e+000  0.000000e+000  1.000000e+000
    outer loop
      vertex -1.700000e-001 -1.625000e+000  3.750000e-001
      vertex -5.000000e-001 -1.875000e+000  3.750000e-001
      vertex -1.700000e-001 -1.750000e+000  3.750000e-001
    endloop
  endfacet
  facet normal  0.000000e+000  0.000000e+000  1.000000e+000
    outer loop
      vertex -1.700000e-001 -1.750000e+000  3.750000e-001
      vertex -5.000000e-001 -1.875000e+000  3.750000e-001
      vertex  1.700000e-001 -1.750000e+000  3.750000e-001
    endloop
  endfacet
  facet normal  0.000000e+000  0.000000e+000  1.000000e+000
    outer loop
      vertex  1.700000e-001 -1.750000e+000  3.750000e-001
      vertex -5.000000e-001 -1.875000e+000  3.750000e-001
      vertex  5.000000e-001 -1.875000e+000  3.750000e-001
    endloop
  endfacet
  facet normal  0.000000e+000  0.000000e+000  1.000000e+000
    outer loop
      vertex  1.700000e-001 -1.750000e+000  3.750000e-001
      vertex  5.000000e-001 -1.875000e+000  3.750000e-001
      vertex  1.700000e-001 -1.625000e+000  3.750000e-001
    endloop
  endfacet
  facet normal  0.000000e+000  0.000000e+000  1.000000e+000
    outer loop
      vertex  5.000000e-001 -1.875000e+000  3.750000e-001
      vertex  6.250000e-001 -1.875000e+000  3.750000e-001
      vertex  1.700000e-001 -1.625000e+000  3.750000e-001
    endloop
  endfacet
  facet normal  -0.000000e+000  0.000000e+000  1.000000e+000
    outer loop
      vertex  1.700000e-001 -1.625000e+000  3.750000e-001
      vertex  6.250000e-001 -1.875000e+000  3.750000e-001
      vertex  6.250000e-001 -1.625000e+000  3.750000e-001
    endloop
  endfacet
  facet normal  0.000000e+000 -7.071069e-001 -7.071068e-001
    outer loop
      vertex  5.000000e-001 -2.448129e+000  2.410224e-001
      vertex  5.000000e-001 -2.082107e+000 -1.250000e-001
      vertex  6.250000e-001 -2.448129e+000  2.410224e-001
    endloop
  endfacet
  facet normal  0.000000e+000 -7.071069e-001 -7.071068e-001
    outer loop
      vertex  6.250000e-001 -2.448129e+000  2.410224e-001
      vertex  5.000000e-001 -2.082107e+000 -1.250000e-001
      vertex  6.250000e-001 -2.082107e+000 -1.250000e-001
    endloop
  endfacet
  facet normal  9.999999e-001  0.000000e+000  0.000000e+000
    outer loop
      vertex  6.250000e-001 -2.148129e+000  6.481292e-001
      vertex  6.250000e-001 -2.241914e+000  2.030529e+000
      vertex  6.250000e-001 -2.298129e+000  2.007244e+000
    endloop
  endfacet
  facet normal  9.999999e-001  0.000000e+000  0.000000e+000
    outer loop
      vertex  6.250000e-001 -2.148129e+000  6.481292e-001
      vertex  6.250000e-001 -2.218629e+000  2.086744e+000
      vertex  6.250000e-001 -2.241914e+000  2.030529e+000
    endloop
  endfacet
  facet normal  1.000000e+000  0.000000e+000  -0.000000e+000
    outer loop
      vertex  6.250000e-001 -1.750000e+000  1.450000e-001
      vertex  6.250000e-001 -1.625000e+000  1.450000e-001
      vertex  6.250000e-001 -1.625000e+000  3.750000e-001
    endloop
  endfacet
  facet normal  1.000000e+000  0.000000e+000  0.000000e+000
    outer loop
      vertex  6.250000e-001 -1.750000e+000  1.450000e-001
      vertex  6.250000e-001 -1.625000e+000  3.750000e-001
      vertex  6.250000e-001 -1.875000e+000  3.750000e-001
    endloop
  endfacet
  facet normal  1.000000e+000  0.000000e+000  0.000000e+000
    outer loop
      vertex  6.250000e-001 -1.750000e+000  1.450000e-001
      vertex  6.250000e-001 -1.875000e+000  3.750000e-001
      vertex  6.250000e-001 -1.750000e+000 -2.000000e-002
    endloop
  endfacet
  facet normal  1.000000e+000  0.000000e+000  0.000000e+000
    outer loop
      vertex  6.250000e-001 -2.448129e+000  2.410224e-001
      vertex  6.250000e-001 -2.082107e+000 -1.250000e-001
      vertex  6.250000e-001 -2.148129e+000  6.481292e-001
    endloop
  endfacet
  facet normal  1.000000e+000  0.000000e+000  0.000000e+000
    outer loop
      vertex  6.250000e-001 -2.448129e+000  2.410224e-001
      vertex  6.250000e-001 -2.148129e+000  6.481292e-001
      vertex  6.250000e-001 -2.298129e+000  2.007244e+000
    endloop
  endfacet
  facet normal  1.000000e+000  0.000000e+000  0.000000e+000
    outer loop
      vertex  6.250000e-001 -2.448129e+000  2.410224e-001
      vertex  6.250000e-001 -2.298129e+000  2.007244e+000
      vertex  6.250000e-001 -2.354344e+000  2.030529e+000
    endloop
  endfacet
  facet normal  1.000000e+000  0.000000e+000  0.000000e+000
    outer loop
      vertex  6.250000e-001 -2.448129e+000  2.410224e-001
      vertex  6.250000e-001 -2.354344e+000  2.030529e+000
      vertex  6.250000e-001 -2.377629e+000  2.086744e+000
    endloop
  endfacet
  facet normal  1.000000e+000  0.000000e+000  0.000000e+000
    outer loop
      vertex  6.250000e-001 -2.448129e+000  2.336744e+000
      vertex  6.250000e-001 -2.448129e+000  2.410224e-001
      vertex  6.250000e-001 -2.377629e+000  2.086744e+000
    endloop
  endfacet
  facet normal  1.000000e+000  0.000000e+000  -0.000000e+000
    outer loop
      vertex  6.250000e-001 -2.448129e+000  2.336744e+000
      vertex  6.250000e-001 -2.377629e+000  2.086744e+000
      vertex  6.250000e-001 -2.354344e+000  2.142959e+000
    endloop
  endfacet
  facet normal  1.000000e+000  0.000000e+000  -0.000000e+000
    outer loop
      vertex  6.250000e-001 -2.448129e+000  2.336744e+000
      vertex  6.250000e-001 -2.354344e+000  2.142959e+000
      vertex  6.250000e-001 -2.298129e+000  2.166244e+000
    endloop
  endfacet
  facet normal  1.000000e+000  0.000000e+000  -0.000000e+000
    outer loop
      vertex  6.250000e-001 -2.448129e+000  2.336744e+000
      vertex  6.250000e-001 -2.298129e+000  2.166244e+000
      vertex  6.250000e-001 -2.148129e+000  2.336744e+000
    endloop
  endfacet
  facet normal  1.000000e+000  -0.000000e+000  0.000000e+000
    outer loop
      vertex  6.250000e-001 -2.148129e+000  2.336744e+000
      vertex  6.250000e-001 -2.298129e+000  2.166244e+000
      vertex  6.250000e-001 -2.241914e+000  2.142959e+000
    endloop
  endfacet
  facet normal  1.000000e+000  -0.000000e+000  0.000000e+000
    outer loop
      vertex  6.250000e-001 -2.148129e+000  2.336744e+000
      vertex  6.250000e-001 -2.241914e+000  2.142959e+000
      vertex  6.250000e-001 -2.218629e+000  2.086744e+000
    endloop
  endfacet
  facet normal  1.000000e+000  -0.000000e+000  0.000000e+000
    outer loop
      vertex  6.250000e-001 -2.148129e+000  2.336744e+000
      vertex  6.250000e-001 -2.218629e+000  2.086744e+000
      vertex  6.250000e-001 -2.148129e+000  6.481292e-001
    endloop
  endfacet
  facet normal  1.000000e+000  0.000000e+000  0.000000e+000
    outer loop
      vertex  6.250000e-001 -1.625000e+000 -1.250000e-001
      vertex  6.250000e-001 -1.625000e+000 -2.000000e-002
      vertex  6.250000e-001 -2.082107e+000 -1.250000e-001
    endloop
  endfacet
  facet normal  1.000000e+000  0.000000e+000  0.000000e+000
    outer loop
      vertex  6.250000e-001 -2.082107e+000 -1.250000e-001
      vertex  6.250000e-001 -1.625000e+000 -2.000000e-002
      vertex  6.250000e-001 -1.750000e+000 -2.000000e-002
    endloop
  endfacet
  facet normal  1.000000e+000  0.000000e+000  0.000000e+000
    outer loop
      vertex  6.250000e-001 -2.082107e+000 -1.250000e-001
      vertex  6.250000e-001 -1.750000e+000 -2.000000e-002
      vertex  6.250000e-001 -2.148129e+000  6.481292e-001
    endloop
  endfacet
  facet normal  9.999999e-001  0.000000e+000  0.000000e+000
    outer loop
      vertex  6.250000e-001 -2.148129e+000  6.481292e-001
      vertex  6.250000e-001 -1.750000e+000 -2.000000e-002
      vertex  6.250000e-001 -1.875000e+000  3.750000e-001
    endloop
  endfacet
  facet normal  0.000000e+000  3.826830e-001 -9.238797e-001
    outer loop
      vertex  5.000000e-001 -2.298129e+000  2.166244e+000
      vertex  6.250000e-001 -2.354344e+000  2.142959e+000
      vertex  5.000000e-001 -2.354344e+000  2.142959e+000
    endloop
  endfacet
  facet normal  0.000000e+000  9.238797e-001 -3.826830e-001
    outer loop
      vertex  5.000000e-001 -2.354344e+000  2.142959e+000
      vertex  6.250000e-001 -2.354344e+000  2.142959e+000
      vertex  6.250000e-001 -2.377629e+000  2.086744e+000
    endloop
  endfacet
  facet normal  0.000000e+000  9.238797e-001 -3.826830e-001
    outer loop
      vertex  5.000000e-001 -2.354344e+000  2.142959e+000
      vertex  6.250000e-001 -2.377629e+000  2.086744e+000
      vertex  5.000000e-001 -2.377629e+000  2.086744e+000
    endloop
  endfacet
  facet normal  0.000000e+000  3.826830e-001 -9.238797e-001
    outer loop
      vertex  6.250000e-001 -2.354344e+000  2.142959e+000
      vertex  5.000000e-001 -2.298129e+000  2.166244e+000
      vertex  6.250000e-001 -2.298129e+000  2.166244e+000
    endloop
  endfacet
  facet normal  -0.000000e+000 -3.826821e-001 -9.238800e-001
    outer loop
      vertex  6.250000e-001 -2.298129e+000  2.166244e+000
      vertex  5.000000e-001 -2.298129e+000  2.166244e+000
      vertex  5.000000e-001 -2.241914e+000  2.142959e+000
    endloop
  endfacet
  facet normal  0.000000e+000 -3.826821e-001 -9.238800e-001
    outer loop
      vertex  6.250000e-001 -2.298129e+000  2.166244e+000
      vertex  5.000000e-001 -2.241914e+000  2.142959e+000
      vertex  6.250000e-001 -2.241914e+000  2.142959e+000
    endloop
  endfacet
  facet normal  -0.000000e+000 -9.238797e-001 -3.826830e-001
    outer loop
      vertex  6.250000e-001 -2.241914e+000  2.142959e+000
      vertex  5.000000e-001 -2.241914e+000  2.142959e+000
      vertex  5.000000e-001 -2.218629e+000  2.086744e+000
    endloop
  endfacet
  facet normal  0.000000e+000 -9.238797e-001 -3.826830e-001
    outer loop
      vertex  6.250000e-001 -2.241914e+000  2.142959e+000
      vertex  5.000000e-001 -2.218629e+000  2.086744e+000
      vertex  6.250000e-001 -2.218629e+000  2.086744e+000
    endloop
  endfacet
  facet normal  0.000000e+000 -3.826842e-001  9.238792e-001
    outer loop
      vertex  5.000000e-001 -2.298129e+000  2.007244e+000
      vertex  6.250000e-001 -2.241914e+000  2.030529e+000
      vertex  5.000000e-001 -2.241914e+000  2.030529e+000
    endloop
  endfacet
  facet normal  0.000000e+000 -9.238797e-001  3.826830e-001
    outer loop
      vertex  5.000000e-001 -2.241914e+000  2.030529e+000
      vertex  6.250000e-001 -2.241914e+000  2.030529e+000
      vertex  6.250000e-001 -2.218629e+000  2.086744e+000
    endloop
  endfacet
  facet normal  0.000000e+000 -9.238797e-001  3.826830e-001
    outer loop
      vertex  5.000000e-001 -2.241914e+000  2.030529e+000
      vertex  6.250000e-001 -2.218629e+000  2.086744e+000
      vertex  5.000000e-001 -2.218629e+000  2.086744e+000
    endloop
  endfacet
  facet normal  0.000000e+000 -3.826842e-001  9.238792e-001
    outer loop
      vertex  6.250000e-001 -2.241914e+000  2.030529e+000
      vertex  5.000000e-001 -2.298129e+000  2.007244e+000
      vertex  6.250000e-001 -2.298129e+000  2.007244e+000
    endloop
  endfacet
  facet normal  0.000000e+000  3.826851e-001  9.238788e-001
    outer loop
      vertex  6.250000e-001 -2.298129e+000  2.007244e+000
      vertex  5.000000e-001 -2.298129e+000  2.007244e+000
      vertex  5.000000e-001 -2.354344e+000  2.030529e+000
    endloop
  endfacet
  facet normal  -0.000000e+000  3.826851e-001  9.238788e-001
    outer loop
      vertex  6.250000e-001 -2.298129e+000  2.007244e+000
      vertex  5.000000e-001 -2.354344e+000  2.030529e+000
      vertex  6.250000e-001 -2.354344e+000  2.030529e+000
    endloop
  endfacet
  facet normal  0.000000e+000  9.238797e-001  3.826830e-001
    outer loop
      vertex  6.250000e-001 -2.354344e+000  2.030529e+000
      vertex  5.000000e-001 -2.354344e+000  2.030529e+000
      vertex  5.000000e-001 -2.377629e+000  2.086744e+000
    endloop
  endfacet
  facet normal  -0.000000e+000  9.238797e-001  3.826830e-001
    outer loop
      vertex  6.250000e-001 -2.354344e+000  2.030529e+000
      vertex  5.000000e-001 -2.377629e+000  2.086744e+000
      vertex  6.250000e-001 -2.377629e+000  2.086744e+000
    endloop
  endfacet
  facet normal  0.000000e+000  0.000000e+000  1.000000e+000
    outer loop
      vertex  5.000000e-001 -2.448129e+000  2.336744e+000
      vertex  6.250000e-001 -2.448129e+000  2.336744e+000
      vertex  5.000000e-001 -2.148129e+000  2.336744e+000
    endloop
  endfacet
  facet normal  -0.000000e+000  0.000000e+000  1.000000e+000
    outer loop
      vertex  5.000000e-001 -2.148129e+000  2.336744e+000
      vertex  6.250000e-001 -2.448129e+000  2.336744e+000
      vertex  6.250000e-001 -2.148129e+000  2.336744e+000
    endloop
  endfacet
  facet normal -7.071067e-001  -0.000000e+000 -7.071068e-001
    outer loop
      vertex  1.700000e-001 -1.750000e+000  2.332843e-001
      vertex  1.700000e-001 -1.625000e+000  2.332843e-001
      vertex  2.582843e-001 -1.750000e+000  1.450000e-001
    endloop
  endfacet
  facet normal -7.071067e-001  0.000000e+000 -7.071068e-001
    outer loop
      vertex  2.582843e-001 -1.750000e+000  1.450000e-001
      vertex  1.700000e-001 -1.625000e+000  2.332843e-001
      vertex  2.582843e-001 -1.625000e+000  1.450000e-001
    endloop
  endfacet
  facet normal -1.000000e+000  0.000000e+000  0.000000e+000
    outer loop
      vertex  1.700000e-001 -1.625000e+000  3.750000e-001
      vertex  1.700000e-001 -1.625000e+000  2.332843e-001
      vertex  1.700000e-001 -1.750000e+000  3.750000e-001
    endloop
  endfacet
  facet normal -1.000000e+000  0.000000e+000  0.000000e+000
    outer loop
      vertex  1.700000e-001 -1.750000e+000  3.750000e-001
      vertex  1.700000e-001 -1.625000e+000  2.332843e-001
      vertex  1.700000e-001 -1.750000e+000  2.332843e-001
    endloop
  endfacet
  facet normal  -0.000000e+000  0.000000e+000  9.999999e-001
    outer loop
      vertex  6.250000e-001 -1.625000e+000 -2.000000e-002
      vertex -6.250000e-001 -1.625000e+000 -2.000000e-002
      vertex  6.250000e-001 -1.750000e+000 -2.000000e-002
    endloop
  endfacet
  facet normal  0.000000e+000  0.000000e+000  9.999999e-001
    outer loop
      vertex  6.250000e-001 -1.750000e+000 -2.000000e-002
      vertex -6.250000e-001 -1.625000e+000 -2.000000e-002
      vertex -6.250000e-001 -1.750000e+000 -2.000000e-002
    endloop
  endfacet
  facet normal  0.000000e+000  1.000000e+000  0.000000e+000
    outer loop
      vertex -2.582843e-001 -1.750000e+000  1.450000e-001
      vertex -1.700000e-001 -1.750000e+000  2.332843e-001
      vertex -4.867971e-018 -1.750000e+000  2.295000e-001
    endloop
  endfacet
  facet normal  0.000000e+000  9.999999e-001  0.000000e+000
    outer loop
      vertex -2.582843e-001 -1.750000e+000  1.450000e-001
      vertex -4.867971e-018 -1.750000e+000  2.295000e-001
      vertex -5.621499e-002 -1.750000e+000  2.062150e-001
    endloop
  endfacet
  facet normal  0.000000e+000  1.000000e+000  0.000000e+000
    outer loop
      vertex -2.582843e-001 -1.750000e+000  1.450000e-001
      vertex -5.621499e-002 -1.750000e+000  2.062150e-001
      vertex -7.950000e-002 -1.750000e+000  1.500000e-001
    endloop
  endfacet
  facet normal  0.000000e+000  1.000000e+000  0.000000e+000
    outer loop
      vertex -2.582843e-001 -1.750000e+000  1.450000e-001
      vertex -7.950000e-002 -1.750000e+000  1.500000e-001
      vertex -5.621499e-002 -1.750000e+000  9.378501e-002
    endloop
  endfacet
  facet normal  0.000000e+000  1.000000e+000  0.000000e+000
    outer loop
      vertex -2.582843e-001 -1.750000e+000  1.450000e-001
      vertex -5.621499e-002 -1.750000e+000  9.378501e-002
      vertex  1.460391e-017 -1.750000e+000  7.050000e-002
    endloop
  endfacet
  facet normal  0.000000e+000  1.000000e+000  0.000000e+000
    outer loop
      vertex -2.582843e-001 -1.750000e+000  1.450000e-001
      vertex  1.460391e-017 -1.750000e+000  7.050000e-002
      vertex -6.250000e-001 -1.750000e+000  1.450000e-001
    endloop
  endfacet
  facet normal  0.000000e+000  1.000000e+000  0.000000e+000
    outer loop
      vertex  2.582843e-001 -1.750000e+000  1.450000e-001
      vertex  6.250000e-001 -1.750000e+000  1.450000e-001
      vertex  1.460391e-017 -1.750000e+000  7.050000e-002
    endloop
  endfacet
  facet normal  0.000000e+000  1.000000e+000  0.000000e+000
    outer loop
      vertex  2.582843e-001 -1.750000e+000  1.450000e-001
      vertex  1.460391e-017 -1.750000e+000  7.050000e-002
      vertex  5.621499e-002 -1.750000e+000  9.378501e-002
    endloop
  endfacet
  facet normal  0.000000e+000  1.000000e+000  0.000000e+000
    outer loop
      vertex  2.582843e-001 -1.750000e+000  1.450000e-001
      vertex  5.621499e-002 -1.750000e+000  9.378501e-002
      vertex  7.950000e-002 -1.750000e+000  1.500000e-001
    endloop
  endfacet
  facet normal  -0.000000e+000  1.000000e+000  -0.000000e+000
    outer loop
      vertex  2.582843e-001 -1.750000e+000  1.450000e-001
      vertex  7.950000e-002 -1.750000e+000  1.500000e-001
      vertex  5.621499e-002 -1.750000e+000  2.062150e-001
    endloop
  endfacet
  facet normal  -0.000000e+000  9.999999e-001  -0.000000e+000
    outer loop
      vertex  2.582843e-001 -1.750000e+000  1.450000e-001
      vertex  5.621499e-002 -1.750000e+000  2.062150e-001
      vertex -4.867971e-018 -1.750000e+000  2.295000e-001
    endloop
  endfacet
  facet normal  -0.000000e+000  1.000000e+000  0.000000e+000
    outer loop
      vertex  2.582843e-001 -1.750000e+000  1.450000e-001
      vertex -4.867971e-018 -1.750000e+000  2.295000e-001
      vertex  1.700000e-001 -1.750000e+000  2.332843e-001
    endloop
  endfacet
  facet normal  0.000000e+000  1.000000e+000  -0.000000e+000
    outer loop
      vertex  6.250000e-001 -1.750000e+000  1.450000e-001
      vertex  6.250000e-001 -1.750000e+000 -2.000000e-002
      vertex  1.460391e-017 -1.750000e+000  7.050000e-002
    endloop
  endfacet
  facet normal  0.000000e+000  1.000000e+000  0.000000e+000
    outer loop
      vertex  1.460391e-017 -1.750000e+000  7.050000e-002
      vertex  6.250000e-001 -1.750000e+000 -2.000000e-002
      vertex -6.250000e-001 -1.750000e+000 -2.000000e-002
    endloop
  endfacet
  facet normal  0.000000e+000  1.000000e+000  0.000000e+000
    outer loop
      vertex  1.460391e-017 -1.750000e+000  7.050000e-002
      vertex -6.250000e-001 -1.750000e+000 -2.000000e-002
      vertex -6.250000e-001 -1.750000e+000  1.450000e-001
    endloop
  endfacet
  facet normal  0.000000e+000  1.000000e+000  -0.000000e+000
    outer loop
      vertex  1.700000e-001 -1.750000e+000  3.750000e-001
      vertex  1.700000e-001 -1.750000e+000  2.332843e-001
      vertex -1.700000e-001 -1.750000e+000  3.750000e-001
    endloop
  endfacet
  facet normal  0.000000e+000  1.000000e+000  0.000000e+000
    outer loop
      vertex -1.700000e-001 -1.750000e+000  3.750000e-001
      vertex  1.700000e-001 -1.750000e+000  2.332843e-001
      vertex -4.867971e-018 -1.750000e+000  2.295000e-001
    endloop
  endfacet
  facet normal  0.000000e+000  1.000000e+000  0.000000e+000
    outer loop
      vertex -1.700000e-001 -1.750000e+000  3.750000e-001
      vertex -4.867971e-018 -1.750000e+000  2.295000e-001
      vertex -1.700000e-001 -1.750000e+000  2.332843e-001
    endloop
  endfacet
  facet normal  0.000000e+000  0.000000e+000 -1.000000e+000
    outer loop
      vertex  6.250000e-001 -1.625000e+000  1.450000e-001
      vertex  6.250000e-001 -1.750000e+000  1.450000e-001
      vertex  2.582843e-001 -1.625000e+000  1.450000e-001
    endloop
  endfacet
  facet normal  0.000000e+000  0.000000e+000 -1.000000e+000
    outer loop
      vertex  2.582843e-001 -1.625000e+000  1.450000e-001
      vertex  6.250000e-001 -1.750000e+000  1.450000e-001
      vertex  2.582843e-001 -1.750000e+000  1.450000e-001
    endloop
  endfacet
  facet normal  0.000000e+000  1.000000e+000  0.000000e+000
    outer loop
      vertex  1.700000e-001 -1.625000e+000  3.750000e-001
      vertex  6.250000e-001 -1.625000e+000  3.750000e-001
      vertex  1.700000e-001 -1.625000e+000  2.332843e-001
    endloop
  endfacet
  facet normal  -0.000000e+000  1.000000e+000  0.000000e+000
    outer loop
      vertex  1.700000e-001 -1.625000e+000  2.332843e-001
      vertex  6.250000e-001 -1.625000e+000  3.750000e-001
      vertex  6.250000e-001 -1.625000e+000  1.450000e-001
    endloop
  endfacet
  facet normal  0.000000e+000  1.000000e+000  0.000000e+000
    outer loop
      vertex  1.700000e-001 -1.625000e+000  2.332843e-001
      vertex  6.250000e-001 -1.625000e+000  1.450000e-001
      vertex  2.582843e-001 -1.625000e+000  1.450000e-001
    endloop
  endfacet
  facet normal  7.071067e-001  0.000000e+000 -7.071068e-001
    outer loop
      vertex -1.700000e-001 -1.750000e+000  2.332843e-001
      vertex -2.582843e-001 -1.750000e+000  1.450000e-001
      vertex -1.700000e-001 -1.625000e+000  2.332843e-001
    endloop
  endfacet
  facet normal  7.071067e-001  0.000000e+000 -7.071068e-001
    outer loop
      vertex -1.700000e-001 -1.625000e+000  2.332843e-001
      vertex -2.582843e-001 -1.750000e+000  1.450000e-001
      vertex -2.582843e-001 -1.625000e+000  1.450000e-001
    endloop
  endfacet
  facet normal  1.000000e+000  -0.000000e+000  0.000000e+000
    outer loop
      vertex -1.700000e-001 -1.625000e+000  3.750000e-001
      vertex -1.700000e-001 -1.750000e+000  3.750000e-001
      vertex -1.700000e-001 -1.625000e+000  2.332843e-001
    endloop
  endfacet
  facet normal  1.000000e+000  0.000000e+000  0.000000e+000
    outer loop
      vertex -1.700000e-001 -1.625000e+000  2.332843e-001
      vertex -1.700000e-001 -1.750000e+000  3.750000e-001
      vertex -1.700000e-001 -1.750000e+000  2.332843e-001
    endloop
  endfacet
  facet normal  0.000000e+000  1.000000e+000  0.000000e+000
    outer loop
      vertex -6.250000e-001 -1.625000e+000  3.750000e-001
      vertex -1.700000e-001 -1.625000e+000  3.750000e-001
      vertex -6.250000e-001 -1.625000e+000  1.450000e-001
    endloop
  endfacet
  facet normal  0.000000e+000  1.000000e+000  0.000000e+000
    outer loop
      vertex -6.250000e-001 -1.625000e+000  1.450000e-001
      vertex -1.700000e-001 -1.625000e+000  3.750000e-001
      vertex -1.700000e-001 -1.625000e+000  2.332843e-001
    endloop
  endfacet
  facet normal  0.000000e+000  1.000000e+000  0.000000e+000
    outer loop
      vertex -6.250000e-001 -1.625000e+000  1.450000e-001
      vertex -1.700000e-001 -1.625000e+000  2.332843e-001
      vertex -2.582843e-001 -1.625000e+000  1.450000e-001
    endloop
  endfacet
  facet normal  0.000000e+000  0.000000e+000 -1.000000e+000
    outer loop
      vertex -2.582843e-001 -1.625000e+000  1.450000e-001
      vertex -2.582843e-001 -1.750000e+000  1.450000e-001
      vertex -6.250000e-001 -1.625000e+000  1.450000e-001
    endloop
  endfacet
  facet normal  0.000000e+000  0.000000e+000 -1.000000e+000
    outer loop
      vertex -6.250000e-001 -1.625000e+000  1.450000e-001
      vertex -2.582843e-001 -1.750000e+000  1.450000e-001
      vertex -6.250000e-001 -1.750000e+000  1.450000e-001
    endloop
  endfacet
  facet normal -3.826834e-001  -0.000000e+000 -9.238796e-001
    outer loop
      vertex -4.867971e-018 -1.875000e+000  2.295000e-001
      vertex  5.621499e-002 -1.750000e+000  2.062150e-001
      vertex  5.621499e-002 -1.875000e+000  2.062150e-001
    endloop
  endfacet
  facet normal -9.238796e-001  0.000000e+000 -3.826834e-001
    outer loop
      vertex  5.621499e-002 -1.875000e+000  2.062150e-001
      vertex  5.621499e-002 -1.750000e+000  2.062150e-001
      vertex  7.950000e-002 -1.750000e+000  1.500000e-001
    endloop
  endfacet
  facet normal -9.238796e-001  -0.000000e+000 -3.826834e-001
    outer loop
      vertex  5.621499e-002 -1.875000e+000  2.062150e-001
      vertex  7.950000e-002 -1.750000e+000  1.500000e-001
      vertex  7.950000e-002 -1.875000e+000  1.500000e-001
    endloop
  endfacet
  facet normal -3.826834e-001  0.000000e+000 -9.238796e-001
    outer loop
      vertex  5.621499e-002 -1.750000e+000  2.062150e-001
      vertex -4.867971e-018 -1.875000e+000  2.295000e-001
      vertex -4.867971e-018 -1.750000e+000  2.295000e-001
    endloop
  endfacet
  facet normal  3.826834e-001  0.000000e+000 -9.238796e-001
    outer loop
      vertex -4.867971e-018 -1.750000e+000  2.295000e-001
      vertex -4.867971e-018 -1.875000e+000  2.295000e-001
      vertex -5.621499e-002 -1.875000e+000  2.062150e-001
    endloop
  endfacet
  facet normal  3.826834e-001  0.000000e+000 -9.238796e-001
    outer loop
      vertex -4.867971e-018 -1.750000e+000  2.295000e-001
      vertex -5.621499e-002 -1.875000e+000  2.062150e-001
      vertex -5.621499e-002 -1.750000e+000  2.062150e-001
    endloop
  endfacet
  facet normal  9.238796e-001  0.000000e+000 -3.826834e-001
    outer loop
      vertex -5.621499e-002 -1.750000e+000  2.062150e-001
      vertex -5.621499e-002 -1.875000e+000  2.062150e-001
      vertex -7.950000e-002 -1.875000e+000  1.500000e-001
    endloop
  endfacet
  facet normal  9.238796e-001  0.000000e+000 -3.826834e-001
    outer loop
      vertex -5.621499e-002 -1.750000e+000  2.062150e-001
      vertex -7.950000e-002 -1.875000e+000  1.500000e-001
      vertex -7.950000e-002 -1.750000e+000  1.500000e-001
    endloop
  endfacet
  facet normal  3.826834e-001  0.000000e+000  9.238796e-001
    outer loop
      vertex  1.460391e-017 -1.875000e+000  7.050000e-002
      vertex -5.621499e-002 -1.750000e+000  9.378501e-002
      vertex -5.621499e-002 -1.875000e+000  9.378501e-002
    endloop
  endfacet
  facet normal  9.238796e-001  -0.000000e+000  3.826834e-001
    outer loop
      vertex -5.621499e-002 -1.875000e+000  9.378501e-002
      vertex -5.621499e-002 -1.750000e+000  9.378501e-002
      vertex -7.950000e-002 -1.750000e+000  1.500000e-001
    endloop
  endfacet
  facet normal  9.238796e-001  0.000000e+000  3.826834e-001
    outer loop
      vertex -5.621499e-002 -1.875000e+000  9.378501e-002
      vertex -7.950000e-002 -1.750000e+000  1.500000e-001
      vertex -7.950000e-002 -1.875000e+000  1.500000e-001
    endloop
  endfacet
  facet normal  3.826834e-001  -0.000000e+000  9.238796e-001
    outer loop
      vertex -5.621499e-002 -1.750000e+000  9.378501e-002
      vertex  1.460391e-017 -1.875000e+000  7.050000e-002
      vertex  1.460391e-017 -1.750000e+000  7.050000e-002
    endloop
  endfacet
  facet normal -3.826834e-001  0.000000e+000  9.238796e-001
    outer loop
      vertex  1.460391e-017 -1.750000e+000  7.050000e-002
      vertex  1.460391e-017 -1.875000e+000  7.050000e-002
      vertex  5.621499e-002 -1.875000e+000  9.378501e-002
    endloop
  endfacet
  facet normal -3.826834e-001  0.000000e+000  9.238796e-001
    outer loop
      vertex  1.460391e-017 -1.750000e+000  7.050000e-002
      vertex  5.621499e-002 -1.875000e+000  9.378501e-002
      vertex  5.621499e-002 -1.750000e+000  9.378501e-002
    endloop
  endfacet
  facet normal -9.238796e-001  0.000000e+000  3.826834e-001
    outer loop
      vertex  5.621499e-002 -1.750000e+000  9.378501e-002
      vertex  5.621499e-002 -1.875000e+000  9.378501e-002
      vertex  7.950000e-002 -1.875000e+000  1.500000e-001
    endloop
  endfacet
  facet normal -9.238796e-001  0.000000e+000  3.826834e-001
    outer loop
      vertex  5.621499e-002 -1.750000e+000  9.378501e-002
      vertex  7.950000e-002 -1.875000e+000  1.500000e-001
      vertex  7.950000e-002 -1.750000e+000  1.500000e-001
    endloop
  endfacet
endsolid CATIA STL
