# Blender v2.90.1 OBJ File: ''
# www.blender.org
mtllib chassis1.mtl
o Cube_Cube.002
v -1.000000 1.000000 -0.503140
v -1.000000 1.000000 -1.000000
v -4.267963 1.010187 -1.267966
v -4.267963 1.010187 -0.630315
v 1.000000 1.000000 0.987440
v -1.000000 1.000000 0.987440
v -1.000000 1.000000 2.953883
v 1.000000 1.000000 2.953883
v 1.000000 1.000000 0.490580
v -1.000000 1.000000 0.490580
v -4.345632 -1.107213 -0.330084
v -4.267963 -0.222179 -1.267967
v -1.000000 -1.000000 2.953883
v -4.244350 -1.000000 2.953883
v -4.244350 -1.691343 2.953883
v -1.000000 -1.691343 2.953883
v 4.252155 1.000000 0.987440
v 4.252155 1.000000 0.490580
v 1.000000 -1.000000 -2.946220
v 4.252155 -1.000000 -2.946220
v 4.252155 -1.691342 -2.946220
v 1.000000 -1.691342 -2.946220
v -1.000000 -1.000000 -2.946220
v -1.000000 1.000000 -2.946220
v 1.000000 1.000000 -2.946220
v -4.244350 -1.000000 -2.946220
v -4.244350 1.000000 -2.946220
v 4.252155 1.000000 -2.946220
v 1.000000 1.000000 -1.000000
v 4.252155 1.000000 -1.000000
v -1.000000 -1.691342 -2.946220
v 1.000000 -1.000000 2.953883
v 4.252155 -1.000000 2.953883
v 4.252155 1.000000 2.953883
v -4.244350 1.000000 2.953883
v 1.000000 -1.691343 2.953883
v -4.267963 1.010186 1.282639
v -4.244350 -1.691342 -2.946220
v 4.252155 -1.691343 2.953883
v 5.264379 -1.000000 -1.243278
v 5.264379 -1.000000 -1.000000
v 5.264379 -1.691343 -1.000000
v 5.264379 -1.691343 -1.243278
v 4.758266 0.000000 -1.000000
v 4.252155 1.000000 -1.000000
v 4.252155 1.000000 0.987440
v 4.758266 -0.000000 0.987440
v 4.252155 -1.000000 1.970661
v 4.252155 -1.000000 2.953883
v 4.252155 -1.691343 2.953883
v 4.252155 -1.691343 1.970661
v 4.252155 -0.500000 -1.973110
v 4.252155 -1.000000 -1.973110
v 4.252155 -1.000000 -2.946220
v 4.252155 -0.500000 -2.946220
v 4.252155 -0.000000 1.970661
v 4.252155 1.000000 1.970661
v 4.252155 1.000000 2.953883
v 4.252155 -0.000000 2.953883
v 4.252155 -0.500000 -1.486555
v 4.252155 -1.000000 -1.486555
v 4.252155 -1.691343 -1.973110
v 4.252155 -1.691342 -2.946220
v 4.252155 -0.000000 1.479051
v 4.252155 1.000000 1.479051
v 4.252155 -1.000000 1.479051
v 4.252155 -1.691343 1.479051
v 5.264379 -1.000000 1.233245
v 5.264379 -1.691343 1.233245
v 4.758266 -0.000000 1.233245
v 4.252155 1.000000 1.233245
v 5.011322 -0.500000 -1.243278
v 4.252155 -1.691343 -1.486555
v 5.264379 -1.000000 0.987440
v 5.264379 -1.691343 0.987440
v 5.011322 -0.500000 -1.000000
v 4.758266 0.000000 -1.243278
v 4.252155 1.000000 -1.243278
v 5.011322 -0.500000 0.987440
v 5.011322 -0.500000 1.233245
v 4.252155 0.000000 -1.486555
v 4.252155 1.000000 -1.486555
v 4.252155 -0.500000 1.479051
v 4.252155 -0.500000 1.970661
v 4.252155 0.000000 -1.973110
v 4.252155 1.000000 -1.973110
v 4.252155 -0.500000 2.953883
v 4.252155 0.000000 -2.946220
v 4.252155 1.000000 -2.946220
v -1.000000 0.750000 -0.503140
v -4.067580 0.823229 -0.503140
v -4.067580 0.823229 -1.000000
v -1.000000 0.750000 -1.000000
v 1.000000 0.750000 0.987440
v 1.000000 0.823229 2.777112
v -1.000000 0.823229 2.777112
v -1.000000 0.750000 0.987440
v 1.000000 0.750000 0.490580
v -1.000000 0.750000 0.490580
v -4.169004 -1.107213 -0.330084
v -3.947123 -0.222179 -1.267967
v -1.000000 -1.000000 2.703883
v -1.000000 -1.691343 2.703883
v -4.067580 -1.691343 2.777112
v -4.067580 -1.000000 2.777112
v 4.252155 0.750000 0.490580
v 4.252155 0.750000 0.987440
v 1.000000 -1.000000 -2.696220
v 1.000000 -1.691342 -2.696220
v 4.252155 -1.691342 -2.696220
v 4.252155 -1.000000 -2.696220
v -1.000000 -1.000000 -2.696220
v 1.000000 0.823229 -2.769449
v -1.000000 0.823229 -2.769449
v -4.100013 0.855663 -2.801883
v -4.067580 -1.000000 -2.769449
v 4.252155 0.823229 -2.769449
v 1.000000 0.750000 -1.000000
v 4.252155 0.750000 -1.000000
v -1.000000 -1.691342 -2.696220
v 4.252155 0.823229 2.777112
v 4.252155 -1.000000 2.703883
v 1.000000 -1.000000 2.703883
v -4.100013 0.855663 2.809546
v 1.000000 -1.691343 2.703883
v -4.067580 0.823229 0.987440
v -4.067580 -1.691342 -2.769449
v 4.252155 -1.691343 2.703883
v 5.064147 -1.043191 -1.099963
v 5.068038 -1.691343 -1.088533
v 5.014379 -1.691343 -1.000000
v 5.021214 -1.058031 -1.000000
v 4.535214 -0.112888 -1.000000
v 4.535214 -0.112888 0.987440
v 4.029103 0.887112 0.987440
v 4.029103 0.887112 -1.000000
v 4.002155 -1.000000 1.970661
v 4.002155 -1.691343 1.970661
v 4.002155 -1.691343 2.953883
v 4.002155 -1.000000 2.953883
v 4.002155 -0.500000 -1.973110
v 4.002155 -0.500000 -2.946220
v 4.002155 -1.000000 -2.946220
v 4.002155 -1.000000 -1.973110
v 4.002155 -0.000000 1.970661
v 4.002155 -0.000000 2.953883
v 4.002155 1.000000 2.953883
v 4.002155 1.000000 1.970661
v 4.049664 -0.512146 -1.340448
v 4.054540 -1.005287 -1.333520
v 4.002155 -1.691342 -2.946220
v 4.002155 -1.691343 -1.973110
v 4.032506 -0.019097 1.361211
v 4.022610 0.976363 1.382887
v 4.054349 -1.005333 1.326267
v 4.055631 -1.691343 1.324535
v 5.063986 -1.043184 1.090151
v 5.067854 -1.691343 1.078730
v 4.557798 -0.083712 1.109538
v 4.037564 0.915006 1.137211
v 4.826724 -0.581736 -1.095835
v 4.055814 -1.691343 -1.331811
v 5.021214 -1.058031 0.987440
v 5.014379 -1.691343 0.987440
v 4.788270 -0.612888 -1.000000
v 4.037823 0.915036 -1.146641
v 4.558073 -0.083674 -1.119105
v 4.788270 -0.612888 0.987440
v 4.826495 -0.581759 1.086108
v 4.022854 0.976463 -1.389789
v 4.032757 -0.018990 -1.368227
v 4.049443 -0.512246 1.333264
v 4.002155 -0.500000 1.970661
v 4.002155 1.000000 -1.973110
v 4.002155 0.000000 -1.973110
v 4.002155 -0.500000 2.953883
v 4.002155 1.000000 -2.946220
v 4.002155 0.000000 -2.946220
v -4.267963 -0.222180 1.282638
v -3.947123 -0.222180 1.282638
v 4.252155 1.000000 -0.503140
v 4.252155 1.000000 -0.006280
v 4.252155 0.750000 -0.006280
v 4.252155 0.750000 -0.503140
v 1.000000 0.750000 -0.503140
v 1.000000 0.750000 -0.006280
v -4.169004 -1.107213 0.371987
v -4.169004 -1.107213 0.020952
v -4.067580 0.823229 -0.006280
v -4.067580 0.823229 0.490580
v -1.000000 0.750000 -0.006280
v 1.000000 1.000000 -0.503140
v 1.000000 1.000000 -0.006280
v -4.345632 -1.107213 0.371987
v -4.267963 1.010187 0.644987
v -4.267963 1.010187 0.007336
v -4.345632 -1.107213 0.020952
v -1.000000 1.000000 -0.006280
vt 0.548920 0.621724
vt 0.548920 0.572183
vt 0.874766 0.545465
vt 0.874766 0.609044
vt 0.349503 0.770348
vt 0.548920 0.770348
vt 0.548920 0.966420
vt 0.349503 0.966420
vt 0.349503 0.720807
vt 0.548920 0.720807
vt 0.375000 0.187500
vt 0.625000 0.187500
vt 0.625000 0.250000
vt 0.375000 0.250000
vt 0.081431 0.618137
vt 0.081431 0.999925
vt 0.000075 0.999925
vt 0.000075 0.618137
vt 0.025234 0.770348
vt 0.025234 0.720807
vt 0.081415 0.617223
vt 0.081415 0.999944
vt 0.000056 0.999944
vt 0.000056 0.617223
vt 0.081415 0.381859
vt 0.316779 0.381859
vt 0.316779 0.617223
vt 0.081415 0.000056
vt 0.316779 0.000056
vt 0.316779 0.999944
vt 0.349503 0.572183
vt 0.025235 0.572183
vt 0.025235 0.378128
vt 0.349503 0.378128
vt 0.548920 0.378128
vt 0.872410 0.378125
vt 0.000056 0.381859
vt 0.316786 0.382781
vt 0.081431 0.382781
vt 0.081431 0.000075
vt 0.316786 0.000075
vt 0.316786 0.618137
vt 0.316786 0.999925
vt 0.025234 0.966420
vt 0.000075 0.382781
vt 0.874766 0.799782
vt 0.872410 0.966423
vt 0.000056 0.000056
vt 0.000075 0.000075
vt 0.100352 0.275089
vt 0.083356 0.298343
vt 0.014873 0.258963
vt 0.030132 0.232697
vt 0.222392 0.364516
vt 0.366927 0.376945
vt 0.375277 0.632169
vt 0.229288 0.637842
vt 0.166277 0.849513
vt 0.214049 0.966396
vt 0.132095 0.999883
vt 0.084470 0.883327
vt 0.235933 0.186089
vt 0.180796 0.158573
vt 0.233774 0.051316
vt 0.288854 0.078469
vt 0.286330 0.799741
vt 0.409151 0.753887
vt 0.454264 0.872847
vt 0.333274 0.918730
vt 0.208837 0.239465
vt 0.154114 0.211964
vt 0.104730 0.120763
vt 0.157730 0.013731
vt 0.262311 0.738444
vt 0.387114 0.693873
vt 0.141694 0.791575
vt 0.060496 0.825358
vt 0.090158 0.675474
vt 0.010097 0.702964
vt 0.230259 0.670227
vt 0.376619 0.664062
vt 0.205133 0.999907
vt 0.000093 0.578380
vt 0.870897 0.579979
vt 0.871959 0.998213
vt 0.078180 0.174237
vt 0.084573 0.646284
vt 0.000118 0.671646
vt 0.138676 0.353967
vt 0.155589 0.321032
vt 0.001156 0.000093
vt 0.871959 0.001693
vt 0.226473 0.334214
vt 0.369328 0.346526
vt 0.155460 0.640059
vt 0.157166 0.672115
vt 0.263975 0.269932
vt 0.380734 0.319023
vt 0.201019 0.765525
vt 0.225929 0.824492
vt 0.291580 0.214073
vt 0.404264 0.264990
vt 0.273494 0.942363
vt 0.344010 0.105478
vt 0.454264 0.157395
vt 0.628719 0.396614
vt 0.995943 0.396620
vt 0.995940 0.456095
vt 0.628721 0.456071
vt 0.389362 0.218224
vt 0.389390 0.003808
vt 0.628829 0.003870
vt 0.628717 0.218236
vt 0.389361 0.277693
vt 0.628717 0.277695
vt 0.375000 0.187500
vt 0.375000 0.250000
vt 0.625000 0.250000
vt 0.625000 0.187500
vt 0.222183 0.628731
vt 0.304921 0.628714
vt 0.304921 0.995946
vt 0.222181 0.995946
vt 0.000089 0.277703
vt 0.000087 0.218229
vt 0.222094 0.610647
vt 0.304841 0.610690
vt 0.304630 0.999945
vt 0.221882 0.999900
vt 0.222217 0.371286
vt 0.003691 0.610523
vt 0.003829 0.371133
vt 0.000055 0.000055
vt 0.222201 0.004042
vt 0.003480 0.999781
vt 0.389371 0.456104
vt 0.389408 0.668085
vt 0.000113 0.668116
vt 0.000097 0.456125
vt 0.628825 0.668027
vt 0.999918 0.671814
vt 0.304959 0.371309
vt 0.003654 0.389502
vt 0.003445 0.000215
vt 0.221864 0.000099
vt 0.222068 0.389379
vt 0.003808 0.628900
vt 0.000055 0.999945
vt 0.000082 0.003809
vt 0.304821 0.389339
vt 0.999918 0.000082
vt 0.995940 0.218219
vt 0.304959 0.004041
vt 0.304617 0.000055
vt 0.375000 0.500000
vt 0.375000 0.500000
vt 0.375000 0.500000
vt 0.375000 0.500000
vt 0.500000 0.500000
vt 0.500000 0.750000
vt 0.625000 0.750000
vt 0.625000 0.500000
vt 0.375000 0.750000
vt 0.375000 0.750000
vt 0.375000 0.750000
vt 0.375000 0.750000
vt 0.437500 0.500000
vt 0.437500 0.500000
vt 0.375000 0.500000
vt 0.375000 0.500000
vt 0.434614 0.145198
vt 0.434614 0.029494
vt 0.552292 0.029494
vt 0.552292 0.145198
vt 0.437500 0.500000
vt 0.375000 0.500000
vt 0.375000 0.500000
vt 0.375000 0.500000
vt 0.500000 0.750000
vt 0.500000 0.750000
vt 0.625000 0.750000
vt 0.625000 0.750000
vt 0.375000 0.750000
vt 0.375000 0.750000
vt 0.375000 0.750000
vt 0.375000 0.750000
vt 0.500000 0.750000
vt 0.625000 0.750000
vt 0.437500 0.500000
vt 0.375000 0.500000
vt 0.375000 0.750000
vt 0.375000 0.750000
vt 0.437500 0.500000
vt 0.000081 0.000081
vt 0.657920 0.001691
vt 0.657920 0.999919
vt 0.036350 0.993729
vt 0.625000 0.500000
vt 0.500000 0.500000
vt 0.437500 0.750000
vt 0.437500 0.750000
vt 0.625000 0.500000
vt 0.500000 0.500000
vt 0.437500 0.750000
vt 0.437500 0.750000
vt 0.625000 0.500000
vt 0.500000 0.500000
vt 0.437500 0.750000
vt 0.500000 0.750000
vt 0.625000 0.500000
vt 0.500000 0.500000
vt 0.316936 0.145198
vt 0.316936 0.029494
vt 0.375775 0.029494
vt 0.375775 0.145198
vt 0.712182 0.451575
vt 0.801256 0.451575
vt 0.801256 0.483785
vt 0.712182 0.483785
vt 0.801255 0.451340
vt 0.712182 0.451340
vt 0.712182 0.419129
vt 0.801255 0.419129
vt 0.625000 0.687500
vt 0.625000 0.750000
vt 0.625000 0.750000
vt 0.625000 0.687500
vt 0.454499 0.451340
vt 0.477275 0.428564
vt 0.625000 0.500000
vt 0.625000 0.500000
vt 0.625000 0.500000
vt 0.625000 0.500000
vt 0.454499 0.451575
vt 0.477275 0.474350
vt 0.625000 0.750000
vt 0.625000 0.750000
vt 0.375000 0.250000
vt 0.375000 0.500000
vt 0.375000 0.500000
vt 0.375000 0.250000
vt 0.375000 0.250000
vt 0.375000 0.250000
vt 0.375000 0.500000
vt 0.375000 0.500000
vt 0.375000 0.750000
vt 0.375000 1.000000
vt 0.375000 1.000000
vt 0.375000 0.750000
vt 0.375000 1.000000
vt 0.375000 1.000000
vt 0.375000 0.750000
vt 0.375000 0.750000
vt 0.077244 0.107133
vt 0.130236 0.000118
vt 0.375000 0.750000
vt 0.375000 0.750000
vt 0.375000 0.500000
vt 0.375000 0.500000
vt 0.625000 0.750000
vt 0.625000 0.750000
vt 0.316936 0.000075
vt 0.375775 0.000075
vt 0.625000 0.500000
vt 0.625000 0.500000
vt 0.437500 0.500000
vt 0.375000 0.500000
vt 0.066163 0.319708
vt 0.000750 0.284633
vt 0.375000 0.750000
vt 0.375000 0.750000
vt 0.375000 0.750000
vt 0.375000 0.500000
vt 0.103480 0.368710
vt 0.437500 0.750000
vt 0.625000 0.500000
vt 0.625000 0.500000
vt 0.375000 0.750000
vt 0.625000 0.750000
vt 0.625000 0.750000
vt 0.625000 0.750000
vt 0.625000 0.750000
vt 0.375000 0.750000
vt 0.048164 0.180534
vt 0.625000 0.500000
vt 0.375000 0.500000
vt 0.434614 0.000075
vt 0.552292 0.000075
vt 0.500000 0.500000
vt 0.121050 0.642269
vt 0.375000 0.250000
vt 0.375000 0.250000
vt 0.625000 0.250000
vt 0.625000 0.250000
vt 0.875000 0.500000
vt 0.875000 0.500000
vt 0.375000 0.000000
vt 0.375000 0.000000
vt 0.625000 0.000000
vt 0.625000 0.000000
vt 0.875000 0.750000
vt 0.875000 0.750000
vt 0.875000 0.750000
vt 0.375000 1.000000
vt 0.375000 1.000000
vt 0.625000 0.562500
vt 0.625000 0.625000
vt 0.625000 0.625000
vt 0.625000 0.562500
vt 0.389366 0.396631
vt 0.000094 0.396651
vt 0.000091 0.337177
vt 0.389363 0.337162
vt 0.375000 0.062500
vt 0.375000 0.125000
vt 0.625000 0.125000
vt 0.625000 0.062500
vt 0.628718 0.337155
vt 0.995942 0.277686
vt 0.995943 0.337153
vt 0.349503 0.621724
vt 0.349503 0.671266
vt 0.025235 0.671266
vt 0.025235 0.621724
vt 0.375000 0.062500
vt 0.625000 0.062500
vt 0.625000 0.125000
vt 0.375000 0.125000
vt 0.548920 0.671266
vt 0.874765 0.672623
vt 0.874766 0.736203
vn 0.0016 1.0000 0.0000
vn 0.0012 1.0000 -0.0007
vn 0.0024 1.0000 -0.0015
vn 0.0031 1.0000 0.0000
vn 0.0000 1.0000 0.0000
vn 0.0012 1.0000 0.0007
vn 0.0008 1.0000 0.0014
vn -0.9991 0.0197 -0.0382
vn 0.0000 -0.0000 1.0000
vn 0.0000 0.0000 -1.0000
vn 0.0008 1.0000 -0.0014
vn 0.0017 1.0000 -0.0028
vn 0.0024 1.0000 0.0015
vn 0.0017 1.0000 0.0028
vn 1.0000 0.0000 0.0000
vn 0.8922 0.4516 0.0000
vn 0.2360 -0.0000 0.9718
vn 0.6862 0.1736 0.7064
vn 0.2643 0.0669 -0.9621
vn 0.2337 0.0000 -0.9723
vn 0.6826 0.1727 -0.7101
vn 0.3607 0.0913 0.9282
vn 0.2668 0.0675 0.9614
vn 0.3574 0.0905 -0.9295
vn -0.0239 -0.9997 -0.0000
vn 0.0000 -0.9992 0.0409
vn 0.0000 -1.0000 -0.0000
vn 0.9881 0.0014 0.1537
vn -0.0239 0.0000 -0.9997
vn 0.0000 0.0401 0.9992
vn -0.0170 0.0286 0.9994
vn 0.0000 -0.9991 -0.0413
vn -0.0170 -0.9994 -0.0294
vn 0.0000 0.0401 -0.9992
vn -0.0170 0.0286 -0.9994
vn -0.0170 -0.9994 0.0291
vn -0.0239 0.0000 0.9997
vn -0.8899 -0.0020 -0.4562
vn -0.8922 -0.4516 -0.0000
vn -1.0000 0.0000 0.0000
vn -0.9969 -0.0043 0.0782
vn -0.9968 -0.0026 0.0803
vn -0.9968 -0.0026 0.0804
vn -0.9991 -0.0045 -0.0422
vn -0.9968 -0.0026 -0.0795
vn -0.9967 -0.0008 -0.0816
vn -0.2317 0.0087 -0.9727
vn -0.6886 -0.1656 -0.7060
vn -0.2616 -0.0636 0.9631
vn -0.9966 -0.0008 0.0825
vn -0.8716 -0.4502 0.1940
vn -0.8958 -0.0019 0.4445
vn -0.8019 -0.4141 -0.4306
vn -0.2294 0.0087 0.9733
vn -0.8704 -0.4497 -0.2001
vn -0.8273 -0.4407 0.3483
vn -0.6850 -0.1646 0.7097
vn -0.3622 -0.0561 -0.9304
vn -0.9980 -0.0153 -0.0618
vn -0.9991 -0.0045 0.0430
vn -0.9970 -0.0044 -0.0773
vn -0.2642 -0.0641 -0.9623
vn -0.8065 -0.4166 0.4195
vn -0.8239 -0.4390 -0.3583
vn -0.3589 -0.0554 0.9317
vn -0.9979 -0.0152 0.0626
vn -0.4011 0.9143 -0.0559
vn -0.4011 0.9143 0.0565
vn -0.4516 0.8922 0.0000
vn -0.0447 0.9987 -0.0227
vn -0.0444 0.9988 0.0228
vn -0.1833 0.9748 -0.1273
vn -0.1823 0.9748 0.1287
vn 0.4516 -0.8922 -0.0000
vn -0.7071 0.0000 0.7071
vn -0.6911 -0.7227 -0.0029
vn 0.4893 0.1274 -0.8628
vn 0.5248 0.1366 0.8402
vn -0.6910 -0.7228 0.0029
vn -0.7071 0.0000 -0.7071
vn 0.9986 -0.0525 -0.0000
vn -0.9993 0.0367 0.0000
vn -0.9991 0.0200 0.0387
vn 0.9881 -0.0028 -0.1540
usemtl None
s 1
f 1/1/1 2/2/2 3/3/3 4/4/4
f 5/5/5 6/6/6 7/7/7 8/8/5
f 9/9/5 10/10/1 6/6/6 5/5/5
f 11/11/8 4/12/8 3/13/8 12/14/8
f 13/15/9 14/16/9 15/17/9 16/18/9
f 9/9/5 5/5/5 17/19/5 18/20/5
f 19/21/10 20/22/10 21/23/10 22/24/10
f 23/25/10 24/26/10 25/27/10 19/21/10
f 24/26/10 23/25/10 26/28/10 27/29/10
f 19/21/10 25/27/10 28/30/10 20/22/10
f 29/31/5 30/32/5 28/33/5 25/34/5
f 2/2/2 29/31/5 25/34/5 24/35/11
f 3/3/3 2/2/2 24/35/11 27/36/12
f 23/25/10 19/21/10 22/24/10 31/37/10
f 8/38/9 32/39/9 33/40/9 34/41/9
f 32/39/9 8/38/9 7/42/9 13/15/9
f 13/15/9 7/42/9 35/43/9 14/16/9
f 17/19/5 5/5/5 8/8/5 34/44/5
f 32/39/9 13/15/9 16/18/9 36/45/9
f 6/6/6 37/46/13 35/47/14 7/7/7
f 26/28/10 23/25/10 31/37/10 38/48/10
f 33/40/9 32/39/9 36/45/9 39/49/9
f 40/50/15 41/51/15 42/52/15 43/53/15
f 44/54/16 45/55/16 46/56/16 47/57/16
f 48/58/15 49/59/15 50/60/15 51/61/15
f 52/62/15 53/63/15 54/64/15 55/65/15
f 56/66/15 57/67/15 58/68/15 59/69/15
f 60/70/15 61/71/15 53/63/15 52/62/15
f 54/64/15 53/63/15 62/72/15 63/73/15
f 64/74/15 65/75/15 57/67/15 56/66/15
f 66/76/15 48/58/15 51/61/15 67/77/15
f 68/78/17 66/76/17 67/77/17 69/79/17
f 70/80/18 71/81/18 65/75/18 64/74/18
f 72/82/19 40/83/19 61/84/19 60/85/19
f 53/63/15 61/71/15 73/86/15 62/72/15
f 47/57/16 46/56/16 71/81/16 70/80/16
f 74/87/15 68/78/15 69/79/15 75/88/15
f 76/89/16 41/51/16 40/50/16 72/90/16
f 61/84/20 40/83/20 43/91/20 73/92/20
f 45/55/16 44/54/16 77/93/16 78/94/16
f 79/95/16 47/57/16 70/80/16 80/96/16
f 78/94/21 77/93/21 81/97/21 82/98/21
f 80/96/22 70/80/22 64/74/22 83/99/22
f 83/99/15 64/74/15 56/66/15 84/100/15
f 82/98/15 81/97/15 85/101/15 86/102/15
f 84/100/15 56/66/15 59/69/15 87/103/15
f 86/102/15 85/101/15 88/104/15 89/105/15
f 76/89/16 44/54/16 47/57/16 79/95/16
f 48/58/15 84/100/15 87/103/15 49/59/15
f 66/76/15 83/99/15 84/100/15 48/58/15
f 68/78/23 80/96/23 83/99/23 66/76/23
f 74/87/16 79/95/16 80/96/16 68/78/16
f 44/54/16 76/89/16 72/90/16 77/93/16
f 77/93/24 72/90/24 60/70/24 81/97/24
f 81/97/15 60/70/15 52/62/15 85/101/15
f 85/101/15 52/62/15 55/65/15 88/104/15
f 90/106/25 91/107/25 92/108/25 93/109/25
f 94/110/26 95/111/26 96/112/26 97/113/26
f 98/114/27 94/110/27 97/113/27 99/115/27
f 100/116/28 101/117/28 92/118/28 91/119/28
f 102/120/29 103/121/29 104/122/29 105/123/29
f 98/114/27 106/124/27 107/125/27 94/110/27
f 108/126/9 109/127/9 110/128/9 111/129/9
f 112/130/30 108/126/30 113/131/30 114/132/30
f 114/132/31 115/133/31 116/134/31 112/130/31
f 108/126/30 111/129/30 117/135/30 113/131/30
f 118/136/32 113/137/32 117/138/32 119/139/32
f 93/109/32 114/140/32 113/137/32 118/136/32
f 92/108/33 115/141/33 114/140/33 93/109/33
f 112/130/9 120/142/9 109/127/9 108/126/9
f 95/143/34 121/144/34 122/145/34 123/146/34
f 123/146/34 102/120/34 96/147/34 95/143/34
f 102/120/35 105/123/35 124/148/35 96/147/35
f 107/125/26 121/149/26 95/111/26 94/110/26
f 123/146/10 125/150/10 103/121/10 102/120/10
f 97/113/36 96/112/36 124/151/36 126/152/36
f 116/134/37 127/153/37 120/142/37 112/130/37
f 122/145/10 128/154/10 125/150/10 123/146/10
f 129/155/38 130/156/38 131/157/38 132/158/38
f 133/159/39 134/160/39 135/161/39 136/162/39
f 137/163/40 138/164/40 139/165/40 140/166/40
f 141/167/40 142/168/40 143/169/40 144/170/40
f 145/171/40 146/172/40 147/173/40 148/174/40
f 149/175/41 141/167/41 144/170/42 150/176/43
f 143/169/40 151/177/40 152/178/40 144/170/40
f 153/179/44 145/180/44 148/181/44 154/182/44
f 155/183/45 156/184/46 138/164/46 137/163/45
f 157/185/47 158/186/47 156/184/47 155/183/47
f 159/187/48 153/179/48 154/182/48 160/188/48
f 161/189/49 149/175/49 150/176/49 129/155/49
f 144/170/42 152/178/50 162/190/50 150/176/43
f 134/160/51 159/187/51 160/188/51 135/161/51
f 163/191/52 164/192/52 158/186/52 157/185/52
f 165/193/53 161/189/53 129/155/53 132/158/53
f 150/194/54 162/195/54 130/196/54 129/197/54
f 136/162/55 166/198/55 167/199/55 133/159/55
f 168/200/56 169/201/56 159/187/56 134/160/56
f 166/198/57 170/202/57 171/203/57 167/199/57
f 169/201/58 172/204/58 153/179/58 159/187/58
f 172/204/59 173/205/59 145/180/59 153/179/59
f 170/202/60 174/206/60 175/207/60 171/203/60
f 173/205/40 176/208/40 146/209/40 145/180/40
f 174/206/40 177/210/40 178/211/40 175/207/40
f 165/193/39 168/200/39 134/160/39 133/159/39
f 137/212/40 140/213/40 176/214/40 173/215/40
f 155/183/45 137/163/45 173/205/61 172/204/61
f 157/185/62 155/183/62 172/204/62 169/201/62
f 163/191/63 157/185/63 169/201/63 168/200/63
f 133/159/64 167/199/64 161/189/64 165/193/64
f 167/199/65 171/203/65 149/175/65 161/189/65
f 171/203/66 175/207/66 141/167/66 149/175/66
f 175/207/40 178/211/40 142/168/40 141/167/40
f 33/216/15 39/217/15 128/218/15 122/219/15
f 21/220/15 20/221/15 111/222/15 110/223/15
f 18/224/15 17/225/15 107/226/15 106/227/15
f 20/221/15 28/228/15 117/229/15 111/222/15
f 28/230/15 30/231/15 119/232/15 117/233/15
f 34/234/15 33/216/15 122/219/15 121/235/15
f 17/225/15 34/236/15 121/237/15 107/226/15
f 31/238/27 22/239/27 109/240/27 120/241/27
f 38/242/27 31/238/27 120/241/27 127/243/27
f 22/239/27 21/244/27 110/245/27 109/240/27
f 36/246/27 16/247/27 103/248/27 125/249/27
f 16/247/27 15/250/27 104/251/27 103/248/27
f 39/252/27 36/246/27 125/249/27 128/253/27
f 63/73/27 62/72/27 152/254/27 151/255/27
f 51/256/27 50/257/27 139/165/27 138/164/27
f 43/258/27 42/259/27 131/157/27 130/156/27
f 71/260/67 46/261/67 135/161/67 160/188/67
f 49/262/9 87/263/9 176/214/9 140/213/9
f 45/264/68 78/265/68 166/198/68 136/162/68
f 55/266/10 54/267/10 143/169/10 142/168/10
f 42/52/9 41/51/9 132/268/9 131/269/9
f 74/270/10 75/271/10 164/192/10 163/191/10
f 50/257/9 49/272/9 140/166/9 139/165/9
f 54/267/10 63/273/10 151/177/10 143/169/10
f 41/51/9 76/89/9 165/274/9 132/268/9
f 46/261/69 45/264/69 136/162/69 135/161/69
f 79/275/10 74/270/10 163/191/10 168/200/10
f 86/276/5 89/277/5 177/210/5 174/206/5
f 67/278/27 51/256/27 138/164/27 156/184/27
f 58/279/5 57/280/5 148/181/5 147/281/5
f 57/280/70 65/282/70 154/182/70 148/181/70
f 69/283/27 67/278/27 156/184/27 158/186/27
f 62/72/27 73/86/27 162/284/27 152/254/27
f 82/285/71 86/276/71 174/206/71 170/202/71
f 65/282/72 71/260/72 160/188/72 154/182/72
f 75/271/27 69/283/27 158/186/27 164/192/27
f 73/286/27 43/258/27 130/156/27 162/190/27
f 78/265/73 82/285/73 170/202/73 166/198/73
f 59/287/9 58/288/9 147/173/9 146/172/9
f 89/277/10 88/289/10 178/211/10 177/210/10
f 87/263/9 59/287/9 146/172/9 176/214/9
f 88/289/10 55/266/10 142/168/10 178/211/10
f 76/89/74 79/95/74 168/290/74 165/274/74
f 127/243/75 116/291/75 26/292/75 38/242/75
f 27/293/75 26/292/75 116/291/75 115/294/75
f 115/294/76 92/295/76 3/296/76 27/293/76
f 101/117/77 12/14/77 3/13/77 92/295/77
f 179/297/78 180/298/78 126/299/78 37/300/78
f 35/301/79 37/300/79 126/302/79 124/303/79
f 104/251/80 15/250/80 14/304/80 105/305/80
f 124/303/80 105/305/80 14/304/80 35/301/80
f 181/306/15 182/307/15 183/308/15 184/309/15
f 185/310/27 184/311/27 183/312/27 186/313/27
f 187/314/81 188/315/81 189/316/81 190/317/81
f 185/310/27 186/313/27 191/318/27 90/106/27
f 99/115/25 190/319/25 189/320/25 191/318/25
f 192/321/5 193/322/5 182/323/5 181/324/5
f 194/325/82 195/326/82 196/327/82 197/328/82
f 192/321/5 1/1/1 198/329/1 193/322/5
f 10/10/1 198/329/1 196/330/4 195/331/4
f 29/31/5 2/2/2 1/1/1 192/321/5
f 29/31/5 192/321/5 181/324/5 30/32/5
f 118/136/27 185/310/27 90/106/27 93/109/27
f 118/136/27 119/139/27 184/311/27 185/310/27
f 30/231/15 181/306/15 184/309/15 119/232/15
f 188/315/81 100/116/81 91/119/81 189/316/81
f 191/318/25 189/320/25 91/107/25 90/106/25
f 197/328/82 196/327/82 4/12/82 11/11/82
f 198/329/1 1/1/1 4/4/4 196/330/4
f 6/6/6 10/10/1 195/331/4 37/46/13
f 179/297/83 37/300/83 195/326/83 194/325/83
f 97/113/25 126/152/25 190/319/25 99/115/25
f 180/298/84 187/314/84 190/317/84 126/299/84
f 182/307/15 18/224/15 106/227/15 183/308/15
f 186/313/27 183/312/27 106/124/27 98/114/27
f 186/313/27 98/114/27 99/115/27 191/318/27
f 193/322/5 9/9/5 18/20/5 182/323/5
f 193/322/5 198/329/1 10/10/1 9/9/5
