# Blender v2.90.1 OBJ File: ''
# www.blender.org
mtllib Course2.mtl
o Cube.001
v -7.358405 0.397547 -7.990403
v -7.983221 0.397547 -7.990403
v -7.983221 0.825482 -7.990403
v -7.358405 0.825482 -7.990403
v -7.358405 -0.020770 7.974082
v -7.358405 0.397545 7.974082
v -7.983221 0.397545 7.974082
v -7.983221 -0.020770 7.974082
v -7.983221 -0.020768 -7.368647
v -7.983221 0.397547 -7.368647
v -7.983221 -0.020768 -7.990403
v 7.358405 -0.020770 7.352326
v 7.983221 -0.020770 7.352326
v 7.983221 -0.020770 7.974082
v 7.358405 -0.020770 7.974082
v 7.983221 0.397545 7.352326
v 7.983221 0.397545 7.974082
v 7.358405 -0.020768 -7.990403
v 7.358405 0.397547 -7.990403
v 7.983221 0.397547 -7.990403
v 7.983221 -0.020768 -7.990403
v -7.358405 0.825480 7.352326
v -7.983221 0.825480 7.352326
v -7.983221 0.825480 7.974082
v -7.358405 0.825480 7.974082
v 7.358405 0.397545 7.974082
v 7.983221 0.825480 7.974082
v 7.358405 0.825480 7.974082
v -7.983221 0.397545 7.352326
v 7.983221 0.397547 -7.368647
v 7.983221 0.825482 -7.990403
v 7.983221 0.825482 -7.368647
v 7.983221 0.397546 2.478862
v 7.983221 0.397546 -0.008161
v 7.983221 0.825481 -0.008161
v 7.983221 0.825481 2.478862
v -7.983221 0.397546 -2.495183
v -7.983221 0.397546 -0.008160
v -7.983221 0.825481 -0.008160
v -7.983221 0.825481 -2.495183
v -7.358405 0.825481 -2.495183
v -7.358405 0.825481 -0.008160
v 7.983221 -0.020769 -2.495183
v 7.983221 0.397546 -2.495183
v 7.983221 -0.020769 -0.008160
v 7.358405 -0.020769 -2.495183
v 7.358405 -0.020769 -0.008160
v -7.983221 -0.020769 2.478862
v -7.983221 0.397546 2.478862
v -7.983221 -0.020769 -0.008161
v -2.499263 -0.020769 -2.495183
v 0.000000 -0.020769 -2.495183
v 0.000000 -0.020769 -0.008160
v -2.499263 -0.020769 -0.008160
v -2.499263 0.397545 7.974082
v 0.000000 0.397545 7.974082
v 0.000000 0.825480 7.974082
v -2.499263 0.825480 7.974082
v 2.499263 0.825480 7.352326
v 0.000000 0.825480 7.352326
v 2.499263 0.825480 7.974082
v -2.499263 -0.020768 -7.990403
v -2.499263 0.397547 -7.990403
v 0.000000 0.397547 -7.990403
v 0.000000 -0.020768 -7.990403
v -2.499263 -0.020770 7.352326
v 0.000000 -0.020770 7.352326
v 0.000000 -0.020770 7.974082
v -2.499263 -0.020770 7.974082
v 2.499263 -0.020770 7.974082
v 2.499263 0.397545 7.974082
v 2.499263 0.397547 -7.990403
v 0.000000 0.825482 -7.990403
v 2.499263 0.825482 -7.990403
v -3.748894 -0.020770 7.352326
v -3.748894 -0.020770 7.974082
v -3.748894 -0.020768 -7.990403
v -3.748894 0.397547 -7.990403
v -3.748894 0.397545 7.974082
v -3.748894 0.825480 7.974082
v -3.748894 -0.020769 -2.495183
v -3.748894 -0.020769 -0.008161
v -2.499263 0.825480 7.352326
v -2.499263 0.825482 -7.990403
v 3.748894 0.397547 -7.990403
v 3.748894 0.825482 -7.990403
v 3.748894 -0.020770 7.974082
v 3.748894 0.397545 7.974082
v 3.748894 0.825480 7.352326
v 3.748894 0.825480 7.974082
v 2.499263 -0.020769 -2.495183
v 2.499263 -0.020769 -0.008160
v 2.499263 -0.020768 -7.990403
v 2.499263 -0.020770 7.352326
v 2.499263 -0.020769 2.478862
v 0.000000 -0.020769 2.478862
v -2.499263 -0.020769 2.478862
v -3.748894 -0.020769 2.478862
v -7.983221 -0.020770 3.722373
v -7.983221 0.397545 3.722373
v 7.983221 0.397545 3.722373
v 7.983221 0.825480 3.722373
v -7.983221 0.825481 2.478862
v -7.358405 0.825481 2.478862
v 7.983221 -0.020769 2.478862
v 7.358405 -0.020769 2.478862
v 0.000000 -0.020768 -3.738694
v 2.499263 -0.020768 -3.738694
v -3.748894 -0.020768 -3.738694
v -2.499263 -0.020768 -3.738694
v 7.358405 -0.020768 -3.738694
v 7.983221 -0.020768 -3.738694
v 7.983221 0.397547 -3.738694
v -7.358405 0.825482 -3.738694
v -7.983221 0.825482 -3.738694
v -7.983221 0.397547 -3.738694
v 7.983221 0.825481 -2.495183
v -7.983221 -0.020769 -2.495183
v -7.983221 0.825482 -7.368647
v -7.358405 0.825482 -7.368647
v 7.983221 -0.020768 -7.368647
v 7.358405 -0.020768 -7.368647
v -2.499263 -0.020768 -7.368647
v 0.000000 -0.020768 -7.368647
v -3.748894 -0.020768 -7.368647
v 2.499263 -0.020768 -7.368647
v 7.983221 0.825482 -3.738694
v -7.983221 -0.020768 -3.738694
v -7.358405 -0.020768 -7.368647
v -7.358405 -0.020768 -3.738694
v -7.358405 -0.020769 -2.495183
v -7.358405 -0.020769 -0.008161
v -7.358405 -0.020769 2.478862
v -7.358405 -0.020768 -7.990403
v -7.358405 -0.020770 7.352326
v -3.748894 0.825480 7.352326
v -3.748894 0.825482 -7.990403
v 3.748894 -0.020768 -7.368647
v 3.748894 -0.020768 -3.738694
v 3.748894 -0.020769 -2.495183
v 3.748894 -0.020769 -0.008160
v 3.748894 -0.020769 2.478862
v 7.358405 0.825480 7.352326
v 7.358405 0.825482 -7.990403
v 3.748894 -0.020768 -7.990403
v 3.748894 -0.020770 7.352326
v 3.748894 -0.020770 3.722373
v 2.499263 -0.020770 3.722373
v -3.748894 -0.020770 3.722373
v -7.358405 -0.020770 3.722373
v 7.983221 0.825480 7.352326
v -7.983221 -0.020770 7.352326
v 0.000000 -0.020770 3.722373
v -2.499263 -0.020770 3.722373
v -7.983221 0.825480 3.722373
v -7.358405 0.825480 3.722373
v 7.983221 -0.020770 3.722373
v 7.358405 -0.020770 3.722373
v 7.358405 0.825480 3.722373
v 7.358405 0.825481 2.478862
v 7.358405 0.825481 -2.495183
v 7.358405 0.825481 -0.008161
v 7.358405 0.825482 -3.738694
v 7.358405 0.825482 -7.368647
v -3.748894 0.825482 -7.368647
v 3.748894 0.825482 -7.368647
v -2.499263 0.825482 -7.368647
v 2.499263 0.825482 -7.368647
v 0.000000 0.825482 -7.368647
vt 0.641701 0.026244
vt 0.676526 0.026455
vt 0.671506 0.044546
vt 0.643868 0.050568
vt 0.729725 0.999905
vt 0.725418 0.975719
vt 0.757028 0.966190
vt 0.770584 0.987570
vt 0.729980 0.027499
vt 0.709502 0.049191
vt 0.685930 0.000388
vt 0.359375 0.734375
vt 0.375000 0.734375
vt 0.375000 0.750000
vt 0.359375 0.750000
vt 0.003536 0.885329
vt 0.020678 0.880725
vt 0.029837 0.902290
vt 0.015121 0.914917
vt 0.070470 0.149855
vt 0.079373 0.168066
vt 0.055588 0.183654
vt 0.038163 0.167931
vt 0.039034 0.960775
vt 0.039034 0.999900
vt 0.000100 0.999900
vt 0.000100 0.960775
vt 0.053761 0.914185
vt 0.037202 0.893067
vt 0.059118 0.895453
vt 0.778260 0.939923
vt 0.746091 0.953221
vt 0.757871 0.928746
vt 0.042380 0.215530
vt 0.068777 0.191359
vt 0.066732 0.220930
vt 0.024858 0.701939
vt 0.027148 0.629599
vt 0.041038 0.630465
vt 0.038396 0.701809
vt 0.829899 0.340390
vt 0.837511 0.501914
vt 0.809881 0.502644
vt 0.802616 0.344047
vt 0.655673 0.960774
vt 0.655673 0.999900
vt 0.499939 0.999900
vt 0.499939 0.960775
vt 0.009523 0.536623
vt 0.027732 0.535763
vt 0.013628 0.629481
vt 0.359375 0.562500
vt 0.375000 0.562500
vt 0.375000 0.625000
vt 0.359375 0.625000
vt 0.864780 0.662126
vt 0.838193 0.660881
vt 0.864780 0.501242
vt 0.187500 0.562500
vt 0.250000 0.562500
vt 0.250000 0.625000
vt 0.187500 0.625000
vt 0.473833 0.954535
vt 0.385753 0.945952
vt 0.387190 0.930858
vt 0.474759 0.937376
vt 0.039034 0.343499
vt 0.039034 0.500000
vt 0.000100 0.500000
vt 0.000100 0.343499
vt 0.398916 0.076613
vt 0.403043 0.089464
vt 0.335952 0.106822
vt 0.333124 0.095779
vt 0.187500 0.734375
vt 0.250000 0.734375
vt 0.250000 0.750000
vt 0.187500 0.750000
vt 0.296860 0.954985
vt 0.297813 0.938419
vt 0.384438 0.960688
vt 0.270633 0.122374
vt 0.338709 0.118186
vt 0.274126 0.134927
vt 0.156250 0.734375
vt 0.156250 0.750000
vt 0.446339 0.055517
vt 0.452275 0.073592
vt 0.531659 0.961989
vt 0.533628 0.941135
vt 0.156250 0.562500
vt 0.156250 0.625000
vt 0.039034 0.656501
vt 0.000100 0.656501
vt 0.471615 0.971059
vt 0.406085 0.103205
vt 0.227424 0.130940
vt 0.231076 0.146550
vt 0.238577 0.955724
vt 0.239786 0.935318
vt 0.039034 0.265249
vt 0.000100 0.265249
vt 0.312500 0.562500
vt 0.312500 0.625000
vt 0.299943 0.921296
vt 0.268221 0.109978
vt 0.383020 0.982475
vt 0.295442 0.976773
vt 0.312500 0.687500
vt 0.250000 0.687500
vt 0.187500 0.687500
vt 0.156250 0.687500
vt 0.857147 0.741164
vt 0.831935 0.737034
vt 0.022961 0.744660
vt 0.038218 0.745099
vt 0.811596 0.659888
vt 0.344205 0.999900
vt 0.344204 0.960775
vt 0.011653 0.701431
vt 0.375000 0.687500
vt 0.359375 0.687500
vt 0.250000 0.531250
vt 0.312500 0.531250
vt 0.156250 0.531250
vt 0.187500 0.531250
vt 0.359375 0.531250
vt 0.375000 0.531250
vt 0.000095 0.468156
vt 0.025191 0.467870
vt 0.733541 0.960774
vt 0.733541 0.999900
vt 0.813044 0.261004
vt 0.787212 0.269689
vt 0.046606 0.536388
vt 0.857530 0.336689
vt 0.688470 0.068855
vt 0.960844 0.960774
vt 0.960844 0.999900
vt 0.014753 0.206697
vt 0.359375 0.515625
vt 0.375000 0.515625
vt 0.187500 0.515625
vt 0.250000 0.515625
vt 0.156250 0.515625
vt 0.312500 0.515625
vt 0.050067 0.469024
vt 0.840105 0.252055
vt 0.140625 0.515625
vt 0.140625 0.531250
vt 0.140625 0.562500
vt 0.140625 0.625000
vt 0.140625 0.687500
vt 0.723398 0.951855
vt 0.640137 0.000095
vt 0.140625 0.734375
vt 0.140625 0.750000
vt 0.039034 0.734752
vt 0.000100 0.734751
vt 0.529163 0.982633
vt 0.457071 0.092018
vt 0.343750 0.515625
vt 0.343750 0.531250
vt 0.343750 0.562500
vt 0.343750 0.625000
vt 0.343750 0.687500
vt 0.039034 0.039225
vt 0.000100 0.039225
vt 0.045387 0.935288
vt 0.087125 0.186403
vt 0.241631 0.914836
vt 0.224305 0.115343
vt 0.312500 0.734375
vt 0.343750 0.734375
vt 0.343750 0.750000
vt 0.312500 0.750000
vt 0.343750 0.718750
vt 0.312500 0.718750
vt 0.156250 0.718750
vt 0.140625 0.718750
vt 0.037301 0.878077
vt 0.801037 0.954462
vt 0.250000 0.718750
vt 0.187500 0.718750
vt 0.806888 0.733300
vt 0.266337 0.999900
vt 0.266337 0.960775
vt 0.007905 0.743984
vt 0.375000 0.718750
vt 0.359375 0.718750
vt 0.125000 0.718750
vt 0.125000 0.734375
vt 0.125000 0.687500
vt 0.125000 0.750000
vt 0.125000 0.562500
vt 0.125000 0.625000
vt 0.905199 0.501242
vt 0.905199 0.662126
vt 0.882630 0.243299
vt 0.900055 0.327933
vt 0.125000 0.515625
vt 0.125000 0.531250
vt 0.266337 0.000100
vt 0.266337 0.039225
vt 0.039034 0.000100
vt 0.344204 0.000100
vt 0.344204 0.039225
vt 0.000100 0.000100
vt 0.655673 0.000100
vt 0.655673 0.039225
vt 0.499939 0.039225
vt 0.499939 0.000100
vt 0.733541 0.000100
vt 0.733541 0.039225
vt 0.960844 0.000100
vt 0.960844 0.039225
vt 0.235056 0.989002
vt 0.041866 0.968566
vt 0.343750 0.500000
vt 0.359375 0.500000
vt 0.999778 0.000100
vt 0.999778 0.039225
vt 0.999778 0.734751
vt 0.999778 0.960774
vt 0.960844 0.734751
vt 0.125000 0.500000
vt 0.140625 0.500000
vt 0.312500 0.500000
vt 0.999778 0.265249
vt 0.960844 0.265249
vt 0.999778 0.656501
vt 0.960844 0.656501
vt 0.156250 0.500000
vt 0.250000 0.500000
vt 0.999778 0.343499
vt 0.960844 0.343499
vt 0.999777 0.500000
vt 0.960844 0.500000
vt 0.187500 0.500000
vt 0.375000 0.500000
vt 0.999778 0.999900
vt 0.000000 0.000000
vt 0.000000 0.000000
vt 0.000000 0.000000
vt 0.000000 0.000000
vt 0.000000 0.000000
vt 0.000000 0.000000
vt 0.000000 0.000000
vt 0.000000 0.000000
vt 0.000000 0.000000
vt 0.000000 0.000000
vt 0.000000 0.000000
vt 0.000000 0.000000
vn 0.0000 0.0000 -1.0000
vn 0.0000 0.0000 1.0000
vn -1.0000 0.0000 0.0000
vn 0.0000 -1.0000 -0.0000
vn 1.0000 0.0000 0.0000
vn 0.0000 1.0000 0.0000
usemtl Material.001
s 1
f 1/1/1 2/2/1 3/3/1 4/4/1
f 5/5/2 6/6/2 7/7/2 8/8/2
f 9/9/3 10/10/3 2/2/3 11/11/3
f 12/12/4 13/13/4 14/14/4 15/15/4
f 13/16/5 16/17/5 17/18/5 14/19/5
f 18/20/1 19/21/1 20/22/1 21/23/1
f 22/24/6 23/25/6 24/26/6 25/27/6
f 26/28/2 17/18/2 27/29/2 28/30/2
f 29/31/3 7/7/3 24/32/3 23/33/3
f 30/34/5 20/22/5 31/35/5 32/36/5
f 33/37/5 34/38/5 35/39/5 36/40/5
f 37/41/3 38/42/3 39/43/3 40/44/3
f 41/45/6 40/46/6 39/47/6 42/48/6
f 43/49/5 44/50/5 34/38/5 45/51/5
f 46/52/4 43/53/4 45/54/4 47/55/4
f 48/56/3 49/57/3 38/42/3 50/58/3
f 51/59/4 52/60/4 53/61/4 54/62/4
f 55/63/2 56/64/2 57/65/2 58/66/2
f 59/67/6 60/68/6 57/69/6 61/70/6
f 62/71/1 63/72/1 64/73/1 65/74/1
f 66/75/4 67/76/4 68/77/4 69/78/4
f 70/79/2 71/80/2 56/64/2 68/81/2
f 72/82/1 64/73/1 73/83/1 74/84/1
f 75/85/4 66/75/4 69/78/4 76/86/4
f 77/87/1 78/88/1 63/72/1 62/71/1
f 79/89/2 55/63/2 58/66/2 80/90/2
f 81/91/4 51/59/4 54/62/4 82/92/4
f 60/68/6 83/93/6 58/94/6 57/69/6
f 68/81/2 56/64/2 55/63/2 69/95/2
f 64/73/1 63/72/1 84/96/1 73/83/1
f 85/97/1 72/82/1 74/84/1 86/98/1
f 87/99/2 88/100/2 71/80/2 70/79/2
f 89/101/6 59/67/6 61/70/6 90/102/6
f 52/60/4 91/103/4 92/104/4 53/61/4
f 56/64/2 71/80/2 61/105/2 57/65/2
f 65/74/1 64/73/1 72/82/1 93/106/1
f 67/107/4 94/108/4 70/79/4 68/81/4
f 53/61/4 92/104/4 95/109/4 96/110/4
f 82/92/4 54/62/4 97/111/4 98/112/4
f 54/62/4 53/61/4 96/110/4 97/111/4
f 99/113/3 100/114/3 49/57/3 48/56/3
f 101/115/5 33/37/5 36/40/5 102/116/5
f 38/42/3 49/57/3 103/117/3 39/43/3
f 42/48/6 39/47/6 103/118/6 104/119/6
f 45/51/5 34/38/5 33/37/5 105/120/5
f 47/55/4 45/54/4 105/121/4 106/122/4
f 107/123/4 108/124/4 91/103/4 52/60/4
f 109/125/4 110/126/4 51/59/4 81/91/4
f 110/126/4 107/123/4 52/60/4 51/59/4
f 111/127/4 112/128/4 43/53/4 46/52/4
f 112/129/5 113/130/5 44/50/5 43/49/5
f 114/131/6 115/132/6 40/46/6 41/45/6
f 116/133/3 37/41/3 40/44/3 115/134/3
f 34/38/5 44/50/5 117/135/5 35/39/5
f 50/58/3 38/42/3 37/41/3 118/136/3
f 10/10/3 116/133/3 115/134/3 119/137/3
f 120/138/6 119/139/6 115/132/6 114/131/6
f 121/140/5 30/34/5 113/130/5 112/129/5
f 122/141/4 121/142/4 112/128/4 111/127/4
f 123/143/4 124/144/4 107/123/4 110/126/4
f 125/145/4 123/143/4 110/126/4 109/125/4
f 124/144/4 126/146/4 108/124/4 107/123/4
f 44/50/5 113/130/5 127/147/5 117/135/5
f 118/136/3 37/41/3 116/133/3 128/148/3
f 129/149/4 125/145/4 109/125/4 130/150/4
f 130/150/4 109/125/4 81/91/4 131/151/4
f 132/152/4 82/92/4 98/112/4 133/153/4
f 131/151/4 81/91/4 82/92/4 132/152/4
f 6/6/2 79/89/2 80/90/2 25/154/2
f 134/155/1 1/1/1 78/88/1 77/87/1
f 135/156/4 75/85/4 76/86/4 5/157/4
f 83/93/6 136/158/6 80/159/6 58/94/6
f 69/95/2 55/63/2 79/89/2 76/160/2
f 63/72/1 78/88/1 137/161/1 84/96/1
f 126/146/4 138/162/4 139/163/4 108/124/4
f 108/124/4 139/163/4 140/164/4 91/103/4
f 92/104/4 141/165/4 142/166/4 95/109/4
f 143/167/6 89/101/6 90/102/6 28/168/6
f 15/169/2 26/28/2 88/100/2 87/99/2
f 19/21/1 85/97/1 86/98/1 144/170/1
f 91/103/4 140/164/4 141/165/4 92/104/4
f 71/80/2 88/100/2 90/171/2 61/105/2
f 93/106/1 72/82/1 85/97/1 145/172/1
f 94/173/4 146/174/4 87/175/4 70/176/4
f 95/109/4 142/166/4 147/177/4 148/178/4
f 133/153/4 98/112/4 149/179/4 150/180/4
f 16/17/5 101/115/5 102/116/5 151/181/5
f 152/182/3 29/31/3 100/114/3 99/113/3
f 96/110/4 95/109/4 148/178/4 153/183/4
f 98/112/4 97/111/4 154/184/4 149/179/4
f 97/111/4 96/110/4 153/183/4 154/184/4
f 49/57/3 100/114/3 155/185/3 103/117/3
f 104/119/6 103/118/6 155/186/6 156/187/6
f 105/120/5 33/37/5 101/115/5 157/188/5
f 106/122/4 105/121/4 157/189/4 158/190/4
f 8/8/3 7/7/3 29/31/3 152/182/3
f 17/18/5 16/17/5 151/181/5 27/29/5
f 148/178/4 147/177/4 146/174/4 94/173/4
f 150/180/4 149/179/4 75/85/4 135/156/4
f 153/183/4 148/178/4 94/173/4 67/76/4
f 149/179/4 154/184/4 66/75/4 75/85/4
f 154/184/4 153/183/4 67/76/4 66/75/4
f 100/114/3 29/31/3 23/33/3 155/185/3
f 156/187/6 155/186/6 23/25/6 22/24/6
f 157/188/5 101/115/5 16/17/5 13/16/5
f 158/190/4 157/189/4 13/13/4 12/12/4
f 99/191/4 150/180/4 135/156/4 152/192/4
f 48/193/4 133/153/4 150/180/4 99/191/4
f 152/192/4 135/156/4 5/157/4 8/194/4
f 11/11/1 2/2/1 1/1/1 134/155/1
f 7/7/2 6/6/2 25/154/2 24/32/2
f 118/195/4 131/151/4 132/152/4 50/196/4
f 50/58/4 132/197/4 133/198/4 48/56/4
f 128/148/4 130/199/4 131/200/4 118/136/4
f 9/201/4 129/149/4 130/150/4 128/202/4
f 136/158/6 22/24/6 25/27/6 80/159/6
f 76/160/2 79/89/2 6/6/2 5/5/2
f 78/88/1 1/1/1 4/4/1 137/161/1
f 147/177/4 158/190/4 12/12/4 146/174/4
f 102/203/6 159/204/6 143/167/6 151/205/6
f 142/166/4 106/122/4 158/190/4 147/177/4
f 36/206/6 160/207/6 159/204/6 102/203/6
f 20/22/1 19/21/1 144/170/1 31/35/1
f 14/19/2 17/18/2 26/28/2 15/169/2
f 151/205/6 143/167/6 28/168/6 27/208/6
f 117/209/6 161/210/6 162/211/6 35/212/6
f 35/212/6 162/211/6 160/207/6 36/206/6
f 127/213/6 163/214/6 161/210/6 117/209/6
f 32/215/6 164/216/6 163/214/6 127/213/6
f 138/162/4 122/141/4 111/127/4 139/163/4
f 139/163/4 111/127/4 46/52/4 140/164/4
f 141/165/4 47/55/4 106/122/4 142/166/4
f 140/164/4 46/52/4 47/55/4 141/165/4
f 88/100/2 26/28/2 28/30/2 90/171/2
f 145/172/1 85/97/1 19/21/1 18/20/1
f 146/217/4 12/218/4 15/169/4 87/99/4
f 145/219/4 18/220/4 122/141/4 138/162/4
f 31/221/6 144/222/6 164/216/6 32/215/6
f 137/223/6 4/224/6 120/138/6 165/225/6
f 11/226/4 134/227/4 129/149/4 9/201/4
f 93/228/4 145/219/4 138/162/4 126/146/4
f 144/222/6 86/229/6 166/230/6 164/216/6
f 84/231/6 137/223/6 165/225/6 167/232/6
f 134/227/4 77/233/4 125/145/4 129/149/4
f 65/234/4 93/228/4 126/146/4 124/144/4
f 86/229/6 74/235/6 168/236/6 166/230/6
f 73/237/6 84/231/6 167/232/6 169/238/6
f 77/233/4 62/239/4 123/143/4 125/145/4
f 74/235/6 73/237/6 169/238/6 168/236/6
f 62/239/4 65/234/4 124/144/4 123/143/4
f 18/220/4 21/240/4 121/142/4 122/141/4
f 21/23/5 20/22/5 30/34/5 121/140/5
f 4/224/6 3/241/6 119/139/6 120/138/6
f 2/2/3 10/10/3 119/137/3 3/3/3
f 113/130/5 30/34/5 32/36/5 127/147/5
f 128/148/3 116/133/3 10/10/3 9/9/3
f 12/242/3 143/243/3 164/244/3 122/245/3
f 135/246/1 22/247/1 143/243/1 12/242/1
f 22/247/5 135/246/5 129/248/5 120/249/5
f 164/244/2 120/249/2 129/248/2 122/245/2
f 17/250/6 20/251/6 2/252/6 7/253/6
