# Blender v2.93.4 OBJ File: ''
# www.blender.org
mtllib course.mtl
o Cube
v 7.983221 0.397546 -7.990403
v 7.983221 -0.020769 -7.990403
v 7.983221 0.397546 7.974082
v 7.983221 -0.020769 7.974082
v -7.983221 0.397546 -7.990403
v -7.983221 -0.020769 -7.990403
v -7.983221 0.397546 7.974082
v -7.983221 -0.020769 7.974082
v 7.983221 0.825481 -7.990403
v 7.983221 0.825481 7.974082
v -7.983221 0.825481 -7.990403
v -7.983221 0.825481 7.974082
v -7.983221 -0.020769 -0.008161
v 7.983221 0.397546 -0.008161
v -7.983221 0.397546 -0.008160
v 7.983221 -0.020769 -0.008160
v 7.983221 0.825481 -0.008161
v -7.983221 0.825481 -0.008160
v 0.000000 -0.020769 -7.990403
v 0.000000 0.397546 7.974082
v 0.000000 -0.020769 7.974082
v 0.000000 0.397546 -7.990403
v 0.000000 0.825481 7.974082
v 0.000000 0.825481 -7.990403
v 0.000000 -0.020769 -0.008160
v -2.499263 -0.020769 -7.990403
v -2.499263 0.397546 7.974082
v -2.499263 0.825481 7.974082
v -2.499263 -0.020769 -0.008160
v -2.499263 -0.020769 7.974082
v -2.499263 0.397546 -7.990403
v -2.499263 0.825481 -7.990403
v 2.499263 -0.020769 7.974082
v 2.499263 0.397546 -7.990403
v 2.499263 0.825481 -7.990403
v 2.499263 -0.020769 -7.990403
v 2.499263 0.397546 7.974082
v 2.499263 0.825481 7.974082
v 2.499263 -0.020769 -0.008160
v -7.983221 -0.020769 2.478862
v 7.983221 0.397546 2.478862
v 7.983221 0.825481 2.478862
v -7.983221 0.397546 2.478862
v 7.983221 -0.020769 2.478862
v -7.983221 0.825481 2.478862
v 0.000000 -0.020769 2.478862
v -2.499263 -0.020769 2.478862
v 2.499263 -0.020769 2.478862
v -7.983221 0.397546 -2.495183
v 7.983221 -0.020769 -2.495183
v -7.983221 0.825481 -2.495183
v -7.983221 -0.020769 -2.495183
v 7.983221 0.397546 -2.495183
v 7.983221 0.825481 -2.495183
v 0.000000 -0.020769 -2.495183
v -2.499263 -0.020769 -2.495183
v 2.499263 -0.020769 -2.495183
v -7.983221 0.397546 -3.738694
v 7.983221 -0.020769 -3.738694
v -7.983221 0.825481 -3.738694
v -7.983221 -0.020769 -3.738694
v 7.983221 0.397546 -3.738694
v 7.983221 0.825481 -3.738694
v 0.000000 -0.020769 -3.738694
v -2.499263 -0.020769 -3.738694
v 2.499263 -0.020769 -3.738694
v -3.748894 -0.020769 -7.990403
v -3.748894 0.397546 7.974082
v -3.748894 0.825481 7.974082
v -3.748894 -0.020769 -0.008161
v -3.748894 -0.020769 7.974082
v -3.748894 0.397546 -7.990403
v -3.748894 0.825481 -7.990403
v -3.748894 -0.020769 2.478862
v -3.748894 -0.020769 -2.495183
v -3.748894 -0.020769 -3.738694
v 3.748894 -0.020769 7.974082
v 3.748894 0.397546 -7.990403
v 3.748894 0.825481 -7.990403
v 3.748894 -0.020769 -7.990403
v 3.748894 0.397546 7.974082
v 3.748894 0.825481 7.974082
v 3.748894 -0.020769 -0.008160
v 3.748894 -0.020769 2.478862
v 3.748894 -0.020769 -2.495183
v 3.748894 -0.020769 -3.738694
v -7.983221 -0.020769 3.722373
v 7.983221 0.397546 3.722373
v 7.983221 0.825481 3.722373
v 0.000000 -0.020769 3.722373
v -2.499263 -0.020769 3.722373
v 2.499263 -0.020769 3.722373
v -7.983221 0.397546 3.722373
v 7.983221 -0.020769 3.722373
v -7.983221 0.825481 3.722373
v -3.748894 -0.020769 3.722373
v 3.748894 -0.020769 3.722373
v -7.983221 -0.020769 7.352326
v 7.983221 0.397546 7.352326
v 7.983221 0.825481 7.352326
v 0.000000 0.825481 7.352326
v 0.000000 -0.020769 7.352326
v -2.499263 -0.020769 7.352326
v -2.499263 0.825481 7.352326
v 2.499263 0.825481 7.352326
v 2.499263 -0.020769 7.352326
v -3.748894 -0.020769 7.352326
v -3.748894 0.825481 7.352326
v 3.748894 0.825481 7.352326
v 3.748894 -0.020769 7.352326
v -7.983221 0.397546 7.352326
v 7.983221 -0.020769 7.352326
v -7.983221 0.825481 7.352326
v -7.358405 -0.020769 -7.990403
v -7.358405 0.397546 7.974082
v -7.358405 0.825481 7.974082
v -7.358405 -0.020769 -0.008161
v -7.358405 -0.020769 2.478862
v -7.358405 -0.020769 -2.495183
v -7.358405 -0.020769 -3.738694
v -7.358405 -0.020769 7.974082
v -7.358405 0.397546 -7.990403
v -7.358405 0.825481 -7.990403
v -7.358405 0.825481 -0.008160
v -7.358405 0.825481 2.478862
v -7.358405 0.825481 -2.495183
v -7.358405 0.825481 -3.738694
v -7.358405 -0.020769 3.722373
v -7.358405 0.825481 3.722373
v -7.358405 -0.020769 7.352326
v -7.358405 0.825481 7.352326
v 7.358405 -0.020769 7.974082
v 7.358405 0.397546 -7.990403
v 7.358405 0.825481 -7.990403
v 7.358405 0.825481 -0.008161
v 7.358405 0.825481 2.478862
v 7.358405 0.825481 -2.495183
v 7.358405 0.825481 -3.738694
v 7.358405 -0.020769 -7.990403
v 7.358405 0.397546 7.974082
v 7.358405 0.825481 7.974082
v 7.358405 -0.020769 -0.008160
v 7.358405 -0.020769 2.478862
v 7.358405 -0.020769 -2.495183
v 7.358405 -0.020769 -3.738694
v 7.358405 0.825481 3.722373
v 7.358405 -0.020769 3.722373
v 7.358405 0.825481 7.352326
v 7.358405 -0.020769 7.352326
v -7.983221 0.397546 -7.368647
v 7.983221 -0.020769 -7.368647
v -7.983221 0.825481 -7.368647
v -7.983221 -0.020769 -7.368647
v 7.983221 0.397546 -7.368647
v 7.983221 0.825481 -7.368647
v 0.000000 -0.020769 -7.368647
v 0.000000 0.825481 -7.368647
v -2.499263 -0.020769 -7.368647
v -2.499263 0.825481 -7.368647
v 2.499263 0.825481 -7.368647
v 2.499263 -0.020769 -7.368647
v -3.748894 -0.020769 -7.368647
v -3.748894 0.825481 -7.368647
v 3.748894 0.825481 -7.368647
v 3.748894 -0.020769 -7.368647
v -7.358405 -0.020769 -7.368647
v -7.358405 0.825481 -7.368647
v 7.358405 0.825481 -7.368647
v 7.358405 -0.020769 -7.368647
vt 0.625000 0.265625
vt 0.625000 0.250000
vt 0.625000 0.250000
vt 0.625000 0.265625
vt 0.375000 0.984375
vt 0.625000 0.984375
vt 0.625000 1.000000
vt 0.375000 1.000000
vt 0.375000 0.234375
vt 0.625000 0.234375
vt 0.375000 0.250000
vt 0.359375 0.734375
vt 0.375000 0.734375
vt 0.375000 0.750000
vt 0.359375 0.750000
vt 0.625000 0.734375
vt 0.625000 0.750000
vt 0.375000 0.484375
vt 0.625000 0.484375
vt 0.625000 0.500000
vt 0.375000 0.500000
vt 0.859375 0.734375
vt 0.875000 0.734375
vt 0.875000 0.750000
vt 0.859375 0.750000
vt 0.625000 0.765625
vt 0.625000 0.750000
vt 0.625000 0.765625
vt 0.625000 0.015625
vt 0.625000 0.000000
vt 0.625000 0.000000
vt 0.625000 0.015625
vt 0.625000 0.515625
vt 0.625000 0.500000
vt 0.625000 0.515625
vt 0.625000 0.687500
vt 0.625000 0.625000
vt 0.625000 0.625000
vt 0.625000 0.687500
vt 0.625000 0.187500
vt 0.625000 0.125000
vt 0.625000 0.125000
vt 0.625000 0.187500
vt 0.859375 0.562500
vt 0.875000 0.562500
vt 0.875000 0.625000
vt 0.859375 0.625000
vt 0.375000 0.562500
vt 0.625000 0.562500
vt 0.375000 0.625000
vt 0.359375 0.562500
vt 0.359375 0.625000
vt 0.375000 0.062500
vt 0.625000 0.062500
vt 0.375000 0.125000
vt 0.187500 0.562500
vt 0.250000 0.562500
vt 0.250000 0.625000
vt 0.187500 0.625000
vt 0.625000 0.937500
vt 0.625000 0.875000
vt 0.625000 0.875000
vt 0.625000 0.937500
vt 0.687500 0.734375
vt 0.750000 0.734375
vt 0.750000 0.750000
vt 0.687500 0.750000
vt 0.375000 0.312500
vt 0.625000 0.312500
vt 0.625000 0.375000
vt 0.375000 0.375000
vt 0.187500 0.734375
vt 0.250000 0.734375
vt 0.250000 0.750000
vt 0.187500 0.750000
vt 0.375000 0.812500
vt 0.625000 0.812500
vt 0.375000 0.875000
vt 0.625000 0.437500
vt 0.625000 0.375000
vt 0.625000 0.437500
vt 0.156250 0.734375
vt 0.156250 0.750000
vt 0.375000 0.281250
vt 0.625000 0.281250
vt 0.625000 0.968750
vt 0.625000 0.968750
vt 0.156250 0.562500
vt 0.156250 0.625000
vt 0.812500 0.734375
vt 0.812500 0.750000
vt 0.375000 0.937500
vt 0.625000 0.312500
vt 0.625000 0.468750
vt 0.625000 0.468750
vt 0.375000 0.781250
vt 0.625000 0.781250
vt 0.656250 0.734375
vt 0.656250 0.750000
vt 0.312500 0.562500
vt 0.312500 0.625000
vt 0.625000 0.812500
vt 0.375000 0.437500
vt 0.312500 0.734375
vt 0.312500 0.750000
vt 0.312500 0.687500
vt 0.250000 0.687500
vt 0.187500 0.687500
vt 0.156250 0.687500
vt 0.375000 0.031250
vt 0.625000 0.031250
vt 0.625000 0.718750
vt 0.625000 0.718750
vt 0.625000 0.062500
vt 0.875000 0.687500
vt 0.859375 0.687500
vt 0.375000 0.687500
vt 0.359375 0.687500
vt 0.250000 0.531250
vt 0.312500 0.531250
vt 0.156250 0.531250
vt 0.187500 0.531250
vt 0.359375 0.531250
vt 0.375000 0.531250
vt 0.625000 0.531250
vt 0.859375 0.531250
vt 0.875000 0.531250
vt 0.625000 0.218750
vt 0.625000 0.218750
vt 0.625000 0.562500
vt 0.375000 0.187500
vt 0.625000 0.234375
vt 0.859375 0.515625
vt 0.875000 0.515625
vt 0.375000 0.515625
vt 0.359375 0.515625
vt 0.187500 0.515625
vt 0.250000 0.515625
vt 0.156250 0.515625
vt 0.312500 0.515625
vt 0.625000 0.531250
vt 0.375000 0.218750
vt 0.140625 0.515625
vt 0.140625 0.531250
vt 0.140625 0.562500
vt 0.140625 0.625000
vt 0.140625 0.687500
vt 0.625000 0.984375
vt 0.375000 0.265625
vt 0.140625 0.734375
vt 0.140625 0.750000
vt 0.843750 0.734375
vt 0.843750 0.750000
vt 0.375000 0.968750
vt 0.625000 0.281250
vt 0.343750 0.515625
vt 0.343750 0.531250
vt 0.343750 0.562500
vt 0.343750 0.625000
vt 0.343750 0.687500
vt 0.640625 0.734375
vt 0.640625 0.750000
vt 0.375000 0.765625
vt 0.625000 0.484375
vt 0.625000 0.781250
vt 0.375000 0.468750
vt 0.343750 0.734375
vt 0.343750 0.750000
vt 0.343750 0.718750
vt 0.312500 0.718750
vt 0.156250 0.718750
vt 0.140625 0.718750
vt 0.625000 0.734375
vt 0.375000 0.015625
vt 0.250000 0.718750
vt 0.187500 0.718750
vt 0.625000 0.031250
vt 0.875000 0.718750
vt 0.859375 0.718750
vt 0.375000 0.718750
vt 0.359375 0.718750
vt 0.375000 0.000000
vt 0.125000 0.718750
vt 0.125000 0.734375
vt 0.125000 0.687500
vt 0.125000 0.750000
vt 0.625000 1.000000
vt 0.125000 0.562500
vt 0.125000 0.625000
vt 0.125000 0.531250
vt 0.125000 0.515625
vt 0.640625 0.718750
vt 0.640625 0.687500
vt 0.640625 0.562500
vt 0.640625 0.625000
vt 0.640625 0.531250
vt 0.640625 0.515625
vt 0.343750 0.500000
vt 0.359375 0.500000
vt 0.640625 0.500000
vt 0.843750 0.500000
vt 0.859375 0.500000
vt 0.843750 0.515625
vt 0.125000 0.500000
vt 0.140625 0.500000
vt 0.312500 0.500000
vt 0.656250 0.500000
vt 0.656250 0.515625
vt 0.812500 0.500000
vt 0.812500 0.515625
vt 0.156250 0.500000
vt 0.250000 0.500000
vt 0.687500 0.500000
vt 0.687500 0.515625
vt 0.750000 0.500000
vt 0.750000 0.515625
vt 0.187500 0.500000
vt 0.875000 0.500000
vt 0.000000 0.000000
vt 0.000000 0.000000
vt 0.000000 0.000000
vt 0.000000 0.000000
vt 0.000000 0.000000
vt 0.000000 0.000000
vt 0.000000 0.000000
vt 0.000000 0.000000
vt 0.000000 0.000000
vt 0.000000 0.000000
vt 0.000000 0.000000
vt 0.000000 0.000000
vn 0.0000 0.0000 -1.0000
vn 0.0000 0.0000 1.0000
vn -1.0000 0.0000 0.0000
vn 0.0000 -1.0000 0.0000
vn 1.0000 0.0000 0.0000
vn 0.0000 1.0000 0.0000
usemtl Material
s off
f 122/1/1 5/2/1 11/3/1 123/4/1
f 121/5/2 115/6/2 7/7/2 8/8/2
f 153/9/3 150/10/3 5/2/3 6/11/3
f 149/12/4 112/13/4 4/14/4 132/15/4
f 112/13/5 99/16/5 3/17/5 4/14/5
f 139/18/1 133/19/1 1/20/1 2/21/1
f 131/22/6 113/23/6 12/24/6 116/25/6
f 140/26/2 3/17/2 10/27/2 141/28/2
f 111/29/3 7/30/3 12/31/3 113/32/3
f 154/33/5 1/20/5 9/34/5 155/35/5
f 41/36/5 14/37/5 17/38/5 42/39/5
f 49/40/3 15/41/3 18/42/3 51/43/3
f 126/44/6 51/45/6 18/46/6 124/47/6
f 50/48/5 53/49/5 14/37/5 16/50/5
f 144/51/4 50/48/4 16/50/4 142/52/4
f 40/53/3 43/54/3 15/41/3 13/55/3
f 56/56/4 55/57/4 25/58/4 29/59/4
f 27/60/2 20/61/2 23/62/2 28/63/2
f 105/64/6 101/65/6 23/66/6 38/67/6
f 26/68/1 31/69/1 22/70/1 19/71/1
f 103/72/4 102/73/4 21/74/4 30/75/4
f 33/76/2 37/77/2 20/61/2 21/78/2
f 34/79/1 22/70/1 24/80/1 35/81/1
f 107/82/4 103/72/4 30/75/4 71/83/4
f 67/84/1 72/85/1 31/69/1 26/68/1
f 68/86/2 27/60/2 28/63/2 69/87/2
f 75/88/4 56/56/4 29/59/4 70/89/4
f 101/65/6 104/90/6 28/91/6 23/66/6
f 21/78/2 20/61/2 27/60/2 30/92/2
f 22/70/1 31/69/1 32/93/1 24/80/1
f 78/94/1 34/79/1 35/81/1 79/95/1
f 77/96/2 81/97/2 37/77/2 33/76/2
f 109/98/6 105/64/6 38/67/6 82/99/6
f 55/57/4 57/100/4 39/101/4 25/58/4
f 20/61/2 37/77/2 38/102/2 23/62/2
f 19/71/1 22/70/1 34/79/1 36/103/1
f 102/73/4 106/104/4 33/105/4 21/74/4
f 25/58/4 39/101/4 48/106/4 46/107/4
f 70/89/4 29/59/4 47/108/4 74/109/4
f 29/59/4 25/58/4 46/107/4 47/108/4
f 87/110/3 93/111/3 43/54/3 40/53/3
f 88/112/5 41/36/5 42/39/5 89/113/5
f 15/41/3 43/54/3 45/114/3 18/42/3
f 124/47/6 18/46/6 45/115/6 125/116/6
f 16/50/5 14/37/5 41/36/5 44/117/5
f 142/52/4 16/50/4 44/117/4 143/118/4
f 64/119/4 66/120/4 57/100/4 55/57/4
f 76/121/4 65/122/4 56/56/4 75/88/4
f 65/122/4 64/119/4 55/57/4 56/56/4
f 145/123/4 59/124/4 50/48/4 144/51/4
f 59/124/5 62/125/5 53/49/5 50/48/5
f 127/126/6 60/127/6 51/45/6 126/44/6
f 58/128/3 49/40/3 51/43/3 60/129/3
f 14/37/5 53/49/5 54/130/5 17/38/5
f 13/55/3 15/41/3 49/40/3 52/131/3
f 150/10/3 58/128/3 60/129/3 152/132/3
f 167/133/6 152/134/6 60/127/6 127/126/6
f 151/135/5 154/33/5 62/125/5 59/124/5
f 169/136/4 151/135/4 59/124/4 145/123/4
f 158/137/4 156/138/4 64/119/4 65/122/4
f 162/139/4 158/137/4 65/122/4 76/121/4
f 156/138/4 161/140/4 66/120/4 64/119/4
f 53/49/5 62/125/5 63/141/5 54/130/5
f 52/131/3 49/40/3 58/128/3 61/142/3
f 166/143/4 162/139/4 76/121/4 120/144/4
f 120/144/4 76/121/4 75/88/4 119/145/4
f 117/146/4 70/89/4 74/109/4 118/147/4
f 119/145/4 75/88/4 70/89/4 117/146/4
f 115/6/2 68/86/2 69/87/2 116/148/2
f 114/149/1 122/1/1 72/85/1 67/84/1
f 130/150/4 107/82/4 71/83/4 121/151/4
f 104/90/6 108/152/6 69/153/6 28/91/6
f 30/92/2 27/60/2 68/86/2 71/154/2
f 31/69/1 72/85/1 73/155/1 32/93/1
f 161/140/4 165/156/4 86/157/4 66/120/4
f 66/120/4 86/157/4 85/158/4 57/100/4
f 39/101/4 83/159/4 84/160/4 48/106/4
f 148/161/6 109/98/6 82/99/6 141/162/6
f 132/163/2 140/26/2 81/97/2 77/96/2
f 133/19/1 78/94/1 79/95/1 134/164/1
f 57/100/4 85/158/4 83/159/4 39/101/4
f 37/77/2 81/97/2 82/165/2 38/102/2
f 36/103/1 34/79/1 78/94/1 80/166/1
f 106/104/4 110/167/4 77/168/4 33/105/4
f 48/106/4 84/160/4 97/169/4 92/170/4
f 118/147/4 74/109/4 96/171/4 128/172/4
f 99/16/5 88/112/5 89/113/5 100/173/5
f 98/174/3 111/29/3 93/111/3 87/110/3
f 46/107/4 48/106/4 92/170/4 90/175/4
f 74/109/4 47/108/4 91/176/4 96/171/4
f 47/108/4 46/107/4 90/175/4 91/176/4
f 43/54/3 93/111/3 95/177/3 45/114/3
f 125/116/6 45/115/6 95/178/6 129/179/6
f 44/117/5 41/36/5 88/112/5 94/180/5
f 143/118/4 44/117/4 94/180/4 147/181/4
f 8/182/3 7/30/3 111/29/3 98/174/3
f 3/17/5 99/16/5 100/173/5 10/27/5
f 92/170/4 97/169/4 110/167/4 106/104/4
f 128/172/4 96/171/4 107/82/4 130/150/4
f 90/175/4 92/170/4 106/104/4 102/73/4
f 96/171/4 91/176/4 103/72/4 107/82/4
f 91/176/4 90/175/4 102/73/4 103/72/4
f 93/111/3 111/29/3 113/32/3 95/177/3
f 129/179/6 95/178/6 113/23/6 131/22/6
f 94/180/5 88/112/5 99/16/5 112/13/5
f 147/181/4 94/180/4 112/13/4 149/12/4
f 87/183/4 128/172/4 130/150/4 98/184/4
f 40/185/4 118/147/4 128/172/4 87/183/4
f 98/184/4 130/150/4 121/151/4 8/186/4
f 6/11/1 5/2/1 122/1/1 114/149/1
f 7/7/2 115/6/2 116/148/2 12/187/2
f 52/188/4 119/145/4 117/146/4 13/189/4
f 13/189/4 117/146/4 118/147/4 40/185/4
f 61/190/4 120/144/4 119/145/4 52/188/4
f 153/191/4 166/143/4 120/144/4 61/190/4
f 108/152/6 131/22/6 116/25/6 69/153/6
f 71/154/2 68/86/2 115/6/2 121/5/2
f 72/85/1 122/1/1 123/4/1 73/155/1
f 97/169/4 147/181/4 149/12/4 110/167/4
f 89/113/6 146/192/6 148/161/6 100/173/6
f 84/160/4 143/118/4 147/181/4 97/169/4
f 42/39/6 136/193/6 146/192/6 89/113/6
f 1/20/1 133/19/1 134/164/1 9/34/1
f 4/14/2 3/17/2 140/26/2 132/163/2
f 100/173/6 148/161/6 141/162/6 10/27/6
f 54/130/6 137/194/6 135/195/6 17/38/6
f 17/38/6 135/195/6 136/193/6 42/39/6
f 63/141/6 138/196/6 137/194/6 54/130/6
f 155/35/6 168/197/6 138/196/6 63/141/6
f 165/156/4 169/136/4 145/123/4 86/157/4
f 86/157/4 145/123/4 144/51/4 85/158/4
f 83/159/4 142/52/4 143/118/4 84/160/4
f 85/158/4 144/51/4 142/52/4 83/159/4
f 81/97/2 140/26/2 141/28/2 82/165/2
f 80/166/1 78/94/1 133/19/1 139/18/1
f 110/167/4 149/12/4 132/15/4 77/168/4
f 80/198/4 139/199/4 169/136/4 165/156/4
f 9/34/6 134/200/6 168/197/6 155/35/6
f 73/201/6 123/202/6 167/133/6 163/203/6
f 6/204/4 114/205/4 166/143/4 153/191/4
f 36/206/4 80/198/4 165/156/4 161/140/4
f 134/200/6 79/207/6 164/208/6 168/197/6
f 32/209/6 73/201/6 163/203/6 159/210/6
f 114/205/4 67/211/4 162/139/4 166/143/4
f 19/212/4 36/206/4 161/140/4 156/138/4
f 79/207/6 35/213/6 160/214/6 164/208/6
f 24/215/6 32/209/6 159/210/6 157/216/6
f 67/211/4 26/217/4 158/137/4 162/139/4
f 35/213/6 24/215/6 157/216/6 160/214/6
f 26/217/4 19/212/4 156/138/4 158/137/4
f 139/199/4 2/21/4 151/135/4 169/136/4
f 2/21/5 1/20/5 154/33/5 151/135/5
f 123/202/6 11/218/6 152/134/6 167/133/6
f 5/2/3 150/10/3 152/132/3 11/3/3
f 62/125/5 154/33/5 155/35/5 63/141/5
f 61/142/3 58/128/3 150/10/3 153/9/3
f 149/219/3 148/220/3 168/221/3 169/222/3
f 130/223/1 131/224/1 148/220/1 149/219/1
f 131/224/5 130/223/5 166/225/5 167/226/5
f 168/221/2 167/226/2 166/225/2 169/222/2
f 3/227/6 1/228/6 5/229/6 7/230/6
