# Blender v2.90.1 OBJ File: ''
# www.blender.org
mtllib outward.mtl
o BOEBOT_Mount_V1
v 0.358000 0.875000 -0.150000
v 0.358000 0.875000 -0.062500
v 0.483000 0.875000 -0.150000
v 0.483000 0.875000 -0.062500
v 0.358000 0.975000 -0.250000
v 0.483000 0.975000 -0.250000
v 0.358000 1.125000 -0.250000
v 0.483000 1.125000 -0.250000
v 0.483000 0.474107 -0.900000
v 0.483000 0.125000 -0.779411
v 0.483000 0.297330 -0.900000
v 0.483000 0.125000 -0.900000
v 0.483000 0.384968 0.775000
v 0.483000 -0.000000 0.600000
v 0.483000 0.125000 0.600000
v 0.483000 0.947894 -0.819194
v 0.483000 0.992089 -0.837500
v 0.483000 0.403430 0.819570
v 0.483000 0.297330 0.900000
v 0.483000 0.462500 0.062500
v 0.483000 0.875000 0.062500
v 0.483000 0.875000 0.150000
v 0.483000 0.511032 0.775000
v 0.483000 0.492570 0.730430
v 0.483000 0.448000 0.711968
v 0.483000 0.474107 0.900000
v 0.483000 0.448000 0.838031
v 0.483000 0.492570 0.819570
v 0.483000 1.125000 0.900000
v 0.483000 1.125000 -0.900000
v 0.483000 1.054589 -0.775000
v 0.483000 1.036283 -0.819194
v 0.483000 0.125000 -0.600000
v 0.483000 0.462500 -0.062500
v 0.483000 0.403430 0.730430
v 0.483000 0.125000 0.900000
v 0.483000 0.125000 0.779411
v 0.483000 -0.000000 0.779411
v 0.483000 0.975000 0.250000
v 0.483000 1.125000 0.250000
v 0.483000 1.036283 -0.730806
v 0.483000 0.992089 -0.712500
v 0.483000 0.947894 -0.730806
v 0.483000 0.929589 -0.775000
v 0.483000 0.000000 -0.600000
v 0.483000 0.000000 -0.779411
v 0.358000 0.125000 0.900000
v 0.358000 0.422330 0.900000
v 0.358000 0.384968 0.775000
v 0.358000 0.403430 0.819570
v 0.358000 0.448000 0.838031
v 0.358000 0.462500 0.062500
v 0.358000 0.462500 -0.062500
v 0.358000 0.448000 0.711968
v 0.358000 0.492570 0.730430
v 0.358000 0.511032 0.775000
v 0.358000 0.875000 0.150000
v 0.358000 0.875000 0.062500
v 0.358000 0.599107 0.900000
v 0.358000 1.125000 0.900000
v 0.358000 0.492570 0.819570
v 0.358000 0.599107 -0.900000
v 0.358000 0.422330 -0.900000
v 0.358000 0.929589 -0.775000
v 0.358000 0.947894 -0.819194
v 0.358000 0.992089 -0.837500
v 0.358000 1.125000 -0.900000
v 0.358000 1.036283 -0.819194
v 0.358000 1.054589 -0.775000
v 0.358000 0.125000 -0.900000
v 0.358000 0.403430 0.730430
v 0.358000 1.125000 0.250000
v 0.358000 0.975000 0.250000
v 0.358000 1.036283 -0.730806
v 0.358000 0.992089 -0.712500
v 0.358000 0.947894 -0.730806
v 0.125000 1.500000 0.750000
v 0.125000 1.337500 0.700000
v 0.125000 1.337500 0.350000
v 0.125000 1.000000 1.250000
v 0.125000 1.212500 0.700000
v 0.125000 1.212500 -0.062500
v 0.125000 1.212500 -0.350000
v 0.125000 1.337500 -0.350000
v 0.125000 1.000000 -1.250000
v 0.125000 0.832107 -0.900000
v 0.125000 0.832107 -1.250000
v 0.125000 1.212500 0.350000
v 0.125000 1.212500 0.062500
v 0.125000 0.125000 1.250000
v 0.125000 0.125000 -1.250000
v 0.125000 0.655330 -1.250000
v 0.125000 0.655330 -0.900000
v 0.125000 0.462500 -0.062500
v 0.125000 0.462500 0.062500
v 0.125000 0.655330 0.900000
v 0.125000 0.655330 1.250000
v 0.125000 0.832107 0.900000
v 0.125000 0.832107 1.250000
v 0.125000 1.212500 -0.700000
v 0.125000 1.337500 -0.700000
v 0.125000 1.500000 -0.750000
v 0.000000 1.337500 0.350000
v 0.000000 1.337500 0.700000
v 0.000000 1.500000 0.750000
v 0.000000 1.337500 -0.350000
v 0.000000 1.212500 -0.350000
v 0.000000 1.212500 -0.062500
v 0.000000 1.212500 0.062500
v 0.000000 1.212500 0.350000
v 0.000000 0.103992 -0.500000
v 0.000000 0.103992 0.500000
v 0.000000 0.462500 0.062500
v 0.000000 0.462500 -0.062500
v 0.000000 1.212500 -0.700000
v 0.000000 0.000000 -0.500000
v 0.000000 -0.000000 0.500000
v 0.000000 -0.000000 1.250000
v 0.000000 1.212500 0.700000
v 0.000000 1.000000 1.250000
v 0.000000 1.500000 -0.750000
v 0.000000 1.337500 -0.700000
v 0.000000 1.000000 -1.250000
v 0.000000 0.000000 -1.250000
v 0.125000 -0.000000 1.250000
v 0.125000 0.000000 -1.250000
v 0.700000 0.125000 0.237500
v 0.700000 0.125000 -0.237500
v 0.655806 0.125000 -0.255806
v 0.744194 0.125000 -0.255806
v 0.762500 0.125000 -0.300000
v 0.800000 0.125000 -0.500000
v 0.583000 0.125000 -0.500000
v 0.700000 0.125000 -0.362500
v 0.744194 0.125000 -0.344194
v 0.744194 0.125000 0.255806
v 0.762500 0.125000 0.300000
v 0.583000 0.125000 0.500000
v 0.800000 0.125000 0.500000
v 0.700000 0.125000 0.362500
v 0.655806 0.125000 0.344194
v 0.637500 0.125000 0.300000
v 0.655806 0.125000 0.255806
v 0.637500 0.125000 -0.300000
v 0.655806 0.125000 -0.344194
v 0.744194 0.125000 0.344194
v 1.727885 -0.000000 1.394684
v 1.641081 -0.000000 1.194185
v 1.685275 -0.000000 1.175879
v 2.117389 -0.000000 1.424312
v 0.700000 -0.000000 0.237500
v 0.744194 0.000000 -0.255806
v 0.762500 0.000000 -0.300000
v 0.700000 0.000000 -0.237500
v 0.655806 0.000000 -0.255806
v 1.744292 0.000000 -1.400154
v 2.117389 0.000000 -1.424312
v 1.641081 0.000000 -1.194185
v 1.596887 0.000000 -1.175879
v 1.578581 0.000000 -1.131685
v 2.160967 0.000000 -0.926214
v 1.641081 0.000000 -1.069185
v 1.685275 0.000000 -1.087491
v 1.596887 0.000000 -1.087491
v 0.800000 0.000000 -0.500000
v 0.762500 -0.000000 0.300000
v 0.744194 -0.000000 0.255806
v 0.744194 0.000000 -0.344194
v 0.700000 0.000000 -0.362500
v 0.583000 0.000000 -0.500000
v 0.800000 -0.000000 0.500000
v 0.583000 -0.000000 0.500000
v 0.700000 -0.000000 0.362500
v 0.744194 -0.000000 0.344194
v 0.346496 -0.000000 0.500000
v 1.578581 -0.000000 1.131685
v 1.596887 -0.000000 1.175879
v 2.160967 -0.000000 0.926214
v 1.641081 -0.000000 1.069185
v 1.596887 -0.000000 1.087491
v 1.703581 -0.000000 1.131685
v 1.685275 -0.000000 1.087491
v 0.346496 0.000000 -0.500000
v 0.655806 0.000000 -0.344194
v 0.637500 0.000000 -0.300000
v 0.655806 -0.000000 0.255806
v 0.637500 -0.000000 0.300000
v 0.655806 -0.000000 0.344194
v 1.703581 0.000000 -1.131685
v 1.685275 0.000000 -1.175879
v 1.727885 0.125000 1.394684
v 0.905315 0.125000 1.318269
v 0.832107 0.125000 1.311864
v 0.655330 0.125000 1.296398
v 0.259064 0.125000 1.261729
v 0.259064 0.125000 -1.261729
v 0.655330 0.125000 -1.296398
v 0.832107 0.125000 -1.311864
v 0.905315 0.125000 -1.318269
v 1.744292 0.125000 -1.400154
v 1.641081 0.125000 -1.194185
v 1.685275 0.125000 -1.087491
v 1.641081 0.125000 -1.069185
v 2.160967 0.125000 -0.926214
v 1.641081 0.125000 1.194185
v 0.832107 0.125000 -0.900000
v 0.655330 0.125000 -0.900000
v 0.655330 0.125000 0.900000
v 0.832107 0.125000 0.900000
v 1.641081 0.125000 1.069185
v 2.160967 0.125000 0.926214
v 2.117389 0.125000 1.424312
v 1.685275 0.125000 1.175879
v 2.117389 0.125000 -1.424312
v 1.685275 0.125000 -1.175879
v 1.703581 0.125000 -1.131685
v 1.596887 0.125000 -1.087491
v 1.578581 0.125000 -1.131685
v 1.596887 0.125000 -1.175879
v 1.596887 0.125000 1.175879
v 1.578581 0.125000 1.131685
v 1.596887 0.125000 1.087491
v 1.685275 0.125000 1.087491
v 1.703581 0.125000 1.131685
v 1.679890 0.000000 -2.136271
v 2.052987 0.000000 -2.160429
v 1.679890 0.125000 -2.136271
v 2.052987 0.125000 -2.160429
v 1.662516 -0.000000 2.083743
v 2.052020 -0.000000 2.113370
v 1.662516 0.125000 2.083743
v 2.052020 0.125000 2.113370
vn 0.0000 1.0000 0.0000
vn 0.0000 -0.0000 1.0000
vn 1.0000 0.0000 0.0000
vn -1.0000 0.0000 0.0000
vn 0.0000 0.7071 0.7071
vn 0.0000 0.0000 -1.0000
vn 0.0000 0.7071 -0.7071
vn 0.0000 -1.0000 0.0000
vn -0.3827 -0.0000 0.9239
vn -0.9239 -0.0000 0.3827
vn 0.3827 -0.0000 0.9239
vn 0.9239 0.0000 0.3827
vn 0.3827 0.0000 -0.9239
vn 0.9239 0.0000 -0.3827
vn -0.3827 0.0000 -0.9239
vn -0.9239 0.0000 -0.3827
vn -0.2875 -0.9578 -0.0000
vn 0.7071 0.0000 -0.7071
vn 0.7071 0.0000 0.7071
vn 0.0000 0.9239 0.3827
vn 0.0000 0.3827 0.9239
vn 0.0000 0.9239 -0.3827
vn 0.0000 0.3827 -0.9239
vn 0.0000 -0.9239 -0.3827
vn 0.0000 -0.3827 -0.9239
vn 0.0000 -0.9239 0.3827
vn 0.0000 -0.3827 0.9239
vn -0.0876 0.0017 0.9962
vn -0.6251 -0.5828 0.5192
vn -0.6248 0.5834 0.5189
vn -0.0922 0.0319 0.9952
vn -0.0872 0.0000 0.9962
vn -0.0879 0.0033 -0.9961
vn -0.0872 0.0000 -0.9962
vn -0.0965 0.0595 -0.9936
vn -0.6238 0.5830 -0.5206
vn -0.6244 -0.5819 -0.5212
vn 0.0872 0.0000 0.9962
vn 0.0872 0.0000 -0.9962
vn 0.7071 0.7071 0.0000
vn -0.7071 -0.7071 -0.0000
vn 0.9962 0.0000 0.0872
vn 0.9962 0.0000 -0.0872
vn -0.6201 0.5762 -0.5324
vn -0.6201 -0.5762 -0.5324
vn 0.7095 -0.7020 -0.0621
vn 0.6994 -0.7121 -0.0612
vn 0.7081 -0.7029 0.0672
vn 0.6998 -0.7113 0.0664
vn -0.6249 -0.5764 0.5265
vn 0.7081 0.7029 0.0672
vn 0.6998 0.7113 0.0664
vn -0.0646 0.0000 -0.9979
vn 0.7095 0.7020 -0.0621
vn 0.6994 0.7121 -0.0612
vn -0.6249 0.5764 0.5265
vn -0.0758 0.0000 0.9971
usemtl None
s 1
f 1//1 2//1 3//1
f 3//1 2//1 4//1
f 5//2 6//2 7//2
f 7//2 6//2 8//2
f 9//3 10//3 11//3
f 10//3 12//3 11//3
f 13//3 14//3 15//3
f 16//3 9//3 17//3
f 13//3 18//3 19//3
f 20//3 21//3 22//3
f 20//3 22//3 23//3
f 20//3 23//3 24//3
f 20//3 24//3 25//3
f 26//3 19//3 18//3
f 26//3 18//3 27//3
f 26//3 27//3 28//3
f 26//3 28//3 23//3
f 26//3 23//3 29//3
f 30//3 8//3 31//3
f 30//3 31//3 32//3
f 30//3 32//3 17//3
f 30//3 17//3 9//3
f 33//3 3//3 4//3
f 33//3 4//3 34//3
f 33//3 34//3 20//3
f 33//3 20//3 25//3
f 33//3 25//3 35//3
f 33//3 35//3 13//3
f 33//3 13//3 15//3
f 36//3 37//3 19//3
f 19//3 37//3 13//3
f 37//3 38//3 13//3
f 13//3 38//3 14//3
f 22//3 39//3 23//3
f 23//3 39//3 40//3
f 23//3 40//3 29//3
f 41//3 6//3 42//3
f 42//3 6//3 3//3
f 42//3 3//3 43//3
f 43//3 3//3 33//3
f 43//3 33//3 44//3
f 44//3 33//3 45//3
f 44//3 45//3 46//3
f 46//3 10//3 44//3
f 44//3 10//3 9//3
f 44//3 9//3 16//3
f 41//3 31//3 6//3
f 6//3 31//3 8//3
f 47//4 48//4 49//4
f 48//4 50//4 49//4
f 48//4 51//4 50//4
f 52//4 53//4 54//4
f 52//4 54//4 55//4
f 52//4 55//4 56//4
f 52//4 56//4 57//4
f 52//4 57//4 58//4
f 59//4 60//4 56//4
f 59//4 56//4 61//4
f 59//4 61//4 51//4
f 59//4 51//4 48//4
f 62//4 63//4 64//4
f 62//4 64//4 65//4
f 62//4 65//4 66//4
f 67//4 62//4 66//4
f 67//4 66//4 68//4
f 67//4 68//4 69//4
f 67//4 69//4 7//4
f 70//4 47//4 49//4
f 70//4 49//4 71//4
f 70//4 71//4 54//4
f 70//4 54//4 53//4
f 70//4 53//4 2//4
f 70//4 2//4 1//4
f 70//4 1//4 64//4
f 70//4 64//4 63//4
f 60//4 72//4 56//4
f 56//4 72//4 73//4
f 56//4 73//4 57//4
f 7//4 69//4 5//4
f 5//4 69//4 74//4
f 5//4 74//4 75//4
f 5//4 75//4 1//4
f 1//4 75//4 76//4
f 1//4 76//4 64//4
f 3//5 6//5 1//5
f 1//5 6//5 5//5
f 58//1 57//1 21//1
f 21//1 57//1 22//1
f 72//6 40//6 73//6
f 73//6 40//6 39//6
f 39//7 22//7 73//7
f 73//7 22//7 57//7
f 67//1 7//1 30//1
f 30//1 7//1 8//1
f 72//1 60//1 40//1
f 40//1 60//1 29//1
f 34//2 4//2 53//2
f 53//2 4//2 2//2
f 21//6 20//6 58//6
f 58//6 20//6 52//6
f 77//3 78//3 79//3
f 77//3 80//3 78//3
f 78//3 80//3 81//3
f 82//3 83//3 84//3
f 85//3 86//3 87//3
f 79//3 88//3 89//3
f 79//3 89//3 82//3
f 79//3 82//3 84//3
f 79//3 84//3 77//3
f 90//3 91//3 92//3
f 90//3 92//3 93//3
f 90//3 93//3 94//3
f 90//3 94//3 95//3
f 90//3 95//3 89//3
f 90//3 89//3 88//3
f 90//3 88//3 96//3
f 90//3 96//3 97//3
f 98//3 96//3 88//3
f 98//3 88//3 81//3
f 98//3 81//3 80//3
f 98//3 80//3 99//3
f 94//3 93//3 86//3
f 94//3 86//3 85//3
f 94//3 85//3 100//3
f 94//3 100//3 83//3
f 94//3 83//3 82//3
f 100//3 85//3 101//3
f 101//3 85//3 102//3
f 101//3 102//3 84//3
f 84//3 102//3 77//3
f 103//4 104//4 105//4
f 106//4 107//4 108//4
f 103//4 105//4 106//4
f 103//4 106//4 108//4
f 103//4 108//4 109//4
f 103//4 109//4 110//4
f 111//4 112//4 113//4
f 111//4 113//4 114//4
f 111//4 114//4 108//4
f 111//4 108//4 107//4
f 111//4 107//4 115//4
f 111//4 115//4 116//4
f 112//4 117//4 118//4
f 112//4 118//4 119//4
f 112//4 119//4 110//4
f 112//4 110//4 109//4
f 112//4 109//4 113//4
f 105//4 104//4 120//4
f 120//4 104//4 119//4
f 120//4 119//4 118//4
f 121//4 106//4 105//4
f 106//4 121//4 122//4
f 122//4 121//4 123//4
f 122//4 123//4 115//4
f 115//4 123//4 124//4
f 115//4 124//4 116//4
f 77//1 102//1 105//1
f 105//1 102//1 121//1
f 120//2 118//2 125//2
f 120//2 125//2 90//2
f 120//2 90//2 97//2
f 120//2 97//2 99//2
f 120//2 99//2 80//2
f 120//5 80//5 105//5
f 105//5 80//5 77//5
f 124//6 123//6 85//6
f 124//6 85//6 87//6
f 124//6 87//6 92//6
f 124//6 92//6 91//6
f 124//6 91//6 126//6
f 121//7 102//7 123//7
f 123//7 102//7 85//7
f 108//8 82//8 109//8
f 109//8 82//8 89//8
f 89//6 95//6 109//6
f 109//6 95//6 113//6
f 34//1 53//1 20//1
f 20//1 53//1 52//1
f 94//1 114//1 95//1
f 95//1 114//1 113//1
f 94//2 82//2 114//2
f 114//2 82//2 108//2
f 106//8 122//8 84//8
f 84//8 122//8 101//8
f 84//6 83//6 106//6
f 106//6 83//6 107//6
f 115//1 107//1 100//1
f 100//1 107//1 83//1
f 100//2 101//2 115//2
f 115//2 101//2 122//2
f 78//6 81//6 104//6
f 104//6 81//6 119//6
f 110//1 119//1 88//1
f 88//1 119//1 81//1
f 79//2 103//2 88//2
f 88//2 103//2 110//2
f 104//8 103//8 78//8
f 78//8 103//8 79//8
f 127//1 128//1 129//1
f 130//1 127//1 131//1
f 128//1 127//1 130//1
f 132//1 133//1 134//1
f 132//1 134//1 135//1
f 132//1 135//1 131//1
f 132//1 131//1 127//1
f 132//1 127//1 136//1
f 132//1 136//1 137//1
f 138//1 139//1 140//1
f 138//1 140//1 141//1
f 138//1 141//1 142//1
f 138//1 142//1 33//1
f 138//1 33//1 15//1
f 33//1 142//1 143//1
f 33//1 143//1 127//1
f 33//1 127//1 129//1
f 33//1 129//1 144//1
f 33//1 144//1 145//1
f 33//1 145//1 134//1
f 33//1 134//1 133//1
f 139//1 132//1 137//1
f 139//1 137//1 146//1
f 139//1 146//1 140//1
f 118//8 38//8 125//8
f 38//8 147//8 125//8
f 148//8 149//8 150//8
f 151//8 152//8 153//8
f 151//8 154//8 152//8
f 154//8 151//8 155//8
f 156//8 157//8 158//8
f 156//8 158//8 159//1
f 156//8 159//1 160//8
f 161//8 46//8 162//8
f 161//8 162//8 163//8
f 161//8 163//8 157//8
f 46//8 45//8 124//8
f 46//8 124//8 126//8
f 46//8 126//8 156//8
f 46//8 156//8 160//8
f 46//8 160//8 164//8
f 46//8 164//8 162//8
f 165//8 166//8 167//8
f 165//8 167//8 151//8
f 165//8 151//8 153//8
f 165//8 153//8 168//8
f 165//8 168//8 169//8
f 165//8 169//8 170//8
f 171//8 172//8 173//8
f 171//8 173//8 174//8
f 171//8 174//8 166//8
f 171//8 166//8 165//8
f 14//8 38//8 118//8
f 14//8 118//8 117//8
f 14//8 117//8 175//8
f 14//8 175//8 172//8
f 147//8 38//8 176//8
f 147//8 176//8 177//1
f 147//8 177//1 148//8
f 147//8 148//8 150//8
f 38//8 178//8 179//8
f 38//8 179//8 180//8
f 38//8 180//8 176//8
f 178//8 150//8 149//8
f 178//8 149//8 181//8
f 178//8 181//8 182//8
f 178//8 182//8 179//8
f 183//8 116//8 124//8
f 183//8 124//8 45//8
f 183//8 45//8 170//8
f 183//8 170//8 169//8
f 183//8 169//8 184//8
f 183//8 184//8 185//8
f 183//8 185//8 155//8
f 183//8 155//8 151//8
f 183//8 151//8 186//8
f 183//8 186//8 187//8
f 175//8 183//8 187//8
f 175//8 187//8 188//8
f 175//8 188//8 173//8
f 175//8 173//8 172//8
f 157//8 163//8 189//8
f 157//8 189//8 190//8
f 157//8 190//8 158//8
f 134//9 168//9 135//9
f 135//10 168//10 153//10
f 135//10 153//10 131//10
f 168//9 134//9 169//9
f 169//11 134//11 145//11
f 169//11 145//11 184//11
f 184//12 145//12 144//12
f 184//12 144//12 185//12
f 128//13 155//13 129//13
f 129//14 155//14 185//14
f 129//14 185//14 144//14
f 155//13 128//13 154//13
f 154//15 128//15 130//15
f 154//15 130//15 152//15
f 152//16 130//16 131//16
f 152//16 131//16 153//16
f 127//9 167//9 136//9
f 136//10 167//10 166//10
f 136//10 166//10 137//10
f 167//9 127//9 151//9
f 151//11 127//11 143//11
f 151//11 143//11 186//11
f 186//12 143//12 142//12
f 186//12 142//12 187//12
f 140//13 188//13 141//13
f 141//14 188//14 187//14
f 141//14 187//14 142//14
f 188//13 140//13 173//13
f 173//15 140//15 146//15
f 173//15 146//15 174//15
f 174//16 146//16 137//16
f 174//16 137//16 166//16
f 175//6 117//6 112//6
f 116//2 183//2 111//2
f 111//17 183//17 112//17
f 112//17 183//17 175//17
f 170//18 45//18 133//18
f 133//18 45//18 33//18
f 138//2 172//2 139//2
f 139//2 172//2 171//2
f 14//19 172//19 15//19
f 15//19 172//19 138//19
f 132//6 165//6 133//6
f 133//6 165//6 170//6
f 132//3 139//3 165//3
f 165//3 139//3 171//3
f 49//20 35//20 71//20
f 71//21 35//21 25//21
f 71//21 25//21 54//21
f 35//20 49//20 13//20
f 13//22 49//22 50//22
f 13//22 50//22 18//22
f 18//23 50//23 51//23
f 18//23 51//23 27//23
f 56//24 28//24 61//24
f 61//25 28//25 27//25
f 61//25 27//25 51//25
f 28//24 56//24 23//24
f 23//26 56//26 55//26
f 23//26 55//26 24//26
f 24//27 55//27 54//27
f 24//27 54//27 25//27
f 64//20 16//20 65//20
f 65//21 16//21 17//21
f 65//21 17//21 66//21
f 16//20 64//20 44//20
f 44//22 64//22 76//22
f 44//22 76//22 43//22
f 43//23 76//23 75//23
f 43//23 75//23 42//23
f 69//24 41//24 74//24
f 74//25 41//25 42//25
f 74//25 42//25 75//25
f 41//24 69//24 31//24
f 31//26 69//26 68//26
f 31//26 68//26 32//26
f 32//27 68//27 66//27
f 32//27 66//27 17//27
f 125//28 147//29 191//30
f 125//28 191//30 192//31
f 125//28 192//31 193//32
f 125//28 193//32 194//32
f 125//28 194//32 195//32
f 125//28 195//32 90//32
f 99//32 97//32 193//32
f 193//32 97//32 194//32
f 126//33 91//34 196//34
f 126//33 196//34 197//34
f 126//33 197//34 198//34
f 126//33 198//34 199//35
f 126//33 199//35 200//36
f 126//33 200//36 156//37
f 87//34 198//34 92//34
f 92//34 198//34 197//34
f 201//1 200//1 199//1
f 202//1 203//1 204//1
f 12//1 91//1 70//1
f 191//1 205//1 192//1
f 10//1 204//1 203//1
f 10//1 203//1 206//1
f 10//1 206//1 207//1
f 10//1 207//1 12//1
f 37//1 36//1 208//1
f 37//1 208//1 209//1
f 37//1 209//1 210//1
f 37//1 210//1 211//1
f 212//1 211//1 213//1
f 212//1 213//1 205//1
f 212//1 205//1 191//1
f 214//1 200//1 201//1
f 214//1 201//1 215//1
f 214//1 215//1 216//1
f 214//1 216//1 202//1
f 214//1 202//1 204//1
f 198//1 206//1 203//1
f 198//1 203//1 217//1
f 198//1 217//1 218//1
f 198//1 218//1 219//1
f 198//1 219//1 201//1
f 198//1 201//1 199//1
f 209//1 193//1 192//1
f 209//1 192//1 205//1
f 209//1 205//1 220//1
f 209//1 220//1 221//1
f 209//1 221//1 222//1
f 209//1 222//1 210//1
f 211//1 210//1 223//1
f 211//1 223//1 224//1
f 211//1 224//1 213//1
f 197//1 196//1 207//1
f 207//1 196//1 91//1
f 207//1 91//1 12//1
f 194//1 208//1 195//1
f 195//1 208//1 36//1
f 195//1 36//1 90//1
f 36//1 47//1 90//1
f 90//1 47//1 70//1
f 90//1 70//1 91//1
f 204//38 10//38 161//38
f 161//38 10//38 46//38
f 211//39 178//39 37//39
f 37//39 178//39 38//39
f 96//6 98//6 48//6
f 48//6 98//6 59//6
f 19//6 26//6 208//6
f 208//6 26//6 209//6
f 93//2 63//2 86//2
f 86//2 63//2 62//2
f 11//2 207//2 9//2
f 9//2 207//2 206//2
f 67//6 30//6 62//6
f 62//6 30//6 9//6
f 63//6 11//6 70//6
f 70//6 11//6 12//6
f 47//2 36//2 48//2
f 48//2 36//2 19//2
f 59//2 26//2 60//2
f 60//2 26//2 29//2
f 198//40 87//40 86//40
f 198//40 86//40 62//40
f 198//40 62//40 9//40
f 198//40 9//40 206//40
f 193//40 209//40 26//40
f 193//40 26//40 59//40
f 193//40 59//40 98//40
f 193//40 98//40 99//40
f 194//41 97//41 96//41
f 194//41 96//41 48//41
f 194//41 48//41 19//41
f 194//41 19//41 208//41
f 11//41 197//41 207//41
f 93//41 92//41 63//41
f 63//41 92//41 197//41
f 63//41 197//41 11//41
f 212//42 150//42 211//42
f 211//42 150//42 178//42
f 214//43 204//43 157//43
f 157//43 204//43 161//43
f 156//37 200//36 227//44 225//45
f 157//46 156//37 225//45 226//47
f 147//29 150//48 230//49 229//50
f 150//48 212//51 232//52 230//49
f 148//15 213//15 149//15
f 149//16 213//16 224//16
f 149//16 224//16 181//16
f 213//15 148//15 205//15
f 205//13 148//13 177//13
f 205//13 177//13 220//13
f 220//14 177//14 176//14
f 220//14 176//14 221//14
f 179//11 222//11 180//11
f 180//12 222//12 221//12
f 180//12 221//12 176//12
f 222//11 179//11 210//11
f 210//9 179//9 182//9
f 210//9 182//9 223//9
f 223//10 182//10 181//10
f 223//10 181//10 224//10
f 162//15 202//15 163//15
f 163//16 202//16 216//16
f 163//16 216//16 189//16
f 202//15 162//15 203//15
f 203//13 162//13 164//13
f 203//13 164//13 217//13
f 217//14 164//14 160//14
f 217//14 160//14 218//14
f 158//11 219//11 159//11
f 159//12 219//12 218//12
f 159//12 218//12 160//12
f 219//11 158//11 201//11
f 201//9 158//9 190//9
f 201//9 190//9 215//9
f 215//10 190//10 189//10
f 215//10 189//10 216//10
f 227//44 228//53 225//45
f 225//45 228//53 226//53
f 214//54 157//46 226//47 228//55
f 200//36 214//54 228//55 227//44
f 231//56 229//50 232//57
f 232//57 229//50 230//57
f 212//51 191//30 231//56 232//52
f 191//30 147//29 229//50 231//56
