# Blender v2.90.1 OBJ File: ''
# www.blender.org
mtllib pin.mtl
o Cube
v 1.000000 5.033708 -1.000000
v 1.000000 -1.000000 -1.000000
v 1.000000 5.033708 1.000000
v 1.000000 -1.000000 1.000000
v -1.000000 5.033708 -1.000000
v -1.000000 -1.000000 -1.000000
v -1.000000 5.033708 1.000000
v -1.000000 -1.000000 1.000000
v 0.695547 4.919393 -0.695547
v 0.695547 4.919393 0.695547
v -0.695547 4.919393 -0.695547
v -0.695547 4.919393 0.695547
v 0.576456 0.118137 -0.560125
v 0.576456 0.118137 0.592787
v -0.576456 0.118137 -0.560125
v -0.576456 0.118137 0.592787
v 0.245136 0.020152 -0.228806
v 0.245136 0.020152 0.261467
v -0.245136 0.020152 -0.228806
v -0.245136 0.020152 0.261467
v 0.876036 -1.163308 -0.876036
v 0.876036 -1.163308 0.876036
v -0.876036 -1.163308 -0.876036
v -0.876036 -1.163308 0.876036
v 0.876036 -2.535095 -0.876036
v 0.876036 -2.535095 0.876036
v -0.876036 -2.535095 -0.876036
v -0.876036 -2.535095 0.876036
vt 0.625000 0.250000
vt 0.625000 0.000000
vt 0.625000 0.000000
vt 0.625000 0.250000
vt 0.375000 0.750000
vt 0.625000 0.750000
vt 0.625000 1.000000
vt 0.375000 1.000000
vt 0.375000 0.000000
vt 0.375000 0.250000
vt 0.375000 0.250000
vt 0.375000 0.000000
vt 0.375000 0.500000
vt 0.625000 0.500000
vt 0.625000 0.500000
vt 0.625000 0.250000
vt 0.625000 0.500000
vt 0.625000 0.750000
vt 0.625000 1.000000
vt 0.625000 0.000000
vt 0.625000 0.000000
vt 0.625000 0.250000
vt 0.625000 0.750000
vt 0.625000 1.000000
vt 0.625000 0.500000
vt 0.875000 0.500000
vt 0.875000 0.750000
vt 0.625000 0.750000
vt 0.625000 1.000000
vt 0.375000 0.500000
vt 0.375000 0.500000
vt 0.375000 0.250000
vt 0.375000 0.750000
vt 0.375000 1.000000
vt 0.125000 0.500000
vt 0.375000 0.750000
vt 0.125000 0.750000
vt 0.375000 1.000000
vt 0.375000 0.000000
vn 0.3515 0.9362 0.0000
vn 0.0000 0.0000 1.0000
vn -1.0000 0.0000 0.0000
vn -0.7965 -0.6046 0.0000
vn 1.0000 0.0000 0.0000
vn 0.0000 0.0000 -1.0000
vn 0.0000 0.0282 0.9996
vn -0.3515 0.9362 0.0000
vn 0.0000 0.9362 0.3515
vn 0.0000 0.9362 -0.3515
vn 0.2836 0.9589 0.0000
vn -0.9997 0.0248 0.0000
vn 0.9997 0.0248 0.0000
vn 0.0000 0.0214 -0.9998
vn 0.0000 1.0000 0.0000
vn 0.0000 0.9589 -0.2836
vn 0.0000 0.9589 0.2836
vn -0.2836 0.9589 0.0000
vn 0.7965 -0.6046 0.0000
vn 0.0000 -0.6046 -0.7965
vn 0.0000 -0.6046 0.7965
vn 0.0000 -1.0000 0.0000
usemtl Material
s off
f 5/1/1 7/2/1 12/3/1 11/4/1
f 4/5/2 3/6/2 7/7/2 8/8/2
f 8/9/3 7/2/3 5/1/3 6/10/3
f 8/9/4 6/10/4 23/11/4 24/12/4
f 2/13/5 1/14/5 3/6/5 4/5/5
f 6/10/6 5/1/6 1/14/6 2/13/6
f 9/15/7 11/4/7 15/16/7 13/17/7
f 3/6/8 1/14/8 9/15/8 10/18/8
f 1/14/9 5/1/9 11/4/9 9/15/9
f 7/7/10 3/6/10 10/18/10 12/19/10
f 15/16/11 16/20/11 20/21/11 19/22/11
f 10/18/12 9/15/12 13/17/12 14/23/12
f 11/4/13 12/3/13 16/20/13 15/16/13
f 12/19/14 10/18/14 14/23/14 16/24/14
f 17/25/15 19/26/15 20/27/15 18/28/15
f 16/24/16 14/23/16 18/28/16 20/29/16
f 13/17/17 15/16/17 19/22/17 17/25/17
f 14/23/18 13/17/18 17/25/18 18/28/18
f 23/11/6 21/30/6 25/31/6 27/32/6
f 2/13/19 4/5/19 22/33/19 21/30/19
f 6/10/20 2/13/20 21/30/20 23/11/20
f 4/5/21 8/8/21 24/34/21 22/33/21
f 27/35/22 25/31/22 26/36/22 28/37/22
f 22/33/2 24/34/2 28/38/2 26/36/2
f 24/12/3 23/11/3 27/32/3 28/39/3
f 21/30/5 22/33/5 26/36/5 25/31/5
